<svg width="50" height="50" viewBox="0 0 50 50" fill="none" xmlns="http://www.w3.org/2000/svg">
<path d="M25 5.84375C14.4204 5.84375 5.84375 14.4204 5.84375 25C5.84375 35.5796 14.4204 44.1562 25 44.1562C35.5796 44.1562 44.1562 35.5796 44.1562 25C44.1562 14.4204 35.5796 5.84375 25 5.84375ZM25 9C33.8364 9 41 16.1636 41 25C41 33.8364 33.8364 41 25 41C16.1636 41 9 33.8364 9 25C9 16.1636 16.1636 9 25 9Z" fill="#1D1D1D" stroke="white" stroke-width="0.75"/>
<path d="M22.2734 18.7343C21.8551 18.7343 21.4541 18.9005 21.1582 19.1962L16.7383 23.6161C16.33 24.0241 16.0538 24.5057 16.0537 25.0116C16.0537 25.5191 16.3281 25.9901 16.7383 26.4003L21.1582 30.8192C21.455 31.1067 21.8523 31.2671 22.2656 31.2645C22.6807 31.2619 23.0786 31.0952 23.3721 30.8016C23.6654 30.5082 23.8314 30.1111 23.834 29.6962C23.8366 29.2826 23.6765 28.8846 23.3887 28.5878L22.0312 27.2303L21.3916 26.5897H32.3926C32.8111 26.5897 33.2128 26.4238 33.5088 26.1278C33.8047 25.8319 33.9707 25.4301 33.9707 25.0116C33.9707 24.5931 33.8047 24.1913 33.5088 23.8954C33.2128 23.5995 32.8111 23.4335 32.3926 23.4335H21.3848L23.3896 21.4286C23.6856 21.1326 23.8515 20.7309 23.8516 20.3124C23.8515 19.8939 23.6856 19.4921 23.3896 19.1962C23.0937 18.9003 22.6919 18.7343 22.2734 18.7343Z" fill="#1D1D1D" stroke="white" stroke-width="0.75"/>
</svg>
