<svg width="50" height="50" viewBox="0 0 50 50" fill="none" xmlns="http://www.w3.org/2000/svg">
<path d="M25 5.84375C35.5796 5.84375 44.1562 14.4204 44.1562 25C44.1562 35.5796 35.5796 44.1562 25 44.1562C14.4204 44.1562 5.84375 35.5796 5.84375 25C5.84375 14.4204 14.4204 5.84375 25 5.84375ZM25 9C16.1636 9 9 16.1636 9 25C9 33.8364 16.1636 41 25 41C33.8364 41 41 33.8364 41 25C41 16.1636 33.8364 9 25 9Z" fill="#1D1D1D" stroke="white" stroke-width="0.75"/>
<path d="M27.7266 18.7343C28.1449 18.7343 28.5459 18.9005 28.8418 19.1962L33.2617 23.6161C33.67 24.0241 33.9462 24.5057 33.9463 25.0116C33.9463 25.5191 33.6719 25.9901 33.2617 26.4003L28.8418 30.8192C28.545 31.1067 28.1477 31.2671 27.7344 31.2645C27.3193 31.2619 26.9214 31.0952 26.6279 30.8016C26.3346 30.5082 26.1686 30.1111 26.166 29.6962C26.1634 29.2826 26.3235 28.8846 26.6113 28.5878L27.9688 27.2303L28.6084 26.5897H17.6074C17.1889 26.5897 16.7872 26.4238 16.4912 26.1278C16.1953 25.8319 16.0293 25.4301 16.0293 25.0116C16.0293 24.5931 16.1953 24.1913 16.4912 23.8954C16.7872 23.5995 17.1889 23.4335 17.6074 23.4335H28.6152L26.6104 21.4286C26.3144 21.1326 26.1485 20.7309 26.1484 20.3124C26.1485 19.8939 26.3144 19.4921 26.6104 19.1962C26.9063 18.9003 27.3081 18.7343 27.7266 18.7343Z" fill="#1D1D1D" stroke="white" stroke-width="0.75"/>
</svg>
