<svg width="24" height="24" viewBox="0 0 24 24" fill="none" xmlns="http://www.w3.org/2000/svg">
<path d="M18.298 23.2518C17.7625 23.2515 17.2443 23.0625 16.8343 22.7181L11.7857 18.4726L6.7367 22.7183C6.32681 23.0626 5.80874 23.2515 5.27345 23.2518C4.93951 23.2518 4.61683 23.1803 4.31364 23.0393C3.92173 22.8558 3.59012 22.5645 3.35752 22.1996C3.12491 21.8347 3.00092 21.4111 3.00001 20.9783V5.00464C2.99863 4.47856 3.10157 3.95743 3.30288 3.47139C3.50419 2.98535 3.79987 2.54405 4.17283 2.17301C4.54378 1.79999 4.98504 1.50425 5.47105 1.3029C5.95707 1.10156 6.47819 0.998609 7.00426 1.00001H16.5668C17.0928 0.998591 17.614 1.10151 18.1 1.30283C18.5861 1.50414 19.0274 1.79984 19.3984 2.17283C19.7714 2.54382 20.0671 2.98511 20.2684 3.47116C20.4697 3.95721 20.5727 4.47836 20.5712 5.00445V20.9781C20.5712 21.8586 20.0556 22.6677 19.2574 23.0391C18.9571 23.1797 18.6295 23.2523 18.298 23.2518ZM11.7857 16.7425C11.9573 16.7425 12.129 16.8012 12.2685 16.9184L17.7999 21.5701C17.9134 21.6636 18.0508 21.7235 18.1965 21.7428C18.3423 21.7621 18.4905 21.7402 18.6244 21.6794C18.7578 21.617 18.8706 21.5179 18.9498 21.3937C19.0289 21.2695 19.0711 21.1254 19.0714 20.9781V5.00464C19.0714 4.33564 18.811 3.70676 18.3379 3.2337C17.8648 2.76064 17.236 2.50001 16.567 2.50001H7.00445C6.33564 2.50001 5.70676 2.76064 5.2337 3.2337C4.76064 3.70676 4.50001 4.33564 4.50001 5.00464V20.9783C4.50001 21.278 4.67533 21.553 4.94683 21.6794C5.08064 21.7403 5.22886 21.7623 5.3746 21.743C5.52033 21.7237 5.65771 21.6639 5.77108 21.5703L11.3027 16.9184C11.438 16.8047 11.609 16.7424 11.7857 16.7425Z" fill="black"/>
</svg>
