<svg width="25" height="24" viewBox="0 0 25 24" fill="none" xmlns="http://www.w3.org/2000/svg">
<path d="M18.798 23.2518C18.2625 23.2515 17.7443 23.0625 17.3343 22.7181L12.2857 18.4726L7.2367 22.7183C6.82681 23.0626 6.30874 23.2515 5.77345 23.2518C5.43951 23.2518 5.11683 23.1803 4.81364 23.0393C4.42173 22.8558 4.09012 22.5645 3.85752 22.1996C3.62491 21.8347 3.50092 21.4111 3.50001 20.9783V5.00464C3.49863 4.47856 3.60157 3.95743 3.80288 3.47139C4.00419 2.98535 4.29987 2.54405 4.67283 2.17301C5.04378 1.79999 5.48504 1.50425 5.97105 1.3029C6.45707 1.10156 6.97819 0.998609 7.50426 1.00001H17.0668C17.5928 0.998591 18.114 1.10151 18.6 1.30283C19.0861 1.50414 19.5274 1.79984 19.8984 2.17283C20.2714 2.54382 20.5671 2.98511 20.7684 3.47116C20.9697 3.95721 21.0727 4.47836 21.0712 5.00445V20.9781C21.0712 21.8586 20.5556 22.6677 19.7574 23.0391C19.4571 23.1797 19.1295 23.2523 18.798 23.2518ZM12.2857 16.7425C12.4573 16.7425 12.629 16.8012 12.7685 16.9184L18.2999 21.5701C18.4134 21.6636 18.5508 21.7235 18.6965 21.7428C18.8423 21.7621 18.9905 21.7402 19.1244 21.6794C19.2578 21.617 19.3706 21.5179 19.4498 21.3937C19.5289 21.2695 19.5711 21.1254 19.5714 20.9781V5.00464C19.5714 4.33564 19.311 3.70676 18.8379 3.2337C18.3648 2.76064 17.736 2.50001 17.067 2.50001H7.50445C6.83564 2.50001 6.20676 2.76064 5.7337 3.2337C5.26064 3.70676 5.00001 4.33564 5.00001 5.00464V20.9783C5.00001 21.278 5.17533 21.553 5.44683 21.6794C5.58064 21.7403 5.72886 21.7623 5.8746 21.743C6.02033 21.7237 6.15771 21.6639 6.27108 21.5703L11.8027 16.9184C11.938 16.8047 12.109 16.7424 12.2857 16.7425Z" fill="white"/>
</svg>
