<svg width="29" height="30" viewBox="0 0 29 30" fill="none" xmlns="http://www.w3.org/2000/svg">
<g clip-path="url(#clip0_103_1114)">
<path fill-rule="evenodd" clip-rule="evenodd" d="M13.0901 15L8.22874 19.8614C7.99431 20.0958 7.86262 20.4137 7.86262 20.7452C7.86262 21.0768 7.99431 21.3947 8.22874 21.6291C8.46316 21.8635 8.7811 21.9952 9.11262 21.9952C9.44414 21.9952 9.76208 21.8635 9.9965 21.6291L14.8579 16.7678L19.7192 21.6291C19.9536 21.8635 20.2716 21.9952 20.6031 21.9952C20.9346 21.9952 21.2526 21.8635 21.487 21.6291C21.7214 21.3947 21.8531 21.0768 21.8531 20.7452C21.8531 20.4137 21.7214 20.0958 21.487 19.8614L16.6256 15L21.487 10.1386C21.7214 9.90422 21.8531 9.58628 21.8531 9.25476C21.8531 8.92324 21.7214 8.60529 21.487 8.37087C21.2526 8.13645 20.9346 8.00476 20.6031 8.00476C20.2716 8.00476 19.9536 8.13645 19.7192 8.37087L14.8579 13.2322L9.9965 8.37087C9.76208 8.13645 9.44414 8.00476 9.11262 8.00476C8.7811 8.00476 8.46316 8.13645 8.22874 8.37087C7.99431 8.60529 7.86262 8.92324 7.86262 9.25476C7.86262 9.58628 7.99431 9.90422 8.22874 10.1386L13.0901 15Z" fill="#303435"/>
</g>
<defs>
<clipPath id="clip0_103_1114">
<rect width="20" height="20" fill="white" transform="translate(0.71582 15) rotate(-45)"/>
</clipPath>
</defs>
</svg>
