<svg width="60" height="60" viewBox="0 0 60 60" fill="none" xmlns="http://www.w3.org/2000/svg">
<path d="M28.5228 10.4951C24.18 10.9 20.7073 12.2522 17.5143 14.7884C11.338 19.6777 8.73544 27.6532 10.8486 35.2163C11.4468 37.3859 12.4878 39.5173 13.8396 41.3889L14.3757 42.1223L14.1814 42.5043C13.5755 43.7113 13.8318 45.1857 14.8107 46.1559C16.6053 47.913 19.6274 47.0879 20.2567 44.6662C20.886 42.2293 18.4854 40.0673 16.0537 40.8771C15.44 41.0833 15.5643 41.1521 14.935 40.2736C13.3502 38.0429 12.3014 35.4073 11.843 32.5195C11.6488 31.3049 11.6565 28.6311 11.8508 27.4011C13.1093 19.4409 19.2545 13.4133 27.3964 12.1452C28.585 11.9619 31.4129 11.9619 32.5627 12.1452C34.132 12.4049 33.9999 12.4049 34.3107 12.0994C34.6991 11.7174 34.6447 11.1674 34.1941 10.9382C33.5416 10.602 30.1465 10.3347 28.5228 10.4951ZM18.0037 42.4966C18.4776 42.7793 18.8117 43.3599 18.8117 43.9023C18.8117 44.9795 17.7163 45.7892 16.6364 45.5066C16.1625 45.3843 15.5954 44.8267 15.4711 44.3607C15.1681 43.2529 16.0537 42.1605 17.1958 42.2369C17.5065 42.2598 17.7396 42.3362 18.0037 42.4966Z" fill="#BDAEA0"/>
<path d="M36.767 11.9234C36.332 12.1602 36.2543 12.6797 36.5961 13.0541C36.7826 13.2603 36.8758 13.3062 37.1477 13.3062C37.4196 13.3062 37.5128 13.2603 37.7071 13.0464C37.9091 12.8249 37.9401 12.7485 37.9013 12.4735C37.8236 11.9234 37.272 11.6484 36.767 11.9234Z" fill="#BDAEA0"/>
<path d="M42.0478 13.0007C40.5484 13.4209 39.5384 14.8113 39.6549 16.301C39.8259 18.4247 41.9157 19.7998 43.9512 19.1199C44.5727 18.906 44.4328 18.8143 45.1864 19.9144C46.7402 22.1833 47.7191 24.6814 48.1619 27.4774C48.3484 28.7074 48.3484 31.3124 48.1619 32.5195C47.2219 38.4935 43.5782 43.4591 38.1633 46.1253C34.6984 47.8365 30.7596 48.4018 26.8518 47.7525C26.1992 47.6455 26.1137 47.6455 25.8962 47.7525C25.601 47.9053 25.5 48.0886 25.5 48.4706C25.5 48.715 25.5466 48.8144 25.7253 48.9671C25.8496 49.0665 26.0749 49.1734 26.2147 49.204C28.693 49.6547 31.2412 49.6547 33.6962 49.2116C38.3187 48.3713 42.5761 45.8426 45.5593 42.1833C51.0908 35.3766 51.3394 25.7433 46.1575 18.6004L45.6215 17.8594L45.7768 17.6073C45.8545 17.4698 45.9866 17.1337 46.0565 16.8586C46.4605 15.3155 45.5749 13.673 44.0444 13.1C43.5083 12.8938 42.5994 12.8556 42.0478 13.0007ZM43.4073 14.4981C44.0211 14.6661 44.6115 15.4453 44.6115 16.0947C44.6115 17.0267 43.7336 17.8365 42.7936 17.7601C41.9312 17.6913 41.2787 17.0496 41.2087 16.2016C41.1777 15.8655 41.2165 15.7127 41.3796 15.3766C41.7603 14.6126 42.5528 14.2689 43.4073 14.4981Z" fill="#BDAEA0"/>
<path d="M27.1523 16.2478C26.8494 16.4235 26.8261 16.5228 26.795 17.5312L26.7794 18.3181L26.0569 18.5549C25.6607 18.6848 25.0004 18.9521 24.5964 19.1431L23.8661 19.5022L23.3067 18.9445C22.7008 18.341 22.4288 18.1882 22.1026 18.2722C21.7996 18.341 18.2259 21.8475 18.1171 22.176C17.9928 22.535 18.156 22.833 18.793 23.4518L19.3291 23.9712L18.9639 24.7123C18.7619 25.1171 18.49 25.7589 18.3579 26.1408L18.1249 26.8284L17.1926 26.8666C15.7942 26.9201 15.9107 26.6603 15.8797 29.8612C15.8641 31.6871 15.8874 32.535 15.9496 32.6878C16.0972 33.0469 16.3147 33.1233 17.2625 33.1462L18.1326 33.1691L18.3812 33.9025C18.5211 34.3074 18.793 34.9491 18.9872 35.3311L19.3368 36.0186L18.7697 36.5763C18.1482 37.1798 17.9928 37.4472 18.0783 37.768C18.1482 38.066 21.7141 41.5801 22.0482 41.6871C22.4133 41.8093 22.7163 41.6489 23.3533 41.0148L23.8894 40.48L24.5187 40.7932C24.8683 40.9613 25.5131 41.2287 25.9637 41.3891L26.7794 41.6718L26.795 42.4586C26.8261 43.4747 26.8494 43.574 27.1523 43.7497C27.3854 43.8949 27.5563 43.9025 30.0035 43.9025C33.3597 43.9025 33.1732 43.9865 33.2121 42.4586L33.2276 41.6718L34.0511 41.3891C34.5017 41.2287 35.1543 40.9613 35.4962 40.7932L36.1254 40.48L36.6537 41.0148C37.2908 41.6489 37.5938 41.8093 37.9589 41.6871C38.293 41.5801 41.8589 38.066 41.9288 37.768C42.0143 37.4472 41.8589 37.1798 41.2374 36.5763L40.6702 36.0186L41.0198 35.3311C41.2141 34.9491 41.486 34.3074 41.6258 33.9025L41.8744 33.1691L42.7445 33.1462C43.6923 33.1233 43.9099 33.0469 44.0575 32.6878C44.1196 32.535 44.1429 31.6871 44.1274 29.8612C44.0963 26.6603 44.2129 26.9201 42.8145 26.8666L41.8822 26.8284L41.6491 26.1408C41.5171 25.7589 41.2451 25.1171 41.0431 24.7123L40.678 23.9712L41.2141 23.4518C41.8511 22.833 42.0143 22.535 41.89 22.176C41.7812 21.8475 38.2075 18.341 37.9045 18.2722C37.5782 18.1882 37.3063 18.341 36.7003 18.9445L36.141 19.5022L35.4107 19.1431C35.0067 18.9521 34.3464 18.6848 33.9501 18.5549L33.2276 18.3181L33.2121 17.5312C33.181 16.5228 33.1577 16.4235 32.8547 16.2478C32.6217 16.1026 32.4507 16.095 30.0035 16.095C27.5563 16.095 27.3854 16.1026 27.1523 16.2478ZM31.6505 18.425C31.6738 19.166 31.6894 19.2348 31.8758 19.4181C32.0079 19.5556 32.2798 19.6702 32.676 19.7696C33.6472 20.014 35.0456 20.6022 35.7137 21.053C35.8458 21.1446 36.0711 21.2134 36.2497 21.2134C36.5139 21.2134 36.6071 21.1523 37.1043 20.6786C37.4151 20.3807 37.7025 20.1439 37.7414 20.1439C37.7802 20.1439 38.3163 20.6404 38.93 21.244L40.0565 22.3517L39.4971 22.9246C38.7746 23.6733 38.7669 23.8184 39.3262 24.781C39.7613 25.5297 40.0798 26.286 40.375 27.302C40.6625 28.2799 40.7557 28.3486 41.7734 28.3792L42.5892 28.4097V30.0064V31.603H41.8511C40.7013 31.603 40.6936 31.6107 40.2585 33.0545C40.0254 33.8337 39.6991 34.5824 39.2796 35.2852C38.7824 36.1408 38.7979 36.2936 39.4816 36.9812C39.7846 37.2868 40.0254 37.5694 40.0254 37.6076C40.0254 37.6458 39.5204 38.1729 38.9067 38.7764L37.7802 39.8842L37.2053 39.3418C36.5216 38.7077 36.3274 38.6389 35.8302 38.891C35.636 38.9903 35.1699 39.2272 34.7814 39.4258C34.4007 39.6244 33.7326 39.8842 33.3053 40.014C31.9225 40.4342 31.8603 40.4571 31.7438 40.7398C31.6816 40.8926 31.635 41.2669 31.635 41.6871V42.3746H30.0035H28.3721V41.6871C28.3721 41.2669 28.3254 40.8926 28.2633 40.7398C28.1468 40.4571 28.1235 40.4495 26.6784 40.0064C26.2356 39.8689 25.5753 39.6015 25.2023 39.4105C24.8294 39.2272 24.3711 38.9903 24.1769 38.891C23.6796 38.6389 23.4854 38.7077 22.8018 39.3418L22.2269 39.8842L21.1004 38.7764C20.4866 38.1729 19.9816 37.6458 19.9816 37.6076C19.9816 37.5694 20.2225 37.2868 20.5255 36.9812C21.2091 36.2936 21.2247 36.1408 20.7275 35.2852C20.3079 34.5824 19.9816 33.8337 19.7486 33.0545C19.3135 31.6107 19.3057 31.603 18.156 31.603H17.4179V30.0064V28.4097L18.2336 28.3792C19.2514 28.3486 19.3446 28.2799 19.632 27.302C19.9273 26.286 20.2458 25.5297 20.6808 24.781C21.2402 23.8261 21.2247 23.6886 20.5099 22.9323L19.9583 22.3517L21.0771 21.244C21.6908 20.6404 22.2269 20.1439 22.2657 20.1439C22.3045 20.1439 22.592 20.3807 22.9028 20.6786C23.4 21.1523 23.4932 21.2134 23.7573 21.2134C23.936 21.2134 24.1613 21.1446 24.2934 21.053C24.9615 20.6099 26.5464 19.9605 27.6418 19.6855C27.8127 19.6473 28.038 19.5251 28.1468 19.4105C28.3177 19.2348 28.3332 19.1355 28.3565 18.4174L28.3876 17.6229H30.0035H31.6195L31.6505 18.425Z" fill="#BDAEA0"/>
<path d="M29.1543 23.734C27.7637 23.925 26.5207 24.5437 25.4874 25.5598C24.7183 26.3161 24.2522 27.0418 23.9336 27.9738C22.442 32.3436 26.0701 36.7821 30.7159 36.2626C34.2119 35.873 36.7679 32.7332 36.3717 29.3184C36.0687 26.7133 34.1575 24.5285 31.586 23.8868C30.9101 23.711 29.8147 23.6499 29.1543 23.734ZM31.1665 25.3535C31.889 25.514 32.8057 26.0334 33.3884 26.5988C34.375 27.5537 34.8334 28.6385 34.8334 29.9983C34.8334 31.3352 34.375 32.4353 33.4272 33.3673C32.4794 34.2993 31.3607 34.75 30.0011 34.75C28.6183 34.75 27.5151 34.2993 26.544 33.3291C25.9458 32.7332 25.4408 31.847 25.2543 31.0678C25.13 30.5254 25.13 29.4712 25.2543 28.9288C25.4408 28.1496 25.9458 27.2634 26.544 26.6675C27.7792 25.4376 29.4496 24.9639 31.1665 25.3535Z" fill="#BDAEA0"/>
<path d="M22.5525 46.7667C22.2573 46.8965 22.0397 47.3091 22.1174 47.607C22.265 48.1799 22.972 48.3709 23.3993 47.9584C23.8033 47.5535 23.6557 46.9271 23.1041 46.7208C22.871 46.6368 22.8632 46.6368 22.5525 46.7667Z" fill="#BDAEA0"/>
</svg>
