<svg width="70" height="70" viewBox="0 0 70 70" fill="none" xmlns="http://www.w3.org/2000/svg">
<path d="M49.1901 43.3077C48.9257 43.309 48.6694 43.2163 48.467 43.0461L40.0516 36.2308C39.9193 36.1211 39.8127 35.9835 39.7396 35.828C39.6665 35.6724 39.6286 35.5026 39.6285 35.3308V16.4846C39.6285 16.1786 39.7501 15.8851 39.9665 15.6687C40.1829 15.4523 40.4764 15.3307 40.7824 15.3307C41.0884 15.3307 41.3819 15.4523 41.5983 15.6687C41.8147 15.8851 41.9362 16.1786 41.9362 16.4846V34.7846L49.9208 41.2538C50.1108 41.4058 50.2478 41.6139 50.3124 41.8484C50.3771 42.0828 50.3659 42.3318 50.2806 42.5595C50.1953 42.7873 50.0402 42.9823 49.8374 43.1167C49.6347 43.251 49.3946 43.3179 49.1516 43.3077H49.1901ZM29.1978 47.9308H16.3285C16.0225 47.9308 15.729 47.8092 15.5126 47.5928C15.2963 47.3764 15.1747 47.0829 15.1747 46.7769C15.1747 46.4709 15.2963 46.1774 15.5126 45.961C15.729 45.7446 16.0225 45.6231 16.3285 45.6231H29.1978C29.5038 45.6231 29.7973 45.7446 30.0137 45.961C30.23 46.1774 30.3516 46.4709 30.3516 46.7769C30.3516 47.0829 30.23 47.3764 30.0137 47.5928C29.7973 47.8092 29.5038 47.9308 29.1978 47.9308ZM23.9747 35.5461H2.32084C2.01482 35.5461 1.72133 35.4246 1.50495 35.2082C1.28856 34.9918 1.16699 34.6983 1.16699 34.3923C1.16699 34.0863 1.28856 33.7928 1.50495 33.5764C1.72133 33.36 2.01482 33.2384 2.32084 33.2384H23.9747C24.2807 33.2384 24.5742 33.36 24.7906 33.5764C25.007 33.7928 25.1285 34.0863 25.1285 34.3923C25.1285 34.6983 25.007 34.9918 24.7906 35.2082C24.5742 35.4246 24.2807 35.5461 23.9747 35.5461ZM15.7362 23.0231H8.04392C7.7379 23.0231 7.44441 22.9015 7.22802 22.6851C7.01163 22.4687 6.89007 22.1752 6.89007 21.8692C6.89007 21.5632 7.01163 21.2697 7.22802 21.0533C7.44441 20.8369 7.7379 20.7154 8.04392 20.7154H15.7362C16.0422 20.7154 16.3357 20.8369 16.5521 21.0533C16.7685 21.2697 16.8901 21.5632 16.8901 21.8692C16.8901 22.1752 16.7685 22.4687 16.5521 22.6851C16.3357 22.9015 16.0422 23.0231 15.7362 23.0231ZM40.7824 57.2538C40.4764 57.2538 40.1829 57.1323 39.9665 56.9159C39.7501 56.6995 39.6285 56.406 39.6285 56.1V55.8692C39.6285 55.5632 39.7501 55.2697 39.9665 55.0533C40.1829 54.8369 40.4764 54.7154 40.7824 54.7154C41.0884 54.7154 41.3819 54.8369 41.5983 55.0533C41.8147 55.2697 41.9362 55.5632 41.9362 55.8692V56.1C41.9362 56.406 41.8147 56.6995 41.5983 56.9159C41.3819 57.1323 41.0884 57.2538 40.7824 57.2538ZM62.2747 36.4846H62.0439C61.7379 36.4846 61.4444 36.363 61.228 36.1466C61.0116 35.9303 60.8901 35.6368 60.8901 35.3308C60.8901 35.0247 61.0116 34.7312 61.228 34.5149C61.4444 34.2985 61.7379 34.1769 62.0439 34.1769H62.2747C62.5807 34.1769 62.8742 34.2985 63.0906 34.5149C63.307 34.7312 63.4285 35.0247 63.4285 35.3308C63.4285 35.6368 63.307 35.9303 63.0906 36.1466C62.8742 36.363 62.5807 36.4846 62.2747 36.4846Z" fill="#264796"/>
<path d="M13.8751 40.2231C13.5973 40.2237 13.3287 40.1235 13.1193 39.9409C12.9099 39.7584 12.7739 39.5061 12.7366 39.2308C12.5592 37.9385 12.4744 36.6352 12.4828 35.3308C12.4828 35.0248 12.6043 34.7313 12.8207 34.5149C13.0371 34.2985 13.3306 34.1769 13.6366 34.1769C13.9426 34.1769 14.2361 34.2985 14.4525 34.5149C14.6689 34.7313 14.7905 35.0248 14.7905 35.3308C14.7906 36.5273 14.8728 37.7224 15.0366 38.9077C15.057 39.06 15.0468 39.2148 15.0066 39.3631C14.9664 39.5114 14.8969 39.6502 14.8023 39.7713C14.7078 39.8923 14.5899 39.9933 14.4558 40.0683C14.3217 40.1432 14.1739 40.1906 14.0212 40.2077L13.8751 40.2231ZM40.7828 63.6462C36.9771 63.6596 33.2085 62.8994 29.7056 61.4118C26.2028 59.9241 23.0388 57.7401 20.4058 54.9923C20.2303 54.7666 20.1448 54.4837 20.1659 54.1986C20.187 53.9134 20.3133 53.6462 20.5203 53.4489C20.7272 53.2515 21 53.1381 21.2859 53.1304C21.5717 53.1228 21.8502 53.2216 22.0674 53.4077C24.486 55.9298 27.3924 57.9336 30.6098 59.297C33.8272 60.6604 37.2884 61.355 40.7828 61.3385C45.4182 61.3372 49.9691 60.0969 53.9644 57.7462C57.9596 55.3955 61.2539 52.0197 63.5063 47.9682C65.7588 43.9168 66.8874 39.3369 66.7755 34.7028C66.6636 30.0687 65.3151 25.5486 62.8697 21.6107C60.4243 17.6727 56.9708 14.4598 52.8668 12.3047C48.7627 10.1496 44.1573 9.13057 39.5271 9.35306C34.897 9.57554 30.4105 11.0315 26.532 13.5702C22.6534 16.1088 19.5239 19.638 17.4674 23.7923C17.3307 24.0667 17.0906 24.2756 16.7999 24.3729C16.5092 24.4703 16.1918 24.4482 15.9174 24.3115C15.643 24.1749 15.4341 23.9348 15.3368 23.6441C15.2394 23.3534 15.2615 23.0359 15.3982 22.7615C17.6373 18.2365 21.0453 14.3923 25.2693 11.6268C29.4932 8.86139 34.3796 7.27527 39.4225 7.03271C44.4654 6.79015 49.4815 7.89997 53.9514 10.2472C58.4213 12.5945 62.1825 16.0939 64.8456 20.3832C67.5087 24.6724 68.9769 29.5955 69.0982 34.6428C69.2194 39.69 67.9894 44.678 65.5353 49.0902C63.0813 53.5023 59.4925 57.1783 55.1405 59.7376C50.7885 62.2968 45.8315 63.6463 40.7828 63.6462ZM9.82123 47.9308H7.72123C7.41521 47.9308 7.12172 47.8092 6.90534 47.5928C6.68895 47.3764 6.56738 47.083 6.56738 46.7769C6.56738 46.4709 6.68895 46.1774 6.90534 45.961C7.12172 45.7447 7.41521 45.6231 7.72123 45.6231H9.82123C10.1272 45.6231 10.4207 45.7447 10.6371 45.961C10.8535 46.1774 10.9751 46.4709 10.9751 46.7769C10.9751 47.083 10.8535 47.3764 10.6371 47.5928C10.4207 47.8092 10.1272 47.9308 9.82123 47.9308Z" fill="#264796"/>
<path d="M14.9283 27.7769C14.734 27.7747 14.5434 27.7237 14.3739 27.6287C14.2044 27.5337 14.0614 27.3977 13.9581 27.2331C13.8548 27.0686 13.7944 26.8808 13.7825 26.6868C13.7705 26.4929 13.8074 26.2991 13.8898 26.1231L15.4898 22.7769C15.555 22.6401 15.6464 22.5173 15.759 22.4158C15.8716 22.3143 16.0031 22.2359 16.1459 22.1852C16.2888 22.1345 16.4402 22.1124 16.5916 22.1202C16.743 22.1281 16.8914 22.1656 17.0283 22.2308C17.1651 22.2959 17.2878 22.3874 17.3894 22.5C17.4909 22.6126 17.5693 22.744 17.62 22.8869C17.6707 23.0298 17.6928 23.1812 17.6849 23.3326C17.6771 23.484 17.6396 23.6324 17.5744 23.7692L15.9744 27.1231C15.8791 27.3193 15.7303 27.4847 15.5453 27.6004C15.3603 27.716 15.1464 27.7772 14.9283 27.7769Z" fill="#264796"/>
</svg>
