<svg width="70" height="70" viewBox="0 0 70 70" fill="none" xmlns="http://www.w3.org/2000/svg">
<g clip-path="url(#clip0_441_815)">
<path d="M69.5375 43.1063C69.4994 43.0647 69.4591 43.0251 69.4168 42.9878L69.7804 39.1312V39.1308L69.812 38.7938C69.8782 38.0937 69.6764 37.4191 69.2449 36.8957L66.8459 33.9739C66.8443 33.9717 66.8437 33.9701 66.8421 33.9684L59.0924 24.5307C58.6091 23.9405 57.8802 23.602 57.0929 23.602H50.5069L50.8952 19.4865C51.0505 17.8384 50.5475 16.2848 49.4793 15.111C48.4166 13.943 46.9276 13.3 45.2864 13.3H15.6789C12.3714 13.3 9.42676 15.989 9.11531 19.2937L6.91865 42.5892C6.14168 42.7916 5.53438 43.4689 5.45645 44.2978L5.13119 47.7467C5.0832 48.2562 5.24877 48.7603 5.5851 49.1304C5.92115 49.4996 6.40596 49.7109 6.91496 49.7109H9.08865C8.99144 51.5268 9.57893 53.2267 10.7613 54.5262C12.0019 55.889 13.7413 56.6398 15.6585 56.6398C19.5032 56.6398 22.9276 53.5418 23.3453 49.7109H26.4738C27.0404 49.7109 27.4992 49.2522 27.4992 48.6855C27.4992 48.4136 27.3912 48.1528 27.1989 47.9605C27.0066 47.7682 26.7458 47.6601 26.4738 47.6601H7.19852L7.48973 44.5766H67.9241L67.6331 47.6601H31.261C30.9891 47.6601 30.7283 47.7682 30.536 47.9605C30.3437 48.1528 30.2356 48.4136 30.2356 48.6855C30.2356 49.2522 30.6945 49.7109 31.261 49.7109H51.4127C51.3149 51.5268 51.9024 53.2267 53.0853 54.5262C54.3259 55.889 56.0648 56.6398 57.9826 56.6398C61.8274 56.6398 65.2512 53.5418 65.6693 49.7109H67.7234C68.7194 49.7109 69.5728 48.9329 69.6668 47.9395L69.9919 44.49C70.0401 43.981 69.8745 43.4764 69.5375 43.1063ZM15.6585 54.5891C14.3255 54.5891 13.125 54.0764 12.278 53.1454C11.4471 52.2328 11.047 51.0167 11.1437 49.7111H12.8916C12.8868 50.5024 13.1634 51.2422 13.6879 51.8179C14.2748 52.4624 15.0935 52.8176 15.9929 52.8176C17.7611 52.8176 19.2801 51.4611 19.4984 49.7109H21.2796C20.8689 52.4267 18.41 54.5891 15.6585 54.5891ZM17.4059 49.7109C17.2104 50.307 16.6225 50.7668 15.9929 50.7668C15.6778 50.7668 15.3979 50.6499 15.2046 50.4379C15.03 50.246 14.9393 49.9913 14.9429 49.7109H17.4059ZM57.2664 49.7109H59.7301C59.5346 50.307 58.9467 50.7668 58.317 50.7668C58.0018 50.7668 57.722 50.6499 57.5287 50.4379C57.3541 50.246 57.2633 49.9908 57.2664 49.7109ZM57.9827 54.5891C56.6497 54.5891 55.449 54.0764 54.6021 53.1454C53.7711 52.2328 53.371 51.0167 53.4677 49.7111H55.2156C55.2109 50.5024 55.4876 51.2422 56.0119 51.8179C56.5988 52.4624 57.4176 52.8176 58.317 52.8176C60.0847 52.8176 61.6041 51.4611 61.8224 49.7109H63.6031C63.1929 52.4267 60.7337 54.5891 57.9827 54.5891ZM66.2601 42.2032C66.0682 41.9922 65.9784 41.7033 66.0085 41.3893C66.0763 40.6688 66.7401 40.0605 67.4584 40.0605H67.633L67.4007 42.5253H67.0269C66.7204 42.5242 66.4482 42.4099 66.2601 42.2032ZM56.5653 32.9143L57.2478 25.6741C57.3524 25.7002 57.4421 25.7526 57.5068 25.8311L63.8807 33.5941H57.1762C56.9353 33.5941 56.7912 33.4912 56.7127 33.4041C56.5994 33.2802 56.5473 33.106 56.5653 32.9143ZM32.2185 15.3508L30.9224 23.2362L28.9341 21.8609C28.7759 21.7515 28.5902 21.6887 28.3982 21.6799C28.2061 21.671 28.0154 21.7163 27.8478 21.8107L25.6335 23.0583L26.9009 15.3508H32.2185ZM11.1571 19.4865C11.3717 17.206 13.4006 15.3513 15.6789 15.3513H24.8225L23.3196 24.4938C23.2444 24.9532 23.4307 25.4012 23.8062 25.664C24.0055 25.8039 24.2431 25.8788 24.4866 25.8787C24.6926 25.8787 24.9009 25.8253 25.0923 25.7173L28.296 23.9128L30.8338 25.6672V25.6677C31.1715 25.9011 31.6035 25.9433 31.9885 25.7793C32.3825 25.6122 32.6704 25.2469 32.7399 24.8266L34.2971 15.3508H45.2866C46.3434 15.3508 47.2935 15.7561 47.9631 16.4916C48.6377 17.2328 48.9538 18.2283 48.8534 19.2943L48.0978 27.3109C48.0449 27.8745 48.4587 28.3749 49.0221 28.4276C49.1562 28.4404 49.2915 28.4265 49.4202 28.387C49.5489 28.3474 49.6686 28.2828 49.7723 28.197C49.8761 28.1111 49.9619 28.0057 50.0249 27.8867C50.0879 27.7676 50.1268 27.6374 50.1394 27.5033L50.3141 25.6528H55.1901L54.5236 32.7221C54.451 33.4954 54.6897 34.2281 55.196 34.7847C55.7011 35.3395 56.404 35.6449 57.1762 35.6449H65.5647L67.5065 38.0097H67.4589C65.6693 38.0097 64.1355 39.4096 63.9667 41.197C63.923 41.6601 63.9763 42.1098 64.1185 42.5258H48.723L49.742 31.7144C49.7547 31.5803 49.7408 31.4451 49.7012 31.3164C49.6616 31.1877 49.597 31.0681 49.5111 30.9644C49.4253 30.8607 49.3198 30.7749 49.2008 30.712C49.0818 30.6491 48.9515 30.6102 48.8175 30.5976C48.2557 30.5442 47.7538 30.958 47.7004 31.522L46.6632 42.5258H8.98447L11.1571 19.4865ZM8.88357 15.2797C8.88357 14.7137 8.4242 14.2543 7.85818 14.2543H1.02539C0.75344 14.2543 0.492628 14.3623 0.30033 14.5546C0.108032 14.7469 0 15.0077 0 15.2797C0 15.8464 0.458691 16.3051 1.02539 16.3051H7.85818C7.99284 16.3051 8.12618 16.2785 8.25058 16.227C8.37499 16.1755 8.48803 16.1 8.58324 16.0047C8.67846 15.9095 8.75399 15.7965 8.80552 15.6721C8.85705 15.5477 8.88357 15.4143 8.88357 15.2797ZM7.5857 19.4619C7.5857 19.19 7.47767 18.9291 7.28537 18.7368C7.09307 18.5445 6.83226 18.4365 6.56031 18.4365H3.14398C2.87203 18.4365 2.61122 18.5445 2.41892 18.7368C2.22663 18.9291 2.11859 19.19 2.11859 19.4619C2.11859 20.0286 2.57742 20.4873 3.14398 20.4873H6.56031C7.12701 20.4873 7.5857 20.0286 7.5857 19.4619ZM6.6474 23.6441C6.6474 23.0781 6.18803 22.6187 5.62201 22.6187H4.68371C4.41176 22.6187 4.15095 22.7268 3.95865 22.9191C3.76635 23.1114 3.65832 23.3722 3.65832 23.6441C3.65832 23.9161 3.76635 24.1769 3.95865 24.3692C4.15095 24.5615 4.41176 24.6695 4.68371 24.6695H5.62201C6.18803 24.6695 6.6474 24.2101 6.6474 23.6441Z" fill="#264796"/>
<path d="M19.4082 33.4906L17.35 33.4965L17.6032 31.1337L21.1333 31.1231C21.3331 31.1225 21.4997 31.0291 21.6331 30.8423C21.7667 30.6552 21.8478 30.4266 21.8768 30.1565C21.9034 29.9044 21.873 29.686 21.7838 29.4995C21.6947 29.3136 21.5456 29.2208 21.3367 29.2213L16.6076 29.2358C16.3529 29.2368 16.1287 29.2956 15.9348 29.4126C15.7404 29.5295 15.632 29.6956 15.609 29.9097L14.6579 38.7885C14.6349 39.0026 14.722 39.1682 14.9185 39.2834C15.1151 39.3999 15.3586 39.457 15.6491 39.4565C15.9402 39.4555 16.196 39.3967 16.4175 39.2793C16.6387 39.1623 16.761 38.9967 16.7839 38.7821L17.1706 35.1745L19.2283 35.168C19.4372 35.1675 19.6053 35.0833 19.7325 34.915C19.8596 34.7472 19.9344 34.5561 19.9574 34.3413C19.9824 34.1085 19.9466 33.9082 19.8516 33.7406C19.7559 33.5733 19.6079 33.4901 19.4082 33.4906ZM26.256 29.8494C26.2079 29.6166 26.0616 29.4376 25.8159 29.3126C25.5708 29.1877 25.2797 29.1258 24.9438 29.1267C24.6075 29.1279 24.303 29.1914 24.0305 29.3181C23.7582 29.4451 23.5735 29.625 23.4757 29.8579L20.0272 38.3949C20.0011 38.4697 19.9866 38.5209 19.984 38.5487C19.9578 38.7911 20.0829 39.0004 20.3595 39.1768C20.6356 39.353 20.9325 39.4406 21.2509 39.4394C21.6412 39.4384 21.8874 39.3027 21.9894 39.032L22.6399 37.2829L25.5151 37.2743L25.7919 39.0202C25.8352 39.2909 26.0526 39.4249 26.4435 39.4235C26.7612 39.4229 27.0774 39.3333 27.3919 39.1553C27.7059 38.9776 27.8763 38.767 27.9018 38.5246C27.9051 38.4969 27.9014 38.4456 27.8913 38.3708L26.256 29.8494ZM23.2557 35.6033L24.6516 31.8532L25.2455 35.5975L23.2557 35.6033ZM34.5494 29.3062C34.2359 29.2256 33.9512 29.1711 33.6949 29.1434C33.45 29.1159 33.2038 29.1021 32.9574 29.1022C31.994 29.1054 31.1459 29.3522 30.412 29.8441C29.6782 30.3354 29.2585 31.0751 29.1521 32.063C29.0876 32.6692 29.1795 33.1904 29.4278 33.6279C29.676 34.0653 30.0007 34.4017 30.4024 34.6383C30.7944 34.8693 31.1966 35.0826 31.6077 35.2775C32.01 35.4672 32.3459 35.6787 32.6167 35.9104C32.8869 36.1428 33.0054 36.4124 32.9729 36.7201C32.9398 37.0277 32.7828 37.2583 32.5028 37.4132C32.223 37.5681 31.9063 37.6457 31.5517 37.6466C31.2698 37.6477 31.0081 37.5922 30.7656 37.4799C30.523 37.3677 30.3394 37.2429 30.2133 37.1056C30.0867 36.9689 29.9458 36.8439 29.7899 36.7318C29.6339 36.619 29.488 36.563 29.3513 36.5637C29.1063 36.5646 28.8766 36.6955 28.6624 36.9571C28.4483 37.2183 28.327 37.4799 28.2993 37.7405C28.2491 38.2067 28.5312 38.6255 29.1458 38.9962C29.76 39.3668 30.5076 39.5511 31.3888 39.5485C32.4062 39.5452 33.2575 39.2755 33.9417 38.7378C34.6258 38.2005 35.0194 37.4512 35.1224 36.4898C35.1812 35.9402 35.1267 35.4512 34.9595 35.0228C34.7918 34.5945 34.5617 34.2623 34.2691 34.0257C33.9765 33.7892 33.6526 33.5708 33.297 33.3716C32.9413 33.1724 32.6113 33.0099 32.3069 32.8855C32.0024 32.7606 31.7525 32.6099 31.5581 32.4331C31.3637 32.2569 31.2778 32.0615 31.3007 31.8467C31.3258 31.6139 31.4604 31.4158 31.7049 31.2519C31.9497 31.0883 32.2989 31.0051 32.7533 31.004C33.1806 31.0024 33.5619 31.0901 33.8974 31.2657C34.2327 31.442 34.4544 31.5295 34.5639 31.5295C34.8271 31.5284 35.0477 31.3956 35.2265 31.1295C35.405 30.8641 35.5068 30.6083 35.5331 30.3616C35.5608 30.1025 35.4825 29.8819 35.2976 29.7004C35.1128 29.5183 34.8634 29.3869 34.5494 29.3062ZM42.8561 29.1562L36.9686 29.1737C36.7594 29.1743 36.5906 29.2678 36.4618 29.4536C36.3331 29.6401 36.2547 29.8597 36.2273 30.1133C36.1986 30.3845 36.2306 30.6131 36.3245 30.7984C36.4181 30.9838 36.5649 31.0762 36.7648 31.0756L38.6456 31.0698L37.8275 38.7132C37.8045 38.9294 37.8909 39.0956 38.087 39.2124C38.2836 39.3289 38.5271 39.3866 38.8181 39.3861C39.1087 39.385 39.3645 39.3257 39.5861 39.2077C39.8077 39.0897 39.9301 38.9225 39.9535 38.7067L40.7717 31.0633L42.6527 31.0574C42.8523 31.0569 43.0191 30.9639 43.1525 30.7776C43.286 30.5916 43.3672 30.3632 43.396 30.0913C43.4234 29.8382 43.3923 29.6186 43.3031 29.4334C43.2139 29.2474 43.0649 29.1557 42.856 29.1562H42.8561Z" fill="#264796"/>
</g>
<defs>
<clipPath id="clip0_441_815">
<rect width="70" height="70" fill="white"/>
</clipPath>
</defs>
</svg>
