<svg width="60" height="60" viewBox="0 0 60 60" fill="none" xmlns="http://www.w3.org/2000/svg">
<path d="M33.6289 12.5997C31.1094 12.8993 27.4297 14.1323 27.0664 14.7776C26.8672 15.1579 26.9375 15.5957 27.2422 15.8838C27.5938 16.2411 27.9805 16.2411 28.6836 15.8954C30.0078 15.2385 32.1758 14.6393 33.8398 14.4665L34.6836 14.3743V15.4459C34.6836 16.437 34.707 16.5522 34.9766 16.8057C35.1523 16.9901 35.3984 17.0938 35.6211 17.0938C35.8438 17.0938 36.0898 16.9901 36.2656 16.8057C36.5352 16.5522 36.5586 16.437 36.5586 15.4459V14.3743L37.4141 14.4665C39.1367 14.6393 41.2227 15.2385 42.7109 15.9645C43.6016 16.4139 45.1602 17.4049 45.7344 17.9004L46.1797 18.2807L45.4063 19.0528C44.5273 19.9516 44.4219 20.3434 44.9375 20.8389C45.4414 21.3459 45.8398 21.2422 46.7539 20.3665L47.5508 19.6174L47.9961 20.1475C49.6953 22.1295 51.0195 25.1602 51.3594 27.8797L51.5117 29.0206L50.3516 29.0782C49.3086 29.1243 49.168 29.1588 48.9688 29.4124C48.6641 29.7811 48.6875 30.2997 49.0391 30.6338C49.2969 30.8989 49.4141 30.9219 50.4219 30.9219H51.5117L51.418 31.7516C51.2422 33.4571 50.6328 35.5083 49.8945 36.9717C49.4375 37.8475 48.4297 39.3801 47.9258 39.9448L47.5391 40.3827L46.7539 39.6221C45.8398 38.7579 45.4414 38.6542 44.9375 39.1612C44.4219 39.6567 44.5273 40.0485 45.418 40.9473L46.1797 41.7309L45.4766 42.2956C43.3906 43.9549 40.168 45.2571 37.4727 45.5336L36.5586 45.6258V44.5542C36.5586 43.5631 36.5352 43.4479 36.2656 43.1944C35.8906 42.8141 35.3516 42.8141 34.9766 43.1944C34.707 43.4479 34.6836 43.5631 34.6836 44.5542V45.6489L34.1328 45.5913C32.5273 45.453 30.4531 44.8999 28.9531 44.22C27.9219 43.759 27.6172 43.736 27.2422 44.1163C26.8906 44.4504 26.8555 44.9575 27.1602 45.3147C27.4063 45.6143 29.1992 46.3864 30.5586 46.7782C32.3633 47.2852 33.5469 47.4465 35.6211 47.4465C38.5156 47.4465 40.6484 46.9741 43.2383 45.7756C45.2422 44.8422 46.7891 43.7706 48.2656 42.3186C55.168 35.4967 55.0859 24.3075 48.0898 17.5202C45.5469 15.0426 42.2891 13.4063 38.668 12.7725C37.4141 12.5536 34.7891 12.4614 33.6289 12.5997Z" fill="#BDAEA0"/>
<path d="M18.1055 18.3037C17.918 18.4766 17.8125 18.7186 17.8125 18.9375C17.8125 19.1564 17.918 19.3984 18.1055 19.5713L18.3867 19.8594H23.7891H29.1914L29.4727 19.5713C29.6602 19.3984 29.7656 19.1564 29.7656 18.9375C29.7656 18.7186 29.6602 18.4766 29.4727 18.3037L29.1914 18.0156H23.7891H18.3867L18.1055 18.3037Z" fill="#BDAEA0"/>
<path d="M40.0044 24.3764L37.5083 26.8079L36.8989 26.6235C35.0708 26.0358 33.0434 26.7848 32.2817 28.3289C31.8364 29.2162 31.7661 30.2764 32.0825 31.2098L32.3169 31.8897L31.8598 32.3852C31.3091 32.9729 31.2387 33.503 31.6723 33.8948C32.1059 34.2981 32.6098 34.2289 33.2192 33.6758L33.7466 33.1918L34.3442 33.3877C36.1489 33.9524 38.1528 33.2149 38.9497 31.7053C39.4067 30.8065 39.4887 29.7463 39.1606 28.7899L38.9145 28.0985L41.3755 25.667C43.5552 23.5121 43.8247 23.201 43.8247 22.8784C43.8247 22.6248 43.7192 22.4059 43.5317 22.2215C43.3442 22.0371 43.1216 21.9334 42.8637 21.9334C42.5356 21.9334 42.2192 22.1985 40.0044 24.3764ZM36.5473 28.4787C37.1919 28.7899 37.438 29.2162 37.438 29.9998C37.438 30.7834 37.1919 31.2098 36.5473 31.5209C35.727 31.9358 34.5669 31.6938 34.0512 31.0024C33.8637 30.7604 33.8052 30.4954 33.8052 29.9998C33.8052 29.5043 33.8637 29.2393 34.0512 28.9973C34.3794 28.5594 34.9887 28.2713 35.6216 28.2713C35.9145 28.2713 36.3247 28.3635 36.5473 28.4787Z" fill="#BDAEA0"/>
<path d="M12.4805 23.835C12.293 24.0078 12.1875 24.2498 12.1875 24.4688C12.1875 24.6877 12.293 24.9297 12.4805 25.1025L12.7617 25.3906H20.2031C25.4883 25.3906 27.7266 25.3561 27.9375 25.2639C28.2773 25.1025 28.5352 24.584 28.418 24.2383C28.3711 24.1115 28.2305 23.8926 28.0898 23.7773C27.8555 23.5584 27.6445 23.5469 20.3086 23.5469H12.7617L12.4805 23.835Z" fill="#BDAEA0"/>
<path d="M6.85547 29.3662C6.66797 29.5391 6.5625 29.7811 6.5625 30C6.5625 30.2189 6.66797 30.4609 6.85547 30.6338L7.13672 30.9219H16.875H26.6133L26.8945 30.6338C27.2813 30.265 27.2813 29.735 26.8945 29.3662L26.6133 29.0781H16.875H7.13672L6.85547 29.3662Z" fill="#BDAEA0"/>
<path d="M12.4805 34.8975C12.293 35.0703 12.1875 35.3123 12.1875 35.5312C12.1875 35.7502 12.293 35.9922 12.4805 36.165L12.7617 36.4531H20.2031C25.4883 36.4531 27.7266 36.4186 27.9375 36.3264C28.2773 36.165 28.5352 35.6465 28.418 35.3008C28.3711 35.174 28.2305 34.9551 28.0898 34.8398C27.8555 34.6209 27.6445 34.6094 20.3086 34.6094H12.7617L12.4805 34.8975Z" fill="#BDAEA0"/>
<path d="M18.1055 40.4287C17.918 40.6016 17.8125 40.8436 17.8125 41.0625C17.8125 41.2814 17.918 41.5234 18.1055 41.6963L18.3867 41.9844H23.7891H29.1914L29.4727 41.6963C29.6602 41.5234 29.7656 41.2814 29.7656 41.0625C29.7656 40.8436 29.6602 40.6016 29.4727 40.4287L29.1914 40.1406H23.7891H18.3867L18.1055 40.4287Z" fill="#BDAEA0"/>
</svg>
