<svg width="20" height="20" viewBox="0 0 20 20" fill="none" xmlns="http://www.w3.org/2000/svg">
<g clip-path="url(#clip0_182_435)">
<path d="M10 0C8.02219 0 6.08879 0.58649 4.4443 1.6853C2.79981 2.78412 1.51809 4.3459 0.761209 6.17317C0.00433281 8.00043 -0.193701 10.0111 0.192152 11.9509C0.578004 13.8907 1.53041 15.6725 2.92894 17.0711C4.32746 18.4696 6.10929 19.422 8.0491 19.8079C9.98891 20.1937 11.9996 19.9957 13.8268 19.2388C15.6541 18.4819 17.2159 17.2002 18.3147 15.5557C19.4135 13.9112 20 11.9778 20 10C19.997 7.34875 18.9425 4.80694 17.0678 2.93222C15.1931 1.0575 12.6513 0.00297764 10 0ZM10 19.375C8.1458 19.375 6.33324 18.8252 4.79153 17.795C3.24982 16.7649 2.04821 15.3007 1.33863 13.5877C0.629062 11.8746 0.443406 9.9896 0.805142 8.17103C1.16688 6.35246 2.05976 4.68199 3.37088 3.37087C4.682 2.05976 6.35246 1.16687 8.17103 0.805138C9.9896 0.443402 11.8746 0.629058 13.5877 1.33863C15.3007 2.0482 16.7649 3.24982 17.795 4.79153C18.8252 6.33324 19.375 8.1458 19.375 10C19.3722 12.4855 18.3836 14.8685 16.626 16.626C14.8685 18.3836 12.4855 19.3722 10 19.375Z" fill="#1D1D1D"/>
<path d="M3.15625 7.31285C3.23214 7.34543 3.31777 7.34702 3.39482 7.3173C3.47188 7.28758 3.53425 7.22889 3.5686 7.15379C3.60849 7.06379 3.65021 6.97462 3.69375 6.88629C3.71219 6.84945 3.72317 6.80934 3.72605 6.76825C3.72893 6.72716 3.72366 6.68591 3.71054 6.64686C3.69743 6.60782 3.67672 6.57175 3.64961 6.54074C3.62251 6.50973 3.58954 6.48438 3.5526 6.46615C3.51566 6.44792 3.47549 6.43718 3.43438 6.43453C3.39328 6.43189 3.35205 6.4374 3.31309 6.45074C3.27412 6.46408 3.23817 6.485 3.20731 6.51228C3.17646 6.53957 3.1513 6.57268 3.13328 6.60972C3.08589 6.70576 3.04052 6.80269 2.99719 6.9005C2.98056 6.93802 2.97148 6.97845 2.97047 7.01948C2.96946 7.06051 2.97655 7.10133 2.99132 7.13962C3.00609 7.17791 3.02826 7.21292 3.05656 7.24264C3.08486 7.27236 3.11873 7.29622 3.15625 7.31285ZM5.07344 4.8666C5.1509 4.86664 5.22559 4.83784 5.28297 4.78582C5.35568 4.72009 5.4298 4.65576 5.50532 4.59285C5.56903 4.5398 5.60906 4.46362 5.61661 4.38106C5.62415 4.2985 5.59859 4.21633 5.54555 4.15261C5.49251 4.0889 5.41633 4.04887 5.33377 4.04132C5.25121 4.03378 5.16903 4.05934 5.10532 4.11238C5.02334 4.18082 4.94282 4.25077 4.86375 4.32222C4.81847 4.36524 4.78696 4.42073 4.77322 4.48166C4.75949 4.54259 4.76414 4.60623 4.78659 4.66452C4.80905 4.7228 4.84829 4.77312 4.89935 4.80909C4.95041 4.84506 5.011 4.86508 5.07344 4.8666ZM3.12375 11.4752C3.10334 11.3796 3.0849 11.2833 3.06844 11.1864C3.0546 11.1047 3.00886 11.0318 2.94129 10.9839C2.87372 10.9359 2.78985 10.9167 2.70813 10.9305C2.62641 10.9443 2.55353 10.9901 2.50554 11.0577C2.45754 11.1252 2.43835 11.2091 2.45219 11.2908C2.47011 11.3965 2.49021 11.5015 2.5125 11.6058C2.53085 11.6863 2.57988 11.7564 2.64916 11.8013C2.71844 11.8462 2.80249 11.8623 2.88344 11.8461C2.96448 11.8288 3.03531 11.78 3.08038 11.7104C3.12544 11.6408 3.14104 11.5562 3.12375 11.4752ZM2.74782 8.7941C2.82888 8.81026 2.91304 8.79398 2.98223 8.74875C3.05142 8.70352 3.1001 8.63296 3.11782 8.55222C3.13792 8.45597 3.16006 8.3603 3.18422 8.26519C3.2039 8.18506 3.19109 8.10039 3.14858 8.02966C3.10607 7.95894 3.03731 7.9079 2.95731 7.88768C2.8773 7.86746 2.79255 7.87971 2.72154 7.92175C2.65054 7.96378 2.59904 8.0322 2.57828 8.11207C2.55214 8.2154 2.52808 8.31941 2.5061 8.4241C2.49767 8.46426 2.49724 8.5057 2.50483 8.54603C2.51242 8.58636 2.52788 8.6248 2.55032 8.65916C2.57277 8.69352 2.60176 8.72312 2.63565 8.74627C2.66953 8.76943 2.70765 8.78568 2.74782 8.7941ZM6.31204 3.95972C6.36709 3.96038 6.4213 3.94612 6.46891 3.91847C6.5537 3.8692 6.63948 3.8216 6.72625 3.77566C6.76341 3.75698 6.79646 3.73108 6.82347 3.69946C6.85048 3.66785 6.87091 3.63116 6.88357 3.59155C6.89622 3.55194 6.90084 3.5102 6.89716 3.46878C6.89347 3.42736 6.88156 3.38709 6.86212 3.35033C6.84267 3.31358 6.81609 3.28107 6.78392 3.25472C6.75175 3.22837 6.71465 3.2087 6.67478 3.19687C6.63492 3.18504 6.59309 3.18129 6.55176 3.18583C6.51043 3.19037 6.47041 3.20311 6.43407 3.22332C6.3398 3.27321 6.24662 3.32488 6.15454 3.37832C6.08294 3.42002 6.03084 3.48845 6.00969 3.56855C5.98853 3.64866 6.00005 3.73389 6.04172 3.8055C6.0697 3.8523 6.10927 3.89109 6.15663 3.9181C6.20399 3.94512 6.25751 3.95946 6.31204 3.95972ZM4.14844 13.8996C4.10246 13.8306 4.03096 13.7827 3.94966 13.7664C3.86836 13.7501 3.78392 13.7668 3.71493 13.8128C3.64593 13.8587 3.59802 13.9303 3.58174 14.0116C3.56547 14.0929 3.58215 14.1773 3.62813 14.2463C3.6875 14.3352 3.7487 14.4228 3.81172 14.5089C3.86125 14.575 3.93459 14.619 4.01613 14.6318C4.09767 14.6445 4.18096 14.625 4.24829 14.5772C4.31522 14.5284 4.36002 14.4549 4.37282 14.3731C4.38562 14.2912 4.36539 14.2076 4.31657 14.1407C4.25886 14.0615 4.20282 13.9811 4.14844 13.8996ZM2.96875 10C2.96875 9.90629 2.97063 9.8129 2.97438 9.71988C2.97769 9.63706 2.94797 9.55632 2.89176 9.49541C2.83554 9.43451 2.75743 9.39843 2.67461 9.39511C2.5918 9.3918 2.51105 9.42152 2.45015 9.47774C2.38924 9.53395 2.35316 9.61206 2.34985 9.69488C2.34568 9.79623 2.34365 9.89795 2.34375 10V10.0147C2.34389 10.0554 2.35212 10.0956 2.36797 10.133C2.38381 10.1705 2.40695 10.2044 2.43604 10.2328C2.46513 10.2612 2.49958 10.2835 2.53739 10.2985C2.5752 10.3134 2.61561 10.3207 2.65625 10.3199C2.73989 10.3182 2.81954 10.2838 2.878 10.2239C2.93646 10.1641 2.96906 10.0837 2.96875 10ZM3.57938 12.8705C3.53948 12.7815 3.50146 12.6916 3.46532 12.6007C3.43473 12.5236 3.3748 12.4619 3.2987 12.429C3.2226 12.3962 3.13657 12.3949 3.05953 12.4255C2.9825 12.4561 2.92076 12.516 2.88792 12.5921C2.85507 12.6682 2.8538 12.7542 2.88438 12.8313C2.92396 12.9308 2.96552 13.0291 3.00907 13.1263C3.04382 13.2012 3.10644 13.2595 3.18357 13.2889C3.26071 13.3183 3.34627 13.3164 3.42203 13.2836C3.4595 13.2668 3.49329 13.2428 3.52148 13.213C3.54966 13.1831 3.57169 13.148 3.5863 13.1097C3.60092 13.0713 3.60783 13.0304 3.60664 12.9894C3.60545 12.9484 3.59619 12.908 3.57938 12.8705ZM16.4148 7.1166C16.455 7.20587 16.4932 7.29597 16.5297 7.38691C16.545 7.425 16.5676 7.45972 16.5963 7.48906C16.625 7.51841 16.6592 7.54182 16.6969 7.55796C16.7346 7.57409 16.7752 7.58263 16.8162 7.5831C16.8573 7.58356 16.898 7.57594 16.9361 7.56066C16.9742 7.54538 17.0089 7.52275 17.0382 7.49406C17.0676 7.46537 17.091 7.43118 17.1071 7.39344C17.1233 7.3557 17.1318 7.31516 17.1323 7.27412C17.1327 7.23308 17.1251 7.19235 17.1098 7.15425C17.0703 7.0553 17.0286 6.95727 16.9848 6.86019C16.9684 6.82225 16.9445 6.78797 16.9147 6.75932C16.8848 6.73067 16.8496 6.70824 16.811 6.69331C16.7724 6.67838 16.7313 6.67127 16.6899 6.67237C16.6486 6.67347 16.6078 6.68277 16.5701 6.69973C16.5324 6.7167 16.4984 6.74098 16.4701 6.77118C16.4419 6.80137 16.4199 6.83688 16.4054 6.87565C16.391 6.91441 16.3844 6.95566 16.386 6.99699C16.3876 7.03833 16.3974 7.07893 16.4148 7.11644V7.1166ZM15.8438 6.08879C15.8908 6.15649 15.9622 6.20331 16.0431 6.2194C16.1239 6.23549 16.2078 6.21958 16.2772 6.17504C16.3113 6.15224 16.3407 6.12294 16.3635 6.0888C16.3863 6.05467 16.4021 6.01638 16.4102 5.97611C16.4182 5.93584 16.4182 5.89439 16.4101 5.85413C16.4021 5.81386 16.3863 5.77557 16.3634 5.74144C16.304 5.65248 16.2426 5.56488 16.1794 5.47863C16.1551 5.44552 16.1245 5.41752 16.0895 5.39622C16.0544 5.37492 16.0154 5.36075 15.9748 5.3545C15.9343 5.34825 15.8928 5.35006 15.853 5.35982C15.8131 5.36957 15.7755 5.38709 15.7424 5.41136C15.6756 5.46039 15.6309 5.53396 15.6183 5.61591C15.6121 5.65648 15.6139 5.69789 15.6236 5.73777C15.6334 5.77764 15.6509 5.81521 15.6752 5.84832C15.733 5.92717 15.7892 6.00733 15.8438 6.08879ZM16.8734 8.51129C16.8941 8.6066 16.9127 8.70274 16.9292 8.79972C16.9432 8.88142 16.989 8.95424 17.0566 9.00215C17.1243 9.05006 17.2081 9.06914 17.2898 9.05519C17.3715 9.04125 17.4444 8.99542 17.4923 8.92779C17.5402 8.86016 17.5593 8.77627 17.5453 8.69457C17.5272 8.58863 17.5069 8.48358 17.4844 8.37941C17.4669 8.2984 17.4179 8.22765 17.3483 8.18272C17.2786 8.1378 17.194 8.12239 17.113 8.13988C17.032 8.15737 16.9612 8.20632 16.9163 8.27597C16.8714 8.34563 16.856 8.43027 16.8734 8.51129ZM13.4969 3.89847C13.582 3.94722 13.6659 3.99785 13.7488 4.05035C13.8193 4.09288 13.9035 4.10655 13.9838 4.0885C14.0642 4.07045 14.1345 4.02208 14.18 3.95347C14.2243 3.88347 14.239 3.79874 14.2209 3.7179C14.2028 3.63707 14.1533 3.56674 14.0833 3.52238C13.9927 3.46509 13.9008 3.40972 13.8078 3.35629C13.7722 3.33587 13.7329 3.32266 13.6922 3.31743C13.6515 3.31219 13.6102 3.31502 13.5706 3.32575C13.4906 3.34744 13.4225 3.40001 13.3813 3.47191C13.34 3.54381 13.329 3.62914 13.3507 3.70914C13.3724 3.78913 13.425 3.85724 13.4969 3.89847ZM7.71094 3.33285C7.74412 3.33276 7.77708 3.32744 7.8086 3.31707C7.90141 3.28655 7.99506 3.258 8.08953 3.23144C8.16935 3.20902 8.23699 3.15582 8.27757 3.08353C8.31816 3.01124 8.32836 2.92579 8.30594 2.84597C8.28352 2.76616 8.23032 2.69852 8.15803 2.65794C8.08574 2.61735 8.00029 2.60715 7.92047 2.62957C7.81735 2.65853 7.71506 2.68972 7.6136 2.72316C7.5429 2.74627 7.48276 2.79384 7.444 2.85732C7.40523 2.9208 7.39038 2.99603 7.40211 3.06947C7.41384 3.14292 7.45138 3.20978 7.50799 3.25803C7.5646 3.30628 7.63656 3.33291 7.71094 3.33285ZM9.21094 3.01035C9.22211 3.0105 9.23327 3.00998 9.24438 3.00879C9.34157 2.99837 9.43938 2.99004 9.53782 2.98379C9.57877 2.98112 9.6188 2.97041 9.65562 2.95227C9.69244 2.93413 9.72532 2.90892 9.7524 2.87808C9.77947 2.84723 9.8002 2.81135 9.81341 2.77249C9.82662 2.73363 9.83205 2.69255 9.82938 2.6516C9.82671 2.61064 9.816 2.57061 9.79786 2.53379C9.77973 2.49698 9.75452 2.46409 9.72367 2.43702C9.69282 2.40994 9.65695 2.38921 9.61809 2.376C9.57923 2.36279 9.53815 2.35737 9.49719 2.36004C9.39011 2.36701 9.2837 2.37613 9.17797 2.38738C9.0956 2.39619 9.0201 2.43735 8.96807 2.50181C8.91603 2.56627 8.89172 2.64875 8.90047 2.73113C8.91126 2.80666 8.94825 2.876 9.00497 2.92704C9.06169 2.97808 9.13469 3.00756 9.21094 3.01035ZM12.1522 3.3041C12.2459 3.3342 12.339 3.36629 12.4313 3.40035C12.4699 3.41517 12.5111 3.42217 12.5525 3.42092C12.5939 3.41968 12.6346 3.41023 12.6723 3.39311C12.71 3.37599 12.7439 3.35156 12.7721 3.32122C12.8003 3.29088 12.8222 3.25525 12.8364 3.21639C12.8507 3.17753 12.8572 3.13621 12.8553 3.09485C12.8535 3.05349 12.8435 3.0129 12.8259 2.97544C12.8082 2.93798 12.7833 2.9044 12.7526 2.87665C12.7219 2.8489 12.6859 2.82753 12.6469 2.81379C12.5466 2.77681 12.4453 2.74191 12.3431 2.7091C12.2647 2.68558 12.1802 2.69377 12.1078 2.73188C12.0354 2.77 11.9808 2.83501 11.9558 2.91294C11.9308 2.99087 11.9374 3.0755 11.9741 3.14864C12.0108 3.22179 12.0748 3.2776 12.1522 3.3041ZM10.7141 3.00472C10.8122 3.01462 10.9096 3.02644 11.0064 3.04019C11.0473 3.0467 11.0891 3.045 11.1294 3.0352C11.1697 3.0254 11.2076 3.00769 11.2409 2.9831C11.2743 2.95851 11.3024 2.92753 11.3237 2.89197C11.3449 2.85641 11.3589 2.81697 11.3648 2.77595C11.3707 2.73493 11.3684 2.69315 11.358 2.65305C11.3475 2.61294 11.3293 2.5753 11.3042 2.54232C11.2791 2.50935 11.2477 2.48169 11.2118 2.46097C11.1759 2.44024 11.1363 2.42686 11.0952 2.4216C10.9898 2.40649 10.8839 2.39353 10.7772 2.38269C10.7364 2.37855 10.6951 2.38249 10.6558 2.39428C10.6165 2.40608 10.5799 2.4255 10.5481 2.45145C10.5163 2.47739 10.4899 2.50934 10.4704 2.54548C10.451 2.58162 10.4388 2.62123 10.4347 2.66207C10.4305 2.7029 10.4345 2.74415 10.4463 2.78346C10.4581 2.82277 10.4775 2.85937 10.5034 2.89118C10.5294 2.92298 10.5613 2.94936 10.5975 2.96882C10.6336 2.98828 10.6732 3.00058 10.7141 3.00472ZM15.1047 4.29379C15.0743 4.26543 15.0385 4.24343 14.9995 4.22907C14.9605 4.2147 14.919 4.20827 14.8775 4.21015C14.8359 4.21202 14.7952 4.22217 14.7576 4.23999C14.7201 4.25781 14.6864 4.28295 14.6587 4.31393C14.631 4.34491 14.6097 4.38111 14.5961 4.42041C14.5826 4.45972 14.577 4.50133 14.5797 4.54282C14.5825 4.58431 14.5934 4.62483 14.612 4.66202C14.6306 4.69922 14.6564 4.73232 14.688 4.75941C14.7611 4.82504 14.8328 4.89196 14.903 4.96019C14.9629 5.01685 15.0425 5.04797 15.125 5.04695C15.2075 5.04593 15.2863 5.01285 15.3448 4.95472C15.4027 4.89538 15.4346 4.81549 15.4335 4.73262C15.4325 4.64976 15.3986 4.5707 15.3392 4.51285C15.2627 4.43806 15.1844 4.36504 15.1047 4.29379ZM16.1266 14.0627C16.0934 14.0385 16.0558 14.0211 16.0159 14.0114C15.976 14.0018 15.9345 14.0001 15.894 14.0065C15.8534 14.0129 15.8145 14.0273 15.7795 14.0487C15.7445 14.0702 15.7141 14.0984 15.69 14.1316C15.6323 14.211 15.5729 14.2891 15.5119 14.366C15.4864 14.3981 15.4674 14.435 15.4562 14.4745C15.4449 14.5139 15.4415 14.5552 15.4462 14.596C15.451 14.6368 15.4636 14.6762 15.4836 14.7121C15.5035 14.7479 15.5303 14.7795 15.5625 14.805C15.628 14.855 15.7103 14.8777 15.7922 14.8682C15.8741 14.8588 15.9491 14.8181 16.0016 14.7546C16.0679 14.6709 16.1326 14.5858 16.1955 14.4991C16.2442 14.4321 16.2643 14.3485 16.2514 14.2666C16.2384 14.1848 16.1936 14.1114 16.1266 14.0627ZM14.7067 15.2238C14.6338 15.2895 14.5595 15.3537 14.4838 15.4164C14.42 15.4694 14.3798 15.5455 14.3722 15.628C14.3645 15.7105 14.3899 15.7927 14.4428 15.8564C14.4973 15.9178 14.5731 15.9561 14.6547 15.9637C14.7364 15.9713 14.8179 15.9476 14.8828 15.8974C14.965 15.8292 15.0457 15.7594 15.125 15.6882C15.1859 15.6325 15.2223 15.555 15.2263 15.4727C15.2303 15.3903 15.2015 15.3097 15.1463 15.2484C15.0911 15.1871 15.0139 15.1501 14.9316 15.1455C14.8492 15.1409 14.7684 15.169 14.7067 15.2238ZM4.42813 5.20597C4.36303 5.15468 4.28025 5.13131 4.19794 5.14097C4.11563 5.15064 4.04051 5.19256 3.98907 5.25754C3.92282 5.34139 3.85829 5.42665 3.79547 5.51332C3.7714 5.54656 3.75411 5.58421 3.7446 5.62413C3.73508 5.66406 3.73352 5.70546 3.74001 5.74599C3.74649 5.78651 3.7609 5.82536 3.7824 5.86032C3.8039 5.89528 3.83207 5.92566 3.86532 5.94972C3.93279 5.99733 4.0162 6.01667 4.09773 6.00362C4.17927 5.99058 4.25248 5.94617 4.30172 5.87988C4.35933 5.80019 4.41855 5.72191 4.47938 5.64504C4.50484 5.61284 4.52371 5.57593 4.53491 5.53644C4.54611 5.49694 4.54942 5.45563 4.54464 5.41485C4.53987 5.37408 4.52711 5.33465 4.50709 5.29881C4.48707 5.26297 4.46034 5.23142 4.42813 5.20597ZM17.0313 9.97082V10C17.0313 10.0988 17.0292 10.197 17.0252 10.2947C17.0235 10.3357 17.0299 10.3767 17.0441 10.4152C17.0582 10.4537 17.0799 10.4891 17.1077 10.5192C17.1355 10.5494 17.169 10.5738 17.2062 10.591C17.2435 10.6083 17.2838 10.618 17.3248 10.6196C17.3658 10.6213 17.4067 10.6149 17.4452 10.6007C17.4838 10.5866 17.5191 10.565 17.5493 10.5371C17.5795 10.5093 17.6039 10.4758 17.6211 10.4386C17.6383 10.4013 17.648 10.361 17.6497 10.32C17.6541 10.2138 17.6563 10.1074 17.6563 9.99754V9.97066C17.6563 9.88778 17.6233 9.8083 17.5647 9.74969C17.5061 9.69108 17.4266 9.65816 17.3438 9.65816C17.2609 9.65816 17.1814 9.69108 17.1228 9.74969C17.0642 9.8083 17.0313 9.88794 17.0313 9.97082ZM16.8384 12.7005C16.801 12.6838 16.7605 12.6746 16.7195 12.6736C16.6785 12.6725 16.6376 12.6795 16.5993 12.6942C16.561 12.7089 16.526 12.731 16.4962 12.7592C16.4664 12.7875 16.4425 12.8213 16.4258 12.8588C16.3857 12.949 16.3438 13.0381 16.3 13.126C16.2632 13.2002 16.2574 13.286 16.2838 13.3646C16.3103 13.4431 16.3669 13.5079 16.4411 13.5447C16.5155 13.5806 16.601 13.586 16.6793 13.5596C16.7575 13.5332 16.8224 13.4772 16.8598 13.4036C16.9073 13.308 16.9529 13.2112 16.9966 13.1133C17.0133 13.0758 17.0225 13.0354 17.0236 12.9944C17.0247 12.9533 17.0177 12.9125 17.003 12.8741C16.9883 12.8358 16.9663 12.8007 16.938 12.771C16.9098 12.7412 16.8759 12.7172 16.8384 12.7005ZM17.2497 11.2203C17.1686 11.2033 17.084 11.2191 17.0146 11.2643C16.9452 11.3096 16.8965 11.3805 16.8794 11.4616C16.8589 11.5578 16.8365 11.6534 16.8122 11.7483C16.7917 11.8286 16.804 11.9138 16.8463 11.9851C16.8886 12.0564 16.9575 12.108 17.0378 12.1285C17.1181 12.149 17.2033 12.1367 17.2746 12.0944C17.3459 12.0521 17.3975 11.9832 17.418 11.9028C17.4442 11.7997 17.4684 11.6958 17.4906 11.591C17.5078 11.5099 17.4921 11.4253 17.4469 11.3558C17.4017 11.2864 17.3308 11.2375 17.2497 11.2203ZM13.5189 16.0888C13.4343 16.1378 13.3486 16.1852 13.2617 16.2308C13.1884 16.2693 13.1333 16.3354 13.1087 16.4145C13.084 16.4937 13.0918 16.5793 13.1303 16.6527C13.1696 16.7253 13.2357 16.7797 13.3145 16.8043C13.3933 16.8288 13.4786 16.8216 13.5522 16.7841C13.6468 16.7345 13.7402 16.683 13.8325 16.6294C13.9038 16.5876 13.9556 16.5193 13.9766 16.4394C13.9977 16.3595 13.9862 16.2745 13.9448 16.203C13.9033 16.1316 13.8352 16.0794 13.7554 16.058C13.6756 16.0366 13.5906 16.0477 13.5189 16.0888ZM6.4911 16.0947C6.4061 16.0458 6.32224 15.9949 6.23953 15.9422C6.1696 15.8977 6.08486 15.8828 6.00394 15.9008C5.92302 15.9188 5.85256 15.9682 5.80805 16.0381C5.76354 16.108 5.74864 16.1928 5.76662 16.2737C5.78459 16.3546 5.83398 16.4251 5.90391 16.4696C5.99433 16.5272 6.08599 16.5827 6.17891 16.6361C6.25092 16.6767 6.33595 16.6874 6.41576 16.6659C6.49557 16.6445 6.56379 16.5926 6.60579 16.5214C6.64715 16.4496 6.6583 16.3644 6.6368 16.2843C6.61529 16.2043 6.56288 16.1361 6.4911 16.0947ZM7.83469 16.6918C7.74084 16.6612 7.64776 16.6289 7.55547 16.5949C7.47773 16.5661 7.39176 16.5695 7.31646 16.6041C7.24117 16.6388 7.18273 16.7019 7.15399 16.7796C7.12525 16.8574 7.12857 16.9434 7.16322 17.0187C7.19787 17.0939 7.26101 17.1524 7.33875 17.1811C7.43875 17.2182 7.53985 17.2533 7.64204 17.2863C7.6812 17.2994 7.72258 17.3047 7.76378 17.3017C7.80498 17.2988 7.84519 17.2877 7.88208 17.2691C7.91896 17.2505 7.9518 17.2247 7.97868 17.1934C8.00556 17.162 8.02596 17.1256 8.0387 17.0863C8.05143 17.047 8.05625 17.0056 8.05287 16.9644C8.04949 16.9233 8.03798 16.8832 8.01901 16.8465C8.00004 16.8098 7.97398 16.7772 7.94234 16.7507C7.91071 16.7241 7.87412 16.7041 7.83469 16.6918ZM5.08688 15.0299C5.05754 15.0012 5.02283 14.9785 4.98474 14.9633C4.94665 14.948 4.90592 14.9404 4.86488 14.9408C4.82384 14.9413 4.7833 14.9498 4.74556 14.9659C4.70782 14.9821 4.67362 15.0055 4.64493 15.0348C4.61623 15.0641 4.59359 15.0989 4.57831 15.1369C4.56303 15.175 4.5554 15.2158 4.55586 15.2568C4.55631 15.2978 4.56485 15.3384 4.58098 15.3761C4.5971 15.4139 4.62051 15.4481 4.64985 15.4768C4.72631 15.5515 4.80427 15.6246 4.88375 15.696C4.94585 15.7504 5.02676 15.7784 5.10923 15.7741C5.19169 15.7697 5.26918 15.7332 5.32516 15.6725C5.35261 15.642 5.37378 15.6064 5.38746 15.5677C5.40114 15.529 5.40706 15.488 5.40489 15.447C5.40271 15.406 5.39248 15.3658 5.37478 15.3288C5.35708 15.2918 5.33225 15.2586 5.30172 15.2311C5.2287 15.1655 5.15709 15.0984 5.08688 15.0299ZM10.7416 16.9927C10.6445 17.0029 10.5468 17.0111 10.4486 17.0172C10.4076 17.0198 10.3676 17.0304 10.3307 17.0484C10.2938 17.0664 10.2609 17.0916 10.2337 17.1223C10.2065 17.1531 10.1857 17.1889 10.1724 17.2278C10.1591 17.2666 10.1535 17.3077 10.1561 17.3486C10.1624 17.4309 10.2005 17.5075 10.2624 17.562C10.3242 17.6166 10.4049 17.645 10.4873 17.641C10.5944 17.6343 10.701 17.6255 10.807 17.6144C10.8895 17.6057 10.9651 17.5646 11.0173 17.5001C11.0694 17.4357 11.0939 17.3531 11.0852 17.2707C11.0765 17.1882 11.0354 17.1126 10.9709 17.0604C10.9064 17.0082 10.8239 16.9838 10.7414 16.9925L10.7416 16.9927ZM9.27188 16.9941C9.17386 16.984 9.07641 16.9719 8.97954 16.9577C8.93891 16.9518 8.89752 16.954 8.85773 16.9641C8.81795 16.9742 8.78055 16.9921 8.74766 17.0167C8.71478 17.0412 8.68705 17.072 8.66607 17.1073C8.6451 17.1426 8.63127 17.1817 8.62539 17.2223C8.61952 17.2629 8.6217 17.3043 8.63181 17.3441C8.64193 17.3839 8.65978 17.4213 8.68435 17.4542C8.70893 17.4871 8.73973 17.5148 8.77502 17.5358C8.8103 17.5567 8.84938 17.5706 8.89 17.5764C8.99521 17.5917 9.10115 17.6047 9.20782 17.6157C9.2491 17.6208 9.291 17.6177 9.33105 17.6064C9.37111 17.5952 9.40851 17.576 9.44107 17.5501C9.47363 17.5242 9.50069 17.4921 9.52067 17.4556C9.54064 17.4191 9.55313 17.379 9.55739 17.3376C9.56166 17.2962 9.55762 17.2544 9.54551 17.2146C9.5334 17.1748 9.51346 17.1378 9.48687 17.1058C9.46027 17.0738 9.42756 17.0475 9.39064 17.0283C9.35372 17.0091 9.31335 16.9975 9.27188 16.9941ZM12.1784 16.6875C12.0853 16.7178 11.9913 16.7463 11.8963 16.7728C11.8165 16.7953 11.7489 16.8484 11.7083 16.9206C11.6677 16.9929 11.6575 17.0782 11.6798 17.158C11.7031 17.2372 11.7565 17.3042 11.8285 17.3447C11.9004 17.3851 11.9854 17.3959 12.0652 17.3746C12.1683 17.3456 12.2704 17.3147 12.3716 17.2819C12.4495 17.2556 12.514 17.1997 12.551 17.1261C12.5879 17.0526 12.5944 16.9675 12.569 16.8892C12.5436 16.8109 12.4883 16.7459 12.4152 16.7081C12.342 16.6704 12.257 16.663 12.1784 16.6875ZM14.3394 6.57019C14.1233 6.36329 13.8357 6.24779 13.5365 6.24779C13.2373 6.24779 12.9497 6.36329 12.7336 6.57019L8.06235 11.0308L6.64141 9.67394C6.42532 9.46704 6.13769 9.35154 5.83852 9.35154C5.53935 9.35154 5.25172 9.46704 5.03563 9.67394C4.9284 9.7796 4.84325 9.90553 4.78512 10.0444C4.727 10.1833 4.69707 10.3323 4.69707 10.4828C4.69707 10.6334 4.727 10.7824 4.78512 10.9213C4.84325 11.0602 4.9284 11.1861 5.03563 11.2918L7.84657 13.9761C7.9047 14.0316 7.98198 14.0626 8.06235 14.0626C8.14272 14.0626 8.22 14.0316 8.27813 13.9761C8.27813 13.9761 14.3344 8.19238 14.3394 8.18754C14.4468 8.08199 14.532 7.95612 14.5902 7.81726C14.6485 7.67841 14.6784 7.52935 14.6784 7.37879C14.6784 7.22822 14.6485 7.07916 14.5902 6.94031C14.532 6.80146 14.4468 6.67574 14.3394 6.57019ZM13.9078 7.73582L8.0625 13.3178L5.46719 10.8397C5.41843 10.7939 5.37955 10.7387 5.35295 10.6773C5.32634 10.6159 5.31258 10.5497 5.3125 10.4828C5.31887 10.3475 5.37701 10.2197 5.47489 10.126C5.57277 10.0323 5.70292 9.97975 5.83844 9.97925C5.97652 9.97851 6.10956 10.0311 6.20985 10.126L7.84657 11.6889C7.9047 11.7444 7.98198 11.7754 8.06235 11.7754C8.14272 11.7754 8.22 11.7444 8.27813 11.6889L13.1652 7.02191C13.2658 6.92762 13.3986 6.87514 13.5365 6.87514C13.6744 6.87514 13.8072 6.92762 13.9078 7.02191C13.9559 7.06811 13.9941 7.12353 14.0202 7.18486C14.0463 7.24618 14.0597 7.31214 14.0597 7.37879C14.0597 7.44543 14.0463 7.51139 14.0202 7.57272C13.9941 7.63404 13.9559 7.68962 13.9078 7.73582Z" fill="#1D1D1D"/>
</g>
<defs>
<clipPath id="clip0_182_435">
<rect width="20" height="20" fill="white"/>
</clipPath>
</defs>
</svg>
