<svg width="80" height="80" viewBox="0 0 80 80" fill="none" xmlns="http://www.w3.org/2000/svg">
<circle cx="40" cy="40" r="40" fill="white"/>
<path d="M35.3961 40.7945C36.1891 40.7945 36.8352 40.1492 36.8352 39.3555V34.7133C36.8352 33.9203 36.1899 33.2742 35.3961 33.2742C34.6032 33.2742 33.9571 33.9195 33.9571 34.7133V39.3555C33.9579 40.1492 34.6032 40.7945 35.3961 40.7945ZM34.8954 34.7133C34.8954 34.4367 35.1204 34.2117 35.3969 34.2117C35.6735 34.2117 35.8985 34.4367 35.8985 34.7133V39.3555C35.8985 39.632 35.6735 39.857 35.3969 39.857C35.1204 39.857 34.8954 39.632 34.8954 39.3555V34.7133ZM38.729 40.8914H43.7094C44.4297 40.8914 45.0305 40.3977 45.1704 39.6906L46.0086 35.4437C46.1086 34.9375 45.9829 34.4391 45.6555 34.0406C45.3282 33.6422 44.8633 33.4227 44.3477 33.4227H42.2415V30.975C42.2415 29.9289 41.3907 29.0781 40.3446 29.0781H40.136C39.6524 29.0781 39.2594 29.4719 39.2594 29.9547V31.2031C39.2594 31.4398 39.1891 31.6344 39.0383 31.8164L37.6782 33.4539C37.3875 33.8039 37.2407 34.2117 37.2407 34.6656V39.4016C37.2399 40.2234 37.9079 40.8914 38.729 40.8914ZM38.1774 34.6664C38.1774 34.4297 38.2477 34.2352 38.3985 34.0531L39.7586 32.4156C40.0493 32.0656 40.1961 31.6578 40.1961 31.2039V30.0164H40.3438C40.8727 30.0164 41.3032 30.4469 41.3032 30.9758V33.8922C41.3032 34.1508 41.5133 34.3609 41.7719 34.3609H44.3469C44.5868 34.3609 44.7782 34.4508 44.9305 34.6367C45.0829 34.8227 45.1344 35.0273 45.0883 35.2625L44.25 39.5094C44.1985 39.7711 43.9758 39.9539 43.7094 39.9539H38.729C38.425 39.9539 38.1774 39.7063 38.1774 39.4023V34.6664ZM47.6305 46.493C51.354 44.0156 53.8133 39.782 53.8133 34.9844C53.8133 27.368 47.6165 21.1719 40 21.1719C32.3836 21.1719 26.1868 27.368 26.1868 34.9852C26.1868 39.7828 28.6461 44.0164 32.3696 46.493L29.7665 56.207C29.718 56.3875 29.7813 56.5789 29.9274 56.6953C30.0735 56.8117 30.2743 56.8305 30.4391 56.743L34.7875 54.4375L37.4008 58.6086C37.443 58.6758 37.5015 58.7312 37.5709 58.7696C37.6403 58.808 37.7184 58.8281 37.7977 58.8281C37.8204 58.8281 37.8438 58.8266 37.8672 58.8227C37.9576 58.8092 38.042 58.7697 38.1102 58.7089C38.1783 58.6481 38.2272 58.5687 38.2508 58.4805L40 51.9539L41.7493 58.4805C41.7728 58.5687 41.8217 58.6482 41.8898 58.709C41.958 58.7698 42.0425 58.8093 42.1329 58.8227C42.1563 58.8258 42.1797 58.8281 42.2024 58.8281C42.3618 58.8281 42.5133 58.7461 42.5993 58.6086L45.2125 54.4375L49.561 56.743C49.7258 56.8305 49.9266 56.8117 50.0727 56.6953C50.2188 56.5789 50.2813 56.3875 50.2336 56.207L47.6305 46.493ZM29.9305 34.5164H27.1344C27.2063 32.5148 27.7375 30.6281 28.625 28.9594L31.0461 30.357C30.3938 31.6125 29.9993 33.0227 29.9305 34.5164ZM29.9305 35.4539C29.9964 36.9049 30.3771 38.3241 31.0461 39.6133L28.625 41.0109C27.7368 39.3414 27.2063 37.4555 27.1344 35.4531L29.9305 35.4539ZM30.8563 34.9852C30.8563 29.9438 34.9579 25.8414 40 25.8414C45.0422 25.8414 49.1438 29.943 49.1438 34.9852C49.1438 40.0273 45.0415 44.1281 40 44.1281C34.9586 44.1281 30.8563 40.0266 30.8563 34.9852ZM40.4688 24.9148V22.1188C42.4704 22.1906 44.3571 22.7219 46.0266 23.6094L44.6282 26.0312C43.3392 25.3616 41.9199 24.9806 40.4688 24.9148ZM39.5313 24.9148C38.0803 24.9807 36.6611 25.3614 35.3719 26.0305L33.9735 23.6094C35.643 22.7211 37.529 22.1906 39.5313 22.1188V24.9148ZM50.0696 35.4539H52.8657C52.7938 37.4555 52.2625 39.3422 51.375 41.0117L48.954 39.6141C49.6055 38.357 50.0008 36.9469 50.0696 35.4539ZM50.0696 34.5164C50.0037 33.0655 49.623 31.6462 48.954 30.357L51.375 28.9594C52.2633 30.6289 52.7938 32.5148 52.8657 34.5172H50.0696V34.5164ZM39.5313 45.0547V47.8508C37.5297 47.7789 35.643 47.2477 33.9743 46.3602L35.3719 43.9391C36.6611 44.6082 38.0803 44.9888 39.5313 45.0547ZM40.4688 47.8508V45.0547C41.9198 44.9888 43.339 44.6082 44.6282 43.9391L46.0258 46.3602C44.3571 47.2477 42.4704 47.7789 40.4688 47.8508ZM46.8375 45.8898L45.4399 43.4688C46.6607 42.6831 47.6988 41.645 48.4844 40.4242L50.9055 41.8219C49.8709 43.4651 48.4808 44.8552 46.8375 45.8898ZM50.9055 28.1477L48.4844 29.5453C47.6988 28.3246 46.6607 27.2864 45.4399 26.5008L46.8375 24.0797C48.4808 25.1143 49.8709 26.5044 50.9055 28.1477ZM33.1625 24.0797L34.5602 26.5008C33.3394 27.2864 32.3013 28.3246 31.5157 29.5453L29.0946 28.1477C30.1292 26.5044 31.5193 25.1143 33.1625 24.0797ZM29.0946 41.8219L31.5157 40.4242C32.3013 41.645 33.3394 42.6831 34.5602 43.4688L33.1625 45.8898C31.5193 44.8552 30.1292 43.4651 29.0946 41.8219ZM37.6243 57.1984L35.3508 53.5703C35.2881 53.4699 35.1896 53.3969 35.0752 53.3662C34.9608 53.3355 34.8391 53.3492 34.7344 53.4047L30.9516 55.4102L33.2032 47.0062C35.1774 48.1273 37.4532 48.775 39.8758 48.7969L37.6243 57.1984ZM45.2665 53.4047C45.0493 53.2898 44.7797 53.3617 44.65 53.5703L42.3766 57.1984L40.486 50.1422L40.8532 48.7703C43.0032 48.6383 45.0227 48.0133 46.7977 47.0055L49.05 55.4102L45.2665 53.4047Z" fill="black"/>
</svg>
