<svg width="80" height="80" viewBox="0 0 80 80" fill="none" xmlns="http://www.w3.org/2000/svg">
<circle cx="40" cy="40" r="40" fill="white"/>
<g clip-path="url(#clip0_132_1665)">
<path d="M40.0304 28.6216C34.369 28.6216 29.7437 33.2469 29.7437 38.9084C29.7437 41.8686 31.0387 44.7178 33.2219 46.6419C34.85 48.2701 34.702 51.7483 34.665 51.7853C34.665 51.9703 34.702 52.1183 34.85 52.2664C34.961 52.3774 35.1461 52.4514 35.2941 52.4514H44.7298C44.9148 52.4514 45.0628 52.3774 45.1738 52.2664C45.2848 52.1553 45.3588 51.9703 45.3588 51.7853C45.3588 51.7483 45.1738 48.2701 46.8019 46.6419L46.9129 46.5309C49.0591 44.5698 50.3172 41.7946 50.3172 38.9084C50.3172 33.2469 45.6918 28.6216 40.0304 28.6216ZM45.9509 45.6799C45.9139 45.7169 45.8399 45.7909 45.8399 45.8279C44.3968 47.382 44.1377 49.9352 44.1007 51.1563H35.9231C35.8861 49.9352 35.6271 47.271 34.073 45.6799C32.1118 43.9777 30.9647 41.4985 30.9647 38.8714C30.9647 33.876 34.998 29.8427 39.9934 29.8427C44.9888 29.8427 49.0221 33.876 49.0221 38.8714C49.0221 41.4985 47.912 43.9777 45.9509 45.6799Z" fill="#231F20"/>
<path d="M39.9935 31.2488C39.6605 31.2488 39.3645 31.5449 39.3645 31.8779C39.3645 32.2109 39.6605 32.5069 39.9935 32.5069C43.7308 32.5069 46.728 35.5412 46.728 39.2414C46.728 39.5745 47.024 39.8705 47.3571 39.8705C47.6901 39.8705 47.9861 39.5745 47.9861 39.2414C48.0231 34.8381 44.4339 31.2488 39.9935 31.2488ZM44.1008 53.1545H35.8862C35.0351 53.1545 34.3321 53.8575 34.3321 54.7086C34.3321 55.5597 35.0351 56.2627 35.8862 56.2627H44.0638C44.9519 56.2257 45.6549 55.5597 45.6549 54.7086C45.6549 53.8575 44.9519 53.1545 44.1008 53.1545ZM44.1008 54.9676H35.8862C35.7382 54.9676 35.5902 54.8566 35.5902 54.6716C35.5902 54.4866 35.7012 54.3756 35.8862 54.3756H44.0638C44.2118 54.3756 44.3598 54.4866 44.3598 54.6716C44.3598 54.8566 44.2488 54.9676 44.1008 54.9676ZM42.8797 56.8918H37.1073C36.2562 56.8918 35.5532 57.5948 35.5532 58.4459C35.5532 59.2969 36.2562 60 37.1073 60H42.8797C43.7308 60 44.4339 59.2969 44.4339 58.4459C44.4339 57.5578 43.7308 56.8918 42.8797 56.8918ZM42.8797 58.7049H37.1073C36.9593 58.7049 36.8113 58.5939 36.8113 58.4089C36.8113 58.2239 36.9223 58.1129 37.1073 58.1129H42.8797C43.0277 58.1129 43.1758 58.2239 43.1758 58.4089C43.1758 58.5939 43.0277 58.7049 42.8797 58.7049ZM39.9935 25.5504C40.3635 25.5504 40.6226 25.2544 40.6226 24.9214V20.629C40.6226 20.296 40.3265 20 39.9935 20C39.6605 20 39.3645 20.296 39.3645 20.629V24.9214C39.3645 25.2544 39.6605 25.5504 39.9935 25.5504ZM50.4653 23.1822C50.1693 22.9602 49.7993 23.0712 49.6142 23.3302L47.2461 26.8825C47.024 27.1785 47.0981 27.5856 47.3941 27.7706C47.5051 27.8446 47.6161 27.8816 47.7271 27.8816C47.9491 27.8816 48.1341 27.7706 48.2451 27.5856L50.6133 24.0333C50.8353 23.7743 50.7613 23.3673 50.4653 23.1822ZM32.482 27.7336C32.593 27.7336 32.704 27.6966 32.815 27.6226C33.111 27.4376 33.185 27.0305 33 26.7345L30.7058 23.1452C30.5208 22.8492 30.1138 22.7752 29.8178 22.9602C29.5217 23.1452 29.4477 23.5523 29.6327 23.8483L31.9269 27.4376C32.0749 27.6596 32.2599 27.7336 32.482 27.7336ZM28.0046 31.6559L24.2673 29.6207C23.9713 29.4727 23.5643 29.5837 23.4163 29.8797C23.2313 30.1758 23.3423 30.5828 23.6753 30.7308L27.4126 32.766C27.5236 32.803 27.5976 32.84 27.7086 32.84C27.9306 32.84 28.1526 32.729 28.2636 32.5069C28.4117 32.2109 28.3006 31.8039 28.0046 31.6559ZM56.6078 29.8797C56.4598 29.5837 56.0527 29.4727 55.7567 29.6207L51.9824 31.6559C51.6864 31.8039 51.5754 32.2109 51.7234 32.5069C51.8344 32.729 52.0564 32.84 52.2784 32.84C52.3894 32.84 52.5005 32.803 52.5745 32.766L56.3487 30.7308C56.6448 30.5828 56.7558 30.1758 56.6078 29.8797Z" fill="#231F20"/>
</g>
<defs>
<clipPath id="clip0_132_1665">
<rect width="40" height="40" fill="white" transform="translate(20 20)"/>
</clipPath>
</defs>
</svg>
