<svg width="80" height="80" viewBox="0 0 80 80" fill="none" xmlns="http://www.w3.org/2000/svg">
<circle cx="40" cy="40" r="40" fill="white"/>
<g clip-path="url(#clip0_137_1676)">
<path d="M56.8049 52.6769L55.2693 49.7125C55.1934 49.5657 55.0624 49.4549 54.905 49.4045C54.7476 49.3541 54.5766 49.3683 54.4296 49.4438L53.7483 49.7922L53.0633 48.4829C52.8361 48.0552 52.4503 47.7338 51.9888 47.5874C51.5272 47.441 51.0267 47.4815 50.5946 47.7L50.1752 47.9125L50.0596 47.7197L50.778 47.3566C51.1368 47.1758 51.4094 46.8603 51.5364 46.4792C51.6633 46.098 51.6342 45.682 51.4555 45.3222L50.9249 44.2666C50.8537 44.1295 50.7616 44.0043 50.6521 43.8954C50.841 43.667 50.9584 43.388 50.9898 43.0933C51.0211 42.7986 50.965 42.5012 50.8283 42.2382L50.2714 41.1538C50.1926 41.0047 50.0894 40.8699 49.9661 40.7547C50.1819 40.5101 50.3197 40.2066 50.3619 39.8831C50.4041 39.5596 50.3488 39.2309 50.203 38.9391L49.6136 37.7635C49.5191 37.5713 49.3869 37.4002 49.2248 37.2603C49.0627 37.1204 48.8741 37.0145 48.6702 36.9491C48.475 36.8859 48.2691 36.8626 48.0648 36.8805C47.8604 36.8985 47.6617 36.9573 47.4805 37.0535L46.1424 37.7616L46.6183 35.2797C46.6766 35.0269 46.684 34.765 46.6402 34.5093C46.5963 34.2535 46.5021 34.0091 46.363 33.79C46.2377 33.5941 46.0747 33.4251 45.8835 33.2927C45.6923 33.1604 45.4767 33.0674 45.2493 33.0191C45.2493 33.0191 39.948 31.885 39.9296 31.8829L38.2721 29.2397L39.8511 29.2466C39.9665 29.244 40.0792 29.2109 40.1776 29.1506C40.276 29.0904 40.3567 29.0051 40.4114 28.9035C40.4638 28.7999 40.4863 28.6838 40.4765 28.5682C40.4666 28.4526 40.4247 28.342 40.3555 28.2488L38.1955 25.3394L39.3561 21.8666C39.3932 21.7557 39.3984 21.6365 39.3712 21.5228C39.3439 21.409 39.2853 21.3052 39.2019 21.2231C39.1186 21.141 39.0139 21.084 38.8997 21.0585C38.7855 21.033 38.6665 21.04 38.5561 21.0788L35.1421 22.2794L32.2543 20.1241C32.1608 20.0544 32.0497 20.0122 31.9335 20.0023C31.8173 19.9924 31.7007 20.0152 31.5968 20.0681C31.4929 20.121 31.4058 20.202 31.3455 20.3018C31.2852 20.4016 31.254 20.5163 31.2555 20.6329L31.3018 24.2897L28.3499 26.4266C28.2557 26.4948 28.1823 26.5879 28.1381 26.6955C28.094 26.8031 28.0807 26.9208 28.0997 27.0356C28.1188 27.1503 28.1696 27.2574 28.2462 27.3449C28.3229 27.4323 28.4224 27.4967 28.5336 27.5307L31.9761 28.5835L33.0471 32.0591C33.0816 32.1711 33.1469 32.2711 33.2355 32.3477C33.3242 32.4244 33.4325 32.4745 33.5483 32.4925C33.6641 32.5098 33.7824 32.4945 33.89 32.4484C33.9976 32.4023 34.0903 32.3273 34.1577 32.2316L35.0802 30.9041L37.0052 35.7713L35.0227 35.9713C34.6957 36.003 34.3802 36.1088 34.1001 36.2805C33.8201 36.4523 33.5827 36.6855 33.4061 36.9625L31.8764 39.1822C31.473 39.7676 31.2413 40.4542 31.2077 41.1644C31.2072 41.1759 31.207 41.1873 31.2071 41.1988L31.2436 46.0588C31.2431 46.115 31.2289 46.1703 31.2022 46.2198C31.1755 46.2692 31.1372 46.3115 31.0905 46.3429L30.518 46.8044L30.3383 46.5313C30.2911 46.4619 30.2306 46.4026 30.1604 46.3567C30.0901 46.3109 30.0114 46.2794 29.9289 46.2642C29.8464 46.249 29.7617 46.2503 29.6797 46.268C29.5977 46.2857 29.52 46.3196 29.4511 46.3675L25.2602 49.3813C25.1256 49.4781 25.0349 49.6243 25.0082 49.7879C24.9814 49.9515 25.0208 50.119 25.1175 50.2536C25.2143 50.3882 25.3606 50.4789 25.5242 50.5056C25.6878 50.5324 25.8553 50.4931 25.9899 50.3963L29.6521 47.7629L34.6814 55.4047L33.4002 56.3772C33.2682 56.4775 33.1815 56.6261 33.159 56.7903C33.1366 56.9545 33.1803 57.1209 33.2805 57.2529C33.3837 57.3808 33.5318 57.4645 33.6946 57.4868C33.8575 57.5091 34.0227 57.4683 34.1564 57.3729L35.9027 56.0469C36.0289 55.9511 36.1139 55.8109 36.1407 55.6547C36.1674 55.4985 36.1339 55.338 36.0468 55.2057L35.8224 54.865L36.4549 54.4844L37.6521 54.7316C37.7153 54.7448 37.7803 54.7479 37.8446 54.741C38.7717 54.6205 39.6762 54.3645 40.5289 53.9813C40.4267 53.5267 40.4312 53.0545 40.5421 52.6019C39.6815 53.0368 38.7586 53.3355 37.8064 53.4872L36.4683 53.2107C36.3145 53.1794 36.1546 53.2067 36.0199 53.2872L35.1349 53.8197L31.208 47.8532L31.8536 47.3322C32.0538 47.1839 32.216 46.9904 32.3273 46.7675C32.4385 46.5446 32.4955 46.2985 32.4936 46.0494L32.4571 41.2079C32.4822 40.736 32.6374 40.2804 32.9055 39.8913L34.4489 37.6516C34.5245 37.5304 34.6267 37.428 34.7479 37.3524C34.8691 37.2768 35.0059 37.2299 35.148 37.2154L38.4274 36.8841C38.595 36.8634 38.7651 36.8775 38.927 36.9255C39.089 36.9734 39.2393 37.0542 39.3686 37.1629C39.5046 37.2756 39.6159 37.4152 39.6954 37.5729C39.775 37.7306 39.8212 37.903 39.8311 38.0794L39.8449 38.2888C39.8705 38.6147 39.7698 38.938 39.5636 39.1917C39.3573 39.4453 39.0614 39.6099 38.7371 39.6513L36.3261 39.8475C36.1071 39.8656 35.9014 39.96 35.7447 40.1142C35.5881 40.2683 35.4905 40.4726 35.4689 40.6913L35.2646 42.7232C35.2544 42.8058 35.2609 42.8896 35.2836 42.9696C35.3063 43.0497 35.3448 43.1244 35.3967 43.1894C35.4487 43.2544 35.5131 43.3084 35.5862 43.3482C35.6593 43.3879 35.7396 43.4127 35.8224 43.421C35.9052 43.4294 35.9888 43.4211 36.0684 43.3966C36.148 43.3722 36.2218 43.3321 36.2857 43.2788C36.3495 43.2254 36.4021 43.1598 36.4403 43.0859C36.4785 43.012 36.5015 42.9311 36.508 42.8482L36.6868 41.0722L38.8546 40.8957C38.9111 40.8894 38.9661 40.8791 39.0214 40.8694L43.2043 51.4457L42.7036 51.6991C42.4877 51.8074 42.2956 51.9578 42.1386 52.1415C41.9816 52.3251 41.863 52.5383 41.7896 52.7685C41.7162 52.9957 41.6891 53.2352 41.7097 53.4731C41.7303 53.7109 41.7982 53.9423 41.9096 54.1535L42.6096 55.4922L41.9027 55.8541C41.7569 55.9321 41.6472 56.0638 41.5968 56.2213C41.5463 56.3787 41.5591 56.5496 41.6324 56.6979L43.1683 59.6625C43.2472 59.8064 43.3783 59.9144 43.5345 59.9645C43.6908 60.0145 43.8603 60.0026 44.008 59.9313L56.5346 53.521C56.68 53.4426 56.7895 53.311 56.8399 53.1536C56.8903 52.9963 56.8778 52.8252 56.8049 52.6769ZM50.2139 46.2413L49.1486 46.7797C49.0465 46.8323 48.935 46.8639 48.8205 46.8727C48.7061 46.8816 48.591 46.8675 48.4821 46.8313C48.3768 46.7971 48.2794 46.7424 48.1955 46.6702C48.1116 46.5981 48.0428 46.5099 47.9933 46.411C47.893 46.2057 47.8779 45.969 47.9515 45.7527C48.025 45.5364 48.1811 45.3579 48.3858 45.2563L49.4508 44.7179C49.4893 44.698 49.5319 44.6876 49.5752 44.6875C49.6039 44.6875 49.6324 44.6922 49.6596 44.7013C49.6915 44.7115 49.7211 44.728 49.7465 44.7498C49.772 44.7716 49.7929 44.7982 49.808 44.8282L50.3389 45.8838C50.3695 45.9478 50.3735 46.0213 50.3501 46.0883C50.3267 46.1553 50.2777 46.2103 50.2139 46.2413ZM46.0914 43.2069C46.1286 43.0941 46.1881 42.9899 46.2662 42.9004C46.3444 42.8109 46.4396 42.738 46.5464 42.686L48.7496 41.5947C48.7927 41.5733 48.8402 41.5621 48.8883 41.5622C48.9441 41.5618 48.9989 41.5767 49.0468 41.6054C49.0946 41.6341 49.1336 41.6753 49.1596 41.7247L49.7164 42.8091C49.7332 42.8414 49.7433 42.8767 49.7462 42.913C49.7491 42.9493 49.7447 42.9858 49.7333 43.0204C49.7212 43.0565 49.7021 43.0898 49.6769 43.1183C49.6517 43.1469 49.6211 43.1701 49.5868 43.1866L47.3843 44.2782C47.1664 44.3867 46.9148 44.4056 46.6832 44.331C46.4516 44.2563 46.2584 44.094 46.1449 43.8788C46.0915 43.7761 46.0593 43.6637 46.0501 43.5483C46.041 43.4329 46.055 43.3168 46.0914 43.2069ZM48.0649 38.1582C48.1057 38.1364 48.1512 38.125 48.1974 38.125C48.2285 38.1252 48.2594 38.1302 48.2889 38.1397C48.334 38.1549 48.3756 38.179 48.4112 38.2105C48.4468 38.2421 48.4757 38.2805 48.4961 38.3235L49.0855 39.4991C49.1305 39.5827 49.1419 39.6803 49.1175 39.772C49.0931 39.8638 49.0346 39.9427 48.9539 39.9929L45.593 41.771C45.4873 41.8274 45.3712 41.8617 45.2518 41.872C45.1324 41.8822 45.0121 41.8682 44.8983 41.8307C44.7701 41.7888 44.6517 41.7215 44.5501 41.6328C44.4485 41.5441 44.3659 41.4358 44.3071 41.3144C44.1817 41.078 44.1531 40.8022 44.2272 40.5451C44.3013 40.288 44.4723 40.0697 44.7043 39.9363L48.0649 38.1582ZM44.9877 34.2413C45.0544 34.2554 45.1176 34.2828 45.1735 34.3219C45.2295 34.3609 45.277 34.4107 45.3133 34.4685C45.3634 34.552 45.3963 34.6446 45.4101 34.741C45.4239 34.8374 45.4183 34.9355 45.3936 35.0297L44.8549 37.8391C44.8071 38.0996 44.6674 38.3343 44.4611 38.5004C44.2549 38.6666 43.9958 38.7532 43.7311 38.7444C43.6272 38.7332 43.5269 38.6998 43.437 38.6464C43.3471 38.593 43.2698 38.5209 43.2102 38.435C43.1325 38.3168 43.0806 38.1836 43.0578 38.044C43.035 37.9043 43.0419 37.7615 43.078 37.6247L43.4339 35.6154C43.4482 35.5345 43.4465 35.4517 43.4288 35.3715C43.4111 35.2914 43.3777 35.2155 43.3307 35.1483C43.2836 35.081 43.2238 35.0236 43.1546 34.9795C43.0854 34.9354 43.0082 34.9053 42.9274 34.891C42.8466 34.8767 42.7637 34.8784 42.6836 34.8961C42.6034 34.9139 42.5275 34.9472 42.4603 34.9942C42.393 35.0413 42.3357 35.1011 42.2915 35.1703C42.2474 35.2395 42.2173 35.3167 42.203 35.3975L42.188 35.4835L40.8521 33.3535L44.9877 34.2413ZM33.8636 30.4641L33.073 27.8985C33.043 27.8009 32.9895 27.7123 32.9173 27.6402C32.845 27.5681 32.7562 27.5148 32.6586 27.485L30.1005 26.7025L32.2974 25.1122C32.3785 25.0535 32.4443 24.9762 32.4893 24.8867C32.5342 24.7972 32.5571 24.6983 32.5558 24.5982L32.5214 21.8832L34.6618 23.48C34.7438 23.5416 34.8398 23.5819 34.9412 23.5974C35.0426 23.613 35.1463 23.6032 35.243 23.5691L37.7658 22.6816L36.9064 25.2525C36.8746 25.348 36.8662 25.4496 36.882 25.549C36.8979 25.6483 36.9374 25.7424 36.9974 25.8232L38.6074 27.991L35.9202 27.9794H35.9174C35.8166 27.9794 35.7172 28.0038 35.6279 28.0504C35.5385 28.0971 35.4618 28.1648 35.4043 28.2475L33.8636 30.4641ZM44.318 50.8632L40.1611 40.3519C40.4763 40.0951 40.7254 39.7665 40.8874 39.3936C41.0494 39.0207 41.1197 38.6144 41.0924 38.2088L41.0789 37.9997C41.0568 37.6538 40.9646 37.316 40.8079 37.0069C40.6512 36.6977 40.4333 36.4236 40.1674 36.2013C39.9104 35.9855 39.612 35.8245 39.2905 35.7282C38.9691 35.6319 38.6313 35.6024 38.298 35.6413L35.9371 29.6716L36.2433 29.231L36.7924 29.2332L41.8633 37.3188L41.8524 37.3816C41.7819 37.6853 41.7757 38.0003 41.8341 38.3065C41.8925 38.6127 42.0142 38.9033 42.1914 39.1597C42.4271 39.4939 42.7607 39.7467 43.1461 39.8832C43.0056 40.1977 42.9366 40.5396 42.9442 40.884C42.9517 41.2285 43.0357 41.567 43.1899 41.875C43.3228 42.1455 43.5088 42.3864 43.7368 42.5833C43.9648 42.7803 44.2302 42.9294 44.5171 43.0216C44.6209 43.0547 44.727 43.08 44.8346 43.0972C44.7483 43.5574 44.8181 44.0333 45.0327 44.4494C45.1956 44.7634 45.4327 45.0329 45.7234 45.2344C46.0141 45.4359 46.3496 45.5634 46.7008 45.6057C46.594 46.1085 46.6768 46.6331 46.9334 47.0786C47.19 47.524 47.6022 47.8589 48.0908 48.0188C48.3049 48.0898 48.529 48.126 48.7546 48.1263C48.7839 48.1263 48.8133 48.1222 48.843 48.121L49.0574 48.4794L44.7693 50.6529L44.318 50.8632ZM43.0174 53.5741C42.9832 53.5094 42.9623 53.4386 42.9558 53.3657C42.9494 53.2928 42.9576 53.2194 42.9799 53.1497C43.0033 53.0774 43.0409 53.0105 43.0905 52.9529C43.1402 52.8953 43.2008 52.8482 43.2689 52.8144L51.1596 48.8154C51.244 48.7722 51.3375 48.7497 51.4324 48.7497C51.5398 48.749 51.6454 48.7777 51.7377 48.8327C51.83 48.8878 51.9054 48.967 51.9558 49.0619L52.6358 50.3619L43.7227 54.9229L43.0174 53.5741ZM43.9924 58.5354L43.0314 56.6807L54.4455 50.84L55.4061 52.6941L43.9924 58.5354Z" fill="black"/>
<path d="M34.5943 26.5623C34.9361 26.5623 35.2131 26.2824 35.2131 25.9373C35.2131 25.5921 34.9361 25.3123 34.5943 25.3123C34.2526 25.3123 33.9756 25.5921 33.9756 25.9373C33.9756 26.2824 34.2526 26.5623 34.5943 26.5623Z" fill="black"/>
<path d="M29.026 51.5625C29.3677 51.5625 29.6447 51.2827 29.6447 50.9375C29.6447 50.5923 29.3677 50.3125 29.026 50.3125C28.6843 50.3125 28.4072 50.5923 28.4072 50.9375C28.4072 51.2827 28.6843 51.5625 29.026 51.5625Z" fill="black"/>
<path d="M30.3125 35.3125C30.3155 35.1498 30.2538 34.9925 30.1408 34.8753C30.0279 34.7581 29.873 34.6905 29.7103 34.6875H24.6647C24.5023 34.6926 24.3484 34.7607 24.2354 34.8774C24.1223 34.994 24.0591 35.1501 24.0591 35.3125C24.0591 35.4749 24.1223 35.631 24.2354 35.7476C24.3484 35.8643 24.5023 35.9324 24.6647 35.9375H29.7103C29.873 35.9345 30.0279 35.8669 30.1408 35.7497C30.2538 35.6325 30.3155 35.4752 30.3125 35.3125ZM29.7634 37.2353L28.3347 37.8197C28.2576 37.85 28.1874 37.8953 28.128 37.9529C28.0686 38.0106 28.0212 38.0795 27.9887 38.1557C27.9561 38.2318 27.939 38.3136 27.9383 38.3964C27.9377 38.4792 27.9535 38.5613 27.9848 38.6379C28.0162 38.7146 28.0624 38.7842 28.1209 38.8428C28.1794 38.9014 28.2489 38.9478 28.3255 38.9794C28.4021 39.0109 28.4841 39.0268 28.5669 39.0264C28.6497 39.0259 28.7316 39.0089 28.8078 38.9766L30.2366 38.3925C30.39 38.3298 30.5123 38.2086 30.5764 38.0558C30.6405 37.9029 30.6413 37.7308 30.5786 37.5773C30.5159 37.4239 30.3947 37.3016 30.2419 37.2375C30.089 37.1734 29.9169 37.1726 29.7634 37.2353ZM25.82 38.9728C25.742 39.0015 25.6706 39.0458 25.6101 39.1029C25.5497 39.16 25.5014 39.2287 25.4683 39.305C25.4353 39.3813 25.418 39.4635 25.4176 39.5466C25.4171 39.6298 25.4336 39.7121 25.4659 39.7887C25.5377 39.9442 25.6665 40.0661 25.8257 40.129C25.9849 40.192 26.1623 40.1912 26.3209 40.1269C26.399 40.0982 26.4704 40.054 26.5309 39.9969C26.5914 39.9398 26.6396 39.871 26.6728 39.7948C26.7059 39.7185 26.7232 39.6363 26.7237 39.5531C26.7241 39.4699 26.7076 39.3876 26.6753 39.3109C26.6035 39.1555 26.4746 39.0336 26.3154 38.9706C26.1561 38.9077 25.9787 38.9084 25.82 38.9728ZM24.1328 40.0006L23.7425 40.2475L23.3234 40.0816L23.4309 40.5112L23.125 40.8538L23.5819 40.8722L23.8116 41.25L23.9866 40.8319L24.4344 40.7228L24.0856 40.4456L24.1328 40.0006ZM28.3347 32.8053L29.7634 33.3897C29.8394 33.4208 29.9208 33.4365 30.0029 33.4362C30.085 33.4358 30.1663 33.4192 30.242 33.3875C30.3177 33.3557 30.3864 33.3093 30.4442 33.251C30.502 33.1926 30.5477 33.1235 30.5788 33.0475C30.6098 32.9715 30.6256 32.8901 30.6252 32.808C30.6248 32.7259 30.6083 32.6447 30.5765 32.569C30.5447 32.4933 30.4984 32.4246 30.44 32.3668C30.3817 32.309 30.3126 32.2633 30.2366 32.2322L28.8078 31.6481C28.6544 31.5854 28.4823 31.5862 28.3294 31.6503C28.1765 31.7145 28.0554 31.8367 27.9927 31.9902C27.9299 32.1436 27.9307 32.3157 27.9948 32.4686C28.059 32.6214 28.1812 32.7426 28.3347 32.8053ZM25.82 31.6522C25.9787 31.7166 26.1561 31.7173 26.3154 31.6544C26.4746 31.5914 26.6035 31.4695 26.6753 31.3141C26.7076 31.2374 26.7241 31.1551 26.7237 31.0719C26.7232 30.9887 26.7059 30.9065 26.6728 30.8302C26.6396 30.754 26.5914 30.6852 26.5309 30.6281C26.4704 30.571 26.399 30.5268 26.3209 30.4981C26.1623 30.4337 25.985 30.4329 25.8258 30.4958C25.6666 30.5587 25.5377 30.6805 25.4659 30.8359C25.4336 30.9126 25.4171 30.995 25.4174 31.0781C25.4178 31.1613 25.4351 31.2436 25.4682 31.3199C25.5013 31.3962 25.5496 31.465 25.61 31.5221C25.6705 31.5792 25.7419 31.6235 25.82 31.6522ZM23.3234 30.5434L23.7425 30.3775L24.1328 30.6244L24.0856 30.1794L24.4344 29.9022L23.9866 29.7931L23.8116 29.375L23.5819 29.7528L23.125 29.7712L23.4309 30.1137L23.3234 30.5434ZM46.2344 31.0544C46.2892 31.1155 46.3555 31.1653 46.4295 31.2008C46.5035 31.2363 46.5838 31.2569 46.6658 31.2613C46.7478 31.2658 46.8299 31.2541 46.9073 31.2268C46.9848 31.1996 47.0561 31.1573 47.1172 31.1025L51.0525 27.575C51.1735 27.4637 51.2457 27.3092 51.2536 27.1451C51.2615 26.9809 51.2044 26.8202 51.0947 26.6978C50.985 26.5754 50.8315 26.5012 50.6674 26.4912C50.5033 26.4812 50.3419 26.5362 50.2181 26.6444L46.2828 30.1719C46.1594 30.2825 46.0849 30.4376 46.0758 30.6031C46.0668 30.7686 46.1238 30.9309 46.2344 31.0544ZM49.6553 31.385L48.1856 31.9116C48.1084 31.9393 48.0373 31.9819 47.9765 32.0371C47.9157 32.0922 47.8664 32.1588 47.8313 32.2331C47.7963 32.3073 47.7762 32.3877 47.7722 32.4697C47.7682 32.5517 47.7804 32.6337 47.8081 32.7109C47.8358 32.7882 47.8785 32.8593 47.9336 32.9201C47.9888 32.9809 48.0554 33.0302 48.1296 33.0652C48.2039 33.1003 48.2843 33.1204 48.3663 33.1244C48.4483 33.1283 48.5302 33.1161 48.6075 33.0884L50.0772 32.5616C50.1554 32.5346 50.2274 32.4923 50.2891 32.4373C50.3509 32.3823 50.4011 32.3155 50.4368 32.241C50.4726 32.1664 50.4932 32.0855 50.4974 32.0029C50.5017 31.9203 50.4895 31.8377 50.4616 31.7598C50.4337 31.682 50.3906 31.6104 50.3348 31.5494C50.2791 31.4883 50.2117 31.4389 50.1367 31.404C50.0617 31.3691 49.9806 31.3495 49.8979 31.3463C49.8153 31.343 49.7328 31.3562 49.6553 31.385ZM52.7306 31.7463C52.8931 31.6883 53.0269 31.5697 53.1039 31.4153C53.1809 31.261 53.1952 31.0828 53.1437 30.9181C53.1156 30.839 53.0717 30.7663 53.0147 30.7046C52.9577 30.6428 52.8889 30.5932 52.8123 30.5587C52.7357 30.5242 52.6529 30.5055 52.5689 30.5038C52.4849 30.5021 52.4014 30.5174 52.3234 30.5487C52.1609 30.6067 52.0272 30.7253 51.9502 30.8796C51.8732 31.034 51.8589 31.2122 51.9103 31.3769C51.9385 31.456 51.9824 31.5287 52.0394 31.5904C52.0963 31.6522 52.1652 31.7018 52.2418 31.7363C52.3184 31.7708 52.4012 31.7895 52.4852 31.7912C52.5692 31.7929 52.6527 31.7776 52.7306 31.7463ZM54.5525 30.9197L54.9631 30.6994L55.3784 30.8934L55.2947 30.4569L55.625 30.1356L55.1628 30.0863L54.9519 29.6938L54.7497 30.0997L54.2887 30.1784L54.6263 30.4784L54.5525 30.9197ZM44.7275 29.3331C44.8014 29.3689 44.8816 29.3898 44.9635 29.3946C45.0454 29.3994 45.1275 29.388 45.2051 29.3611C45.2826 29.3341 45.3541 29.2922 45.4154 29.2376C45.4767 29.1831 45.5267 29.117 45.5625 29.0431L46.2397 27.6459C46.2755 27.5721 46.2964 27.4919 46.3012 27.4099C46.3059 27.328 46.2945 27.2459 46.2676 27.1684C46.2407 27.0908 46.1988 27.0194 46.1442 26.958C46.0897 26.8967 46.0236 26.8467 45.9497 26.8109C45.8758 26.7752 45.7956 26.7543 45.7137 26.7495C45.6317 26.7447 45.5497 26.7561 45.4721 26.783C45.3946 26.8099 45.3231 26.8519 45.2618 26.9064C45.2005 26.961 45.1505 27.0271 45.1147 27.1009L44.4375 28.4981C44.4017 28.572 44.3808 28.6522 44.376 28.7341C44.3712 28.8161 44.3826 28.8982 44.4096 28.9757C44.4365 29.0532 44.4784 29.1247 44.533 29.186C44.5875 29.2474 44.6536 29.2973 44.7275 29.3331ZM46.4819 25.4159C46.6411 25.4836 46.8202 25.4877 46.9823 25.4274C47.1444 25.3671 47.2773 25.2471 47.3537 25.0919C47.3928 25.0178 47.4164 24.9366 47.423 24.8532C47.4297 24.7697 47.4192 24.6858 47.3923 24.6066C47.3654 24.5273 47.3226 24.4543 47.2665 24.3922C47.2105 24.33 47.1423 24.2799 47.0662 24.245C46.907 24.1774 46.728 24.1733 46.5658 24.2335C46.4037 24.2938 46.2708 24.4139 46.1944 24.5691C46.1553 24.6431 46.1317 24.7243 46.1251 24.8078C46.1185 24.8912 46.1289 24.9751 46.1558 25.0544C46.1827 25.1336 46.2255 25.2066 46.2816 25.2688C46.3377 25.3309 46.4058 25.381 46.4819 25.4159ZM47.6572 22.8262L47.9238 23.1897L48.0494 22.7425L48.4769 22.5844L48.1047 22.3362L48.1019 21.875L47.7463 22.1688L47.3172 22.0419L47.4697 22.4716L47.2069 22.8544L47.6572 22.8262Z" fill="black"/>
</g>
<defs>
<clipPath id="clip0_137_1676">
<rect width="40" height="40" fill="white" transform="translate(20 20)"/>
</clipPath>
</defs>
</svg>
