<svg width="80" height="80" viewBox="0 0 80 80" fill="none" xmlns="http://www.w3.org/2000/svg">
<circle cx="40" cy="40" r="40" fill="white"/>
<g clip-path="url(#clip0_137_1711)">
<path d="M38.125 55.625H41.875V56.875H38.125V55.625ZM40 38.125C41.3597 38.125 42.689 37.7218 43.8195 36.9664C44.9501 36.2109 45.8313 35.1372 46.3517 33.881C46.872 32.6247 47.0082 31.2424 46.7429 29.9088C46.4776 28.5751 45.8228 27.3501 44.8614 26.3886C43.8999 25.4272 42.6749 24.7724 41.3412 24.5071C40.0076 24.2418 38.6253 24.378 37.3691 24.8983C36.1128 25.4187 35.0391 26.2999 34.2836 27.4305C33.5282 28.561 33.125 29.8903 33.125 31.25C33.1272 33.0727 33.8522 34.8201 35.141 36.109C36.4299 37.3978 38.1773 38.1229 40 38.125ZM40 25.625C41.1125 25.625 42.2001 25.9549 43.1251 26.573C44.0501 27.1911 44.7711 28.0696 45.1968 29.0974C45.6226 30.1252 45.734 31.2562 45.5169 32.3474C45.2999 33.4385 44.7641 34.4408 43.9775 35.2275C43.1908 36.0141 42.1885 36.5499 41.0974 36.7669C40.0062 36.984 38.8752 36.8726 37.8474 36.4468C36.8196 36.0211 35.9411 35.3001 35.323 34.3751C34.7049 33.4501 34.375 32.3625 34.375 31.25C34.3767 29.7587 34.9698 28.3289 36.0244 27.2744C37.0789 26.2198 38.5087 25.6267 40 25.625Z" fill="black"/>
<path d="M37.7793 34.3126L39.9999 33.1988L42.2205 34.3126C42.3357 34.3701 42.4657 34.3907 42.593 34.3715C42.7202 34.3523 42.8385 34.2943 42.9315 34.2054C43.0246 34.1165 43.0879 34.0011 43.1129 33.8748C43.1379 33.7486 43.1233 33.6177 43.0712 33.5001L40.5712 27.8751C40.5221 27.7645 40.442 27.6706 40.3406 27.6047C40.2392 27.5388 40.1209 27.5037 39.9999 27.5037C39.879 27.5037 39.7606 27.5388 39.6592 27.6047C39.5578 27.6706 39.4777 27.7645 39.4287 27.8751L36.9287 33.5001C36.8765 33.6177 36.8619 33.7486 36.8869 33.8748C36.9119 34.0011 36.9752 34.1165 37.0683 34.2054C37.1614 34.2943 37.2796 34.3523 37.4068 34.3715C37.5341 34.3907 37.6642 34.3701 37.7793 34.3126ZM39.9999 29.6638L41.2212 32.4138L40.2793 31.9426C40.1925 31.8992 40.0969 31.8767 39.9999 31.8767C39.9029 31.8767 39.8073 31.8992 39.7205 31.9426L38.7787 32.4138L39.9999 29.6638Z" fill="black"/>
<path d="M58.75 37.5H52.5V23.75C52.499 22.9215 52.1694 22.1272 51.5836 21.5414C50.9978 20.9556 50.2035 20.626 49.375 20.625H30.625C29.7965 20.626 29.0022 20.9556 28.4164 21.5414C27.8306 22.1272 27.501 22.9215 27.5 23.75V37.5H21.25C21.0842 37.5 20.9253 37.5658 20.8081 37.6831C20.6908 37.8003 20.625 37.9592 20.625 38.125V46.875C20.625 47.0408 20.6908 47.1997 20.8081 47.3169C20.9253 47.4342 21.0842 47.5 21.25 47.5H27.5V56.25C27.501 57.0785 27.8306 57.8728 28.4164 58.4586C29.0022 59.0444 29.7965 59.374 30.625 59.375H49.375C50.2035 59.374 50.9978 59.0444 51.5836 58.4586C52.1694 57.8728 52.499 57.0785 52.5 56.25V47.5H58.75C58.9158 47.5 59.0747 47.4342 59.1919 47.3169C59.3092 47.1997 59.375 47.0408 59.375 46.875V38.125C59.375 37.9592 59.3092 37.8003 59.1919 37.6831C59.0747 37.5658 58.9158 37.5 58.75 37.5ZM28.75 23.75C28.75 23.2527 28.9475 22.7758 29.2992 22.4242C29.6508 22.0725 30.1277 21.875 30.625 21.875H49.375C49.8723 21.875 50.3492 22.0725 50.7008 22.4242C51.0525 22.7758 51.25 23.2527 51.25 23.75V37.5H45C44.8342 37.5 44.6753 37.5658 44.5581 37.6831C44.4408 37.8003 44.375 37.9592 44.375 38.125V46.875C44.375 47.0408 44.4408 47.1997 44.5581 47.3169C44.6753 47.4342 44.8342 47.5 45 47.5H48.125V50C48.125 50.1236 48.1616 50.2444 48.2302 50.3472C48.2989 50.45 48.3964 50.5302 48.5106 50.5775C48.5865 50.6091 48.6678 50.6253 48.75 50.625C48.9157 50.625 49.0747 50.5591 49.1919 50.4419L51.25 48.3838V53.125H28.75V48.3838L30.8081 50.4419C30.9253 50.5591 31.0843 50.625 31.25 50.625C31.3322 50.6253 31.4135 50.6091 31.4894 50.5775C31.6036 50.5302 31.7011 50.45 31.7698 50.3472C31.8384 50.2444 31.875 50.1236 31.875 50V47.5H35C35.1658 47.5 35.3247 47.4342 35.4419 47.3169C35.5592 47.1997 35.625 47.0408 35.625 46.875V38.125C35.625 37.9592 35.5592 37.8003 35.4419 37.6831C35.3247 37.5658 35.1658 37.5 35 37.5H28.75V23.75ZM21.875 38.75H34.375V46.25H31.25C31.0842 46.25 30.9253 46.3158 30.8081 46.4331C30.6908 46.5503 30.625 46.7092 30.625 46.875V48.4912L28.5669 46.4331C28.4497 46.3159 28.2907 46.25 28.125 46.25H21.875V38.75ZM49.375 58.125H30.625C30.1277 58.125 29.6508 57.9275 29.2992 57.5758C28.9475 57.2242 28.75 56.7473 28.75 56.25V54.375H51.25V56.25C51.25 56.7473 51.0525 57.2242 50.7008 57.5758C50.3492 57.9275 49.8723 58.125 49.375 58.125ZM58.125 46.25H51.875C51.7093 46.25 51.5503 46.3159 51.4331 46.4331L49.375 48.4912V46.875C49.375 46.7092 49.3092 46.5503 49.1919 46.4331C49.0747 46.3158 48.9158 46.25 48.75 46.25H45.625V38.75H58.125V46.25Z" fill="black"/>
<path d="M23.125 40.625H33.125V41.875H23.125V40.625ZM23.125 43.125H33.125V44.375H23.125V43.125ZM46.875 40.625H56.875V41.875H46.875V40.625ZM46.875 43.125H56.875V44.375H46.875V43.125ZM36.25 48.125C35.8792 48.125 35.5166 48.235 35.2083 48.441C34.9 48.647 34.6596 48.9399 34.5177 49.2825C34.3758 49.6251 34.3387 50.0021 34.411 50.3658C34.4834 50.7295 34.662 51.0636 34.9242 51.3258C35.1864 51.588 35.5205 51.7666 35.8842 51.839C36.2479 51.9113 36.6249 51.8742 36.9675 51.7323C37.3101 51.5904 37.603 51.35 37.809 51.0417C38.015 50.7334 38.125 50.3708 38.125 50C38.125 49.5027 37.9275 49.0258 37.5758 48.6742C37.2242 48.3225 36.7473 48.125 36.25 48.125ZM36.25 50.625C36.1264 50.625 36.0055 50.5883 35.9028 50.5197C35.8 50.451 35.7199 50.3534 35.6726 50.2392C35.6253 50.125 35.6129 49.9993 35.637 49.8781C35.6611 49.7568 35.7206 49.6455 35.8081 49.5581C35.8955 49.4706 36.0068 49.4111 36.1281 49.387C36.2493 49.3629 36.375 49.3753 36.4892 49.4226C36.6034 49.4699 36.701 49.55 36.7697 49.6528C36.8383 49.7556 36.875 49.8764 36.875 50C36.875 50.1658 36.8092 50.3247 36.6919 50.4419C36.5747 50.5592 36.4158 50.625 36.25 50.625ZM41.875 50C41.875 50.3708 41.985 50.7334 42.191 51.0417C42.397 51.35 42.6899 51.5904 43.0325 51.7323C43.3751 51.8742 43.7521 51.9113 44.1158 51.839C44.4795 51.7666 44.8136 51.588 45.0758 51.3258C45.338 51.0636 45.5166 50.7295 45.589 50.3658C45.6613 50.0021 45.6242 49.6251 45.4823 49.2825C45.3404 48.9399 45.1 48.647 44.7917 48.441C44.4834 48.235 44.1208 48.125 43.75 48.125C43.2527 48.125 42.7758 48.3225 42.4242 48.6742C42.0725 49.0258 41.875 49.5027 41.875 50ZM44.375 50C44.375 50.1236 44.3383 50.2444 44.2697 50.3472C44.201 50.45 44.1034 50.5301 43.9892 50.5774C43.875 50.6247 43.7493 50.6371 43.6281 50.613C43.5068 50.5889 43.3955 50.5294 43.3081 50.4419C43.2206 50.3545 43.1611 50.2432 43.137 50.1219C43.1129 50.0007 43.1253 49.875 43.1726 49.7608C43.2199 49.6466 43.3 49.549 43.4028 49.4803C43.5056 49.4117 43.6264 49.375 43.75 49.375C43.9158 49.375 44.0747 49.4408 44.1919 49.5581C44.3092 49.6753 44.375 49.8342 44.375 50Z" fill="black"/>
</g>
<defs>
<clipPath id="clip0_137_1711">
<rect width="40" height="40" fill="white" transform="translate(20 20)"/>
</clipPath>
</defs>
</svg>
