<svg width="35" height="35" viewBox="0 0 35 35" fill="none" xmlns="http://www.w3.org/2000/svg">
<path d="M32.083 13.4896C31.7941 13.4934 31.518 13.6098 31.3137 13.8141C31.1094 14.0184 30.993 14.2944 30.9892 14.5834V23.3334L24.8934 16.3625C24.5061 15.9502 24.0384 15.6216 23.5192 15.397C23 15.1723 22.4403 15.0564 21.8746 15.0564C21.3089 15.0564 20.7492 15.1723 20.23 15.397C19.7109 15.6216 19.2432 15.9502 18.8559 16.3625L14.6705 21.1459L13.2996 19.4834C12.9219 19.0302 12.4492 18.6656 11.9149 18.4155C11.3806 18.1653 10.7979 18.0356 10.208 18.0356C9.61803 18.0356 9.0353 18.1653 8.50104 18.4155C7.96678 18.6656 7.49404 19.0302 7.1163 19.4834L4.01005 23.2313V8.75002C4.01389 7.49419 4.51448 6.29089 5.40249 5.40288C6.2905 4.51487 7.4938 4.01428 8.74963 4.01044H20.4163C20.7064 4.01044 20.9846 3.8952 21.1897 3.69009C21.3948 3.48497 21.51 3.20677 21.51 2.91669C21.51 2.62661 21.3948 2.34841 21.1897 2.14329C20.9846 1.93817 20.7064 1.82294 20.4163 1.82294H8.74963C6.91245 1.82294 5.15052 2.55275 3.85144 3.85183C2.55236 5.15091 1.82255 6.91284 1.82255 8.75002V26.25C1.81566 26.2738 1.81566 26.2991 1.82255 26.3229C1.84175 28.1474 2.58004 29.8907 3.87704 31.1741C5.17405 32.4574 6.92502 33.1772 8.74963 33.1771H26.2496C28.0667 33.1735 29.8096 32.456 31.1027 31.1793C32.3957 29.9026 33.1354 28.169 33.1621 26.3521V14.5834C33.1585 14.2969 33.044 14.023 32.8428 13.8191C32.6417 13.6152 32.3693 13.4971 32.083 13.4896ZM26.2496 30.9896H8.74963C7.55834 30.9858 6.41217 30.5335 5.53929 29.7228C4.66641 28.9121 4.13085 27.8024 4.03921 26.6146L8.74963 20.8834C8.92606 20.6868 9.14191 20.5296 9.38312 20.422C9.62433 20.3143 9.8855 20.2587 10.1496 20.2587C10.4138 20.2587 10.6749 20.3143 10.9161 20.422C11.1574 20.5296 11.3732 20.6868 11.5496 20.8834L13.7517 23.5375C13.8527 23.6603 13.9796 23.7593 14.1233 23.8274C14.267 23.8955 14.424 23.9309 14.583 23.9313C14.8979 23.9139 15.1947 23.7785 15.4142 23.5521L20.4309 17.8063C20.6094 17.6183 20.8242 17.4686 21.0624 17.3663C21.3006 17.264 21.5571 17.2113 21.8163 17.2113C22.0755 17.2113 22.332 17.264 22.5702 17.3663C22.8084 17.4686 23.0232 17.6183 23.2017 17.8063L30.8871 26.5563C30.8139 27.7432 30.2958 28.8589 29.4362 29.6807C28.5765 30.5024 27.4387 30.9698 26.2496 30.9896Z" fill="white"/>
<path d="M6.19727 10.2084C6.19727 11.0015 6.43247 11.7769 6.87314 12.4364C7.31381 13.0959 7.94015 13.61 8.67296 13.9135C9.40577 14.217 10.2121 14.2965 10.9901 14.1417C11.768 13.987 12.4826 13.605 13.0435 13.0441C13.6043 12.4833 13.9863 11.7687 14.141 10.9907C14.2958 10.2128 14.2164 9.40644 13.9128 8.67363C13.6093 7.94083 13.0953 7.31448 12.4358 6.87381C11.7762 6.43314 11.0009 6.19794 10.2077 6.19794C9.14405 6.19794 8.12399 6.62046 7.37189 7.37256C6.61979 8.12466 6.19727 9.14473 6.19727 10.2084ZM12.0306 10.2084C12.0306 10.5689 11.9237 10.9213 11.7234 11.2211C11.5231 11.5209 11.2384 11.7545 10.9053 11.8925C10.5722 12.0305 10.2057 12.0666 9.85205 11.9962C9.49844 11.9259 9.17362 11.7523 8.91869 11.4974C8.66375 11.2424 8.49013 10.9176 8.41979 10.564C8.34945 10.2104 8.38555 9.84385 8.52353 9.51075C8.6615 9.17766 8.89515 8.89296 9.19492 8.69265C9.4947 8.49235 9.84714 8.38544 10.2077 8.38544C10.6912 8.38544 11.1548 8.57749 11.4967 8.91936C11.8385 9.26122 12.0306 9.72489 12.0306 10.2084ZM23.3327 8.38544H26.6139V11.6667C26.6139 11.9568 26.7292 12.235 26.9343 12.4401C27.1394 12.6452 27.4176 12.7604 27.7077 12.7604C27.9978 12.7604 28.276 12.6452 28.4811 12.4401C28.6862 12.235 28.8014 11.9568 28.8014 11.6667V8.38544H32.0827C32.3728 8.38544 32.651 8.2702 32.8561 8.06509C33.0612 7.85997 33.1764 7.58177 33.1764 7.29169C33.1764 7.00161 33.0612 6.72341 32.8561 6.51829C32.651 6.31317 32.3728 6.19794 32.0827 6.19794H28.8014V2.91669C28.8014 2.62661 28.6862 2.34841 28.4811 2.14329C28.276 1.93817 27.9978 1.82294 27.7077 1.82294C27.4176 1.82294 27.1394 1.93817 26.9343 2.14329C26.7292 2.34841 26.6139 2.62661 26.6139 2.91669V6.19794H23.3327C23.0426 6.19794 22.7644 6.31317 22.5593 6.51829C22.3542 6.72341 22.2389 7.00161 22.2389 7.29169C22.2389 7.58177 22.3542 7.85997 22.5593 8.06509C22.7644 8.2702 23.0426 8.38544 23.3327 8.38544Z" fill="white"/>
</svg>
