<svg width="36" height="37" viewBox="0 0 36 37" fill="none" xmlns="http://www.w3.org/2000/svg">
<rect y="0.382812" width="36" height="36" rx="18" fill="white"/>
<path d="M20.9167 12.5493H15.0833C13.4725 12.5493 12.1667 13.8552 12.1667 15.466V21.2993C12.1667 22.9101 13.4725 24.216 15.0833 24.216H20.9167C22.5275 24.216 23.8333 22.9101 23.8333 21.2993V15.466C23.8333 13.8552 22.5275 12.5493 20.9167 12.5493Z" fill="#0A3C33"/>
<path d="M20.3333 18.0155C20.4053 18.501 20.3224 18.9968 20.0964 19.4324C19.8703 19.868 19.5127 20.2213 19.0743 20.442C18.6359 20.6626 18.1391 20.7394 17.6545 20.6614C17.17 20.5835 16.7224 20.3547 16.3753 20.0077C16.0283 19.6606 15.7995 19.213 15.7215 18.7284C15.6436 18.2439 15.7204 17.7471 15.941 17.3087C16.1617 16.8703 16.5149 16.5127 16.9506 16.2866C17.3862 16.0606 17.882 15.9777 18.3675 16.0497C18.8627 16.1231 19.3212 16.3538 19.6751 16.7078C20.0291 17.0618 20.2599 17.5203 20.3333 18.0155Z" stroke="white" stroke-linecap="round" stroke-linejoin="round"/>
<path d="M21.2083 15.1743H21.2142" stroke="white" stroke-width="2" stroke-linecap="round" stroke-linejoin="round"/>
</svg>
