<svg width="36" height="37" viewBox="0 0 36 37" fill="none" xmlns="http://www.w3.org/2000/svg">
<rect y="0.382812" width="36" height="36" rx="18" fill="white"/>
<path d="M20.3333 16.0493C21.2616 16.0493 22.1518 16.4181 22.8082 17.0744C23.4646 17.7308 23.8333 18.6211 23.8333 19.5493V23.6327H21.5V19.5493C21.5 19.2399 21.3771 18.9432 21.1583 18.7244C20.9395 18.5056 20.6428 18.3826 20.3333 18.3826C20.0239 18.3826 19.7272 18.5056 19.5084 18.7244C19.2896 18.9432 19.1667 19.2399 19.1667 19.5493V23.6327H16.8333V19.5493C16.8333 18.6211 17.2021 17.7308 17.8585 17.0744C18.5148 16.4181 19.4051 16.0493 20.3333 16.0493Z" fill="#0A3C33"/>
<path d="M14.5 16.6328H12.1667V23.6328H14.5V16.6328Z" fill="#0A3C33"/>
<path d="M13.3333 14.8826C13.9777 14.8826 14.5 14.3603 14.5 13.716C14.5 13.0717 13.9777 12.5493 13.3333 12.5493C12.689 12.5493 12.1667 13.0717 12.1667 13.716C12.1667 14.3603 12.689 14.8826 13.3333 14.8826Z" fill="#0A3C33"/>
</svg>
