<svg width="24" height="25" viewBox="0 0 24 25" fill="none" xmlns="http://www.w3.org/2000/svg">
<g clip-path="url(#clip0_75_251)">
<path d="M12.4999 2.69385C8.22235 2.69385 4.74243 6.17377 4.74243 10.4513C4.74243 11.8596 5.37398 13.3741 5.40045 13.438C5.60443 13.9221 6.0069 14.6742 6.29713 15.115L11.616 23.1741C11.8337 23.5045 12.1559 23.6938 12.4999 23.6938C12.844 23.6938 13.1662 23.5045 13.3838 23.1746L18.7032 15.115C18.9939 14.6742 19.3959 13.9221 19.5999 13.438C19.6263 13.3746 20.2574 11.86 20.2574 10.4513C20.2574 6.17377 16.7775 2.69385 12.4999 2.69385ZM18.7584 13.0839C18.5763 13.5178 18.2017 14.2174 17.9411 14.6126L12.6218 22.6721C12.5168 22.8314 12.4835 22.8314 12.3785 22.6721L7.05919 14.6126C6.79862 14.2174 6.42398 13.5174 6.24191 13.0834C6.23415 13.0647 5.65508 11.6706 5.65508 10.4513C5.65508 6.67709 8.72568 3.60649 12.4999 3.60649C16.2742 3.60649 19.3448 6.67709 19.3448 10.4513C19.3448 11.6725 18.7643 13.0702 18.7584 13.0839Z" fill="white" stroke="white"/>
<path d="M12.5 6.34473C10.2352 6.34473 8.39307 8.18736 8.39307 10.4516C8.39307 12.7159 10.2352 14.5585 12.5 14.5585C14.7647 14.5585 16.6069 12.7159 16.6069 10.4516C16.6069 8.18736 14.7647 6.34473 12.5 6.34473ZM12.5 13.6459C10.739 13.6459 9.30571 12.213 9.30571 10.4516C9.30571 8.69023 10.739 7.25737 12.5 7.25737C14.2609 7.25737 15.6942 8.69023 15.6942 10.4516C15.6942 12.213 14.2609 13.6459 12.5 13.6459Z" fill="white" stroke="white"/>
</g>
<defs>
<clipPath id="clip0_75_251">
<rect width="24" height="24" fill="white" transform="translate(0 0.547852)"/>
</clipPath>
</defs>
</svg>
