<svg width="167" height="42" viewBox="0 0 167 42" fill="none" xmlns="http://www.w3.org/2000/svg">
<g clip-path="url(#clip0_636_798)">
<path d="M48.6309 28.0316H60.5829V24.4316H52.8789V10.8716H48.6309V28.0316Z" fill="#264796"/>
<path d="M67.6641 25.6316C65.9601 25.6316 65.0721 24.1436 65.0721 21.9116C65.0721 19.6796 65.9601 18.1676 67.6641 18.1676C69.3681 18.1676 70.2801 19.6796 70.2801 21.9116C70.2801 24.1436 69.3681 25.6316 67.6641 25.6316ZM67.6881 28.4156C71.6481 28.4156 74.2401 25.6076 74.2401 21.9116C74.2401 18.2156 71.6481 15.4076 67.6881 15.4076C63.7521 15.4076 61.1121 18.2156 61.1121 21.9116C61.1121 25.6076 63.7521 28.4156 67.6881 28.4156Z" fill="#264796"/>
<path d="M81.0945 32.2796C82.9185 32.2796 84.5265 31.8716 85.6065 30.9116C86.5905 30.0236 87.2385 28.6796 87.2385 26.8316V15.7436H83.4945V17.0636H83.4465C82.7265 16.0316 81.6225 15.3836 79.9905 15.3836C76.9425 15.3836 74.8305 17.9276 74.8305 21.5276C74.8305 25.2956 77.3985 27.3596 80.1585 27.3596C81.6465 27.3596 82.5825 26.7596 83.3025 25.9436H83.3985V27.1676C83.3985 28.6556 82.7025 29.5196 81.0465 29.5196C79.7505 29.5196 79.1025 28.9676 78.8865 28.3196H75.0945C75.4785 30.8876 77.7105 32.2796 81.0945 32.2796ZM81.0705 24.4556C79.6065 24.4556 78.6465 23.2556 78.6465 21.4076C78.6465 19.5356 79.6065 18.3356 81.0705 18.3356C82.7025 18.3356 83.5665 19.7276 83.5665 21.3836C83.5665 23.1116 82.7745 24.4556 81.0705 24.4556Z" fill="#264796"/>
<path d="M94.9369 25.6316C93.2329 25.6316 92.3449 24.1436 92.3449 21.9116C92.3449 19.6796 93.2329 18.1676 94.9369 18.1676C96.6409 18.1676 97.5529 19.6796 97.5529 21.9116C97.5529 24.1436 96.6409 25.6316 94.9369 25.6316ZM94.9609 28.4156C98.9209 28.4156 101.513 25.6076 101.513 21.9116C101.513 18.2156 98.9209 15.4076 94.9609 15.4076C91.0249 15.4076 88.3849 18.2156 88.3849 21.9116C88.3849 25.6076 91.0249 28.4156 94.9609 28.4156Z" fill="#264796"/>
<path d="M102.655 28.0316H106.567V15.7436H102.655V28.0316ZM102.655 14.0396H106.567V10.8716H102.655V14.0396Z" fill="#264796"/>
<path d="M108.264 32.0876H112.176V26.7596H112.224C112.992 27.7916 114.12 28.4156 115.704 28.4156C118.92 28.4156 121.056 25.8716 121.056 21.8876C121.056 18.1916 119.064 15.3836 115.8 15.3836C114.12 15.3836 112.92 16.1276 112.08 17.2316H112.008V15.7436H108.264V32.0876ZM114.696 25.3916C113.016 25.3916 112.056 24.0236 112.056 22.0316C112.056 20.0396 112.92 18.5276 114.624 18.5276C116.304 18.5276 117.096 19.9196 117.096 22.0316C117.096 24.1196 116.184 25.3916 114.696 25.3916Z" fill="#264796"/>
<path d="M127.426 28.4156C130.642 28.4156 133.018 27.0236 133.018 24.3356C133.018 21.1916 130.474 20.6396 128.314 20.2796C126.754 19.9916 125.362 19.8716 125.362 19.0076C125.362 18.2396 126.106 17.8796 127.066 17.8796C128.146 17.8796 128.89 18.2156 129.034 19.3196H132.634C132.442 16.8956 130.57 15.3836 127.09 15.3836C124.186 15.3836 121.786 16.7276 121.786 19.3196C121.786 22.1996 124.066 22.7756 126.202 23.1356C127.834 23.4236 129.322 23.5436 129.322 24.6476C129.322 25.4396 128.578 25.8716 127.402 25.8716C126.106 25.8716 125.29 25.2716 125.146 24.0476H121.45C121.57 26.7596 123.826 28.4156 127.426 28.4156Z" fill="#264796"/>
<path d="M138.331 28.3916C140.035 28.3916 141.115 27.7196 142.003 26.5196H142.075V28.0316H145.819V15.7436H141.907V22.6076C141.907 24.0716 141.091 25.0796 139.747 25.0796C138.499 25.0796 137.899 24.3356 137.899 22.9916V15.7436H134.011V23.8076C134.011 26.5436 135.499 28.3916 138.331 28.3916Z" fill="#264796"/>
<path d="M147.521 28.0316H151.433V21.1436C151.433 19.6796 152.153 18.6476 153.377 18.6476C154.553 18.6476 155.105 19.4156 155.105 20.7356V28.0316H159.017V21.1436C159.017 19.6796 159.713 18.6476 160.961 18.6476C162.137 18.6476 162.689 19.4156 162.689 20.7356V28.0316H166.601V20.0396C166.601 17.2796 165.209 15.3836 162.425 15.3836C160.841 15.3836 159.521 16.0556 158.561 17.5436H158.513C157.889 16.2236 156.665 15.3836 155.057 15.3836C153.281 15.3836 152.105 16.2236 151.337 17.4956H151.265V15.7436H147.521V28.0316Z" fill="#264796"/>
<path fill-rule="evenodd" clip-rule="evenodd" d="M8.55261 3.83578C7.12195 4.83614 5.82825 6.01889 4.7052 7.35031C9.2945 6.92424 15.125 7.61996 21.8942 11.0046C29.1228 14.6188 34.9436 14.741 38.9946 13.9596C38.627 12.8467 38.1642 11.7771 37.6161 10.7603C32.9788 11.2494 27.0338 10.602 20.1054 7.13789C15.7058 4.93809 11.8276 4.03192 8.55261 3.83578ZM34.9072 6.90456C31.2451 2.81291 25.9232 0.237915 19.9998 0.237915C18.2603 0.237915 16.5725 0.460022 14.9635 0.877395C17.1427 1.472 19.4577 2.3419 21.8942 3.56018C26.9668 6.09644 31.3462 6.91307 34.9072 6.90456ZM39.8607 17.866C34.9667 18.8324 28.2086 18.6339 20.1054 14.5823C12.5298 10.7945 6.50031 10.8422 2.43378 11.7459C2.22388 11.7925 2.01892 11.8415 1.81891 11.8925C1.2865 13.0504 0.861512 14.268 0.55658 15.5324C0.882264 15.4454 1.21881 15.3627 1.56604 15.2855C6.49945 14.1892 13.4699 14.2368 21.8942 18.449C29.4699 22.2368 35.4994 22.1891 39.566 21.2854C39.7053 21.2545 39.8426 21.2225 39.9776 21.1895C39.9924 20.8742 39.9998 20.5569 39.9998 20.2379C39.9998 19.4354 39.9526 18.6439 39.8607 17.866ZM39.3246 25.4102C34.4781 26.2575 27.9168 25.9323 20.1054 22.0267C12.5298 18.2389 6.50031 18.2866 2.43378 19.1903C1.53113 19.3908 0.719117 19.6351 0.00280793 19.893C0.00085493 20.0077 -0.00012207 20.1227 -0.00012207 20.2379C-0.00012207 31.2836 8.95417 40.2379 19.9998 40.2379C29.2569 40.2379 37.0451 33.9488 39.3246 25.4102Z" fill="#264796"/>
</g>
<defs>
<clipPath id="clip0_636_798">
<rect width="167" height="41" fill="white" transform="translate(0 0.237793)"/>
</clipPath>
</defs>
</svg>
