<svg width="31" height="30" viewBox="0 0 31 30" fill="none" xmlns="http://www.w3.org/2000/svg">
<path d="M15.9995 25.4895C15.8148 25.4944 15.6327 25.4458 15.475 25.3495C15.0105 25.0635 14.869 24.4425 15.1485 23.9785C15.172 23.9375 18.0915 19.0655 23.6645 15.9995H1.99951C1.44801 15.9995 0.999512 15.551 0.999512 14.9995C0.999512 14.448 1.44801 13.9995 1.99951 13.9995H23.6645C18.1225 10.951 15.17 6.05751 15.141 6.00851C14.8675 5.54151 15.019 4.92001 15.4855 4.64351C15.9585 4.36301 16.5815 4.52551 16.864 5.00101C17.3185 5.72601 21.5805 12.2255 29.225 14.024C29.6825 14.1365 29.9995 14.537 29.9995 15C29.9995 15.463 29.6845 15.8645 29.2335 15.974C21.5565 17.779 17.309 24.287 16.85 25.0235C16.67 25.312 16.337 25.483 15.9995 25.4895Z" fill="#0A3C33"/>
</svg>
