<svg width="48" height="48" viewBox="0 0 48 48" fill="none" xmlns="http://www.w3.org/2000/svg">
<rect width="48" height="48" rx="24" fill="white"/>
<rect x="0.5" y="0.5" width="47" height="47" rx="23.5" stroke="black" stroke-opacity="0.1"/>
<path d="M21.4004 18.7275C21.2447 18.7247 21.092 18.7702 20.9633 18.858C20.8346 18.9457 20.7364 19.0713 20.6822 19.2173C20.6281 19.3633 20.6206 19.5226 20.6609 19.673C20.7012 19.8234 20.7873 19.9576 20.9072 20.057L25.4965 23.9858L20.9044 27.9146C20.8205 27.9758 20.7502 28.0537 20.6979 28.1434C20.6456 28.2331 20.6125 28.3326 20.6006 28.4358C20.5888 28.5389 20.5984 28.6434 20.6289 28.7426C20.6595 28.8418 20.7102 28.9336 20.7781 29.0123C20.8459 29.0909 20.9292 29.1546 21.0229 29.1994C21.1166 29.2441 21.2185 29.269 21.3223 29.2724C21.426 29.2758 21.5294 29.2577 21.6258 29.2191C21.7222 29.1806 21.8095 29.1225 21.8823 29.0485L27.1321 24.5612C27.2147 24.4907 27.281 24.4031 27.3264 24.3045C27.3719 24.2059 27.3954 24.0986 27.3954 23.9901C27.3954 23.8815 27.3719 23.7742 27.3264 23.6756C27.281 23.577 27.2147 23.4894 27.1321 23.4189L21.8823 18.9175C21.7493 18.799 21.5785 18.7317 21.4004 18.7275Z" fill="#1D1D1D"/>
</svg>
