<svg width="27" height="28" viewBox="0 0 27 28" fill="none" xmlns="http://www.w3.org/2000/svg">
<g clip-path="url(#clip0_75_241)">
<path d="M7.09395 12.333L6.83722 12.5898L7.00187 12.9134C8.67025 16.1922 11.357 18.8667 14.6333 20.5453L14.9573 20.7114L15.2148 20.4539L17.6898 17.9789C17.859 17.8097 18.109 17.7554 18.3216 17.8283L18.3216 17.8284L18.3269 17.8301C19.6374 18.263 21.0516 18.4966 22.5 18.4966C22.8426 18.4966 23.125 18.779 23.125 19.1216V23.0479C23.125 23.3905 22.8426 23.6729 22.5 23.6729C12.2124 23.6729 3.875 15.3355 3.875 5.04785C3.875 4.70524 4.15739 4.42285 4.5 4.42285H8.4375C8.78011 4.42285 9.0625 4.70524 9.0625 5.04785C9.0625 6.50627 9.29566 7.90784 9.72768 9.21698C9.79668 9.4401 9.74568 9.68131 9.56895 9.85805L7.09395 12.333Z" fill="white" stroke="white"/>
</g>
<defs>
<clipPath id="clip0_75_241">
<rect width="27" height="27" fill="white" transform="translate(0 0.547852)"/>
</clipPath>
</defs>
</svg>
