<svg width="31" height="30" viewBox="0 0 31 30" fill="none" xmlns="http://www.w3.org/2000/svg">
<path d="M15.0005 25.4895C15.1852 25.4944 15.3673 25.4458 15.525 25.3495C15.9895 25.0635 16.131 24.4425 15.8515 23.9785C15.828 23.9375 12.9085 19.0655 7.33549 15.9995H29.0005C29.552 15.9995 30.0005 15.551 30.0005 14.9995C30.0005 14.448 29.552 13.9995 29.0005 13.9995H7.33549C12.8775 10.951 15.83 6.05751 15.859 6.00851C16.1325 5.54151 15.981 4.92001 15.5145 4.64351C15.0415 4.36301 14.4185 4.52551 14.136 5.00101C13.6815 5.72601 9.41949 12.2255 1.77498 14.024C1.31748 14.1365 1.00048 14.537 1.00048 15C1.00048 15.463 1.31549 15.8645 1.76649 15.974C9.44349 17.779 13.691 24.287 14.15 25.0235C14.33 25.312 14.663 25.483 15.0005 25.4895Z" fill="#F0F0F0"/>
</svg>
