<svg width="48" height="48" viewBox="0 0 48 48" fill="none" xmlns="http://www.w3.org/2000/svg">
<rect width="48" height="48" rx="24" transform="matrix(-1 0 0 1 48 0)" fill="white"/>
<rect x="-0.5" y="0.5" width="47" height="47" rx="23.5" transform="matrix(-1 0 0 1 47 0)" stroke="black" stroke-opacity="0.1"/>
<path d="M26.9951 19.0001C27.1508 18.9972 27.3035 19.0428 27.4322 19.1306C27.5609 19.2183 27.6591 19.3439 27.7133 19.4899C27.7674 19.6359 27.7749 19.7952 27.7346 19.9456C27.6943 20.096 27.6082 20.2302 27.4883 20.3296L22.899 24.2584L27.4911 28.1872C27.575 28.2484 27.6453 28.3263 27.6976 28.416C27.7499 28.5056 27.783 28.6052 27.7949 28.7083C27.8067 28.8115 27.7971 28.916 27.7666 29.0152C27.736 29.1144 27.6853 29.2062 27.6175 29.2848C27.5496 29.3635 27.4663 29.4272 27.3726 29.4719C27.2789 29.5167 27.177 29.5416 27.0733 29.545C26.9695 29.5484 26.8661 29.5303 26.7698 29.4917C26.6734 29.4532 26.586 29.3951 26.5132 29.3211L21.2634 24.8338C21.1808 24.7633 21.1146 24.6757 21.0691 24.5771C21.0236 24.4785 21.0001 24.3712 21.0001 24.2626C21.0001 24.1541 21.0236 24.0468 21.0691 23.9482C21.1146 23.8496 21.1808 23.762 21.2634 23.6915L26.5132 19.1901C26.6462 19.0716 26.817 19.0043 26.9951 19.0001Z" fill="#1D1D1D"/>
</svg>
