<svg width="29" height="22" viewBox="0 0 29 22" fill="none" xmlns="http://www.w3.org/2000/svg">
<path d="M22.0616 13.2483C22.3683 13.2483 22.6625 13.2015 22.9554 13.1589C22.8605 13.4779 22.7629 13.8024 22.6061 14.0939C22.4494 14.5174 22.2046 14.8845 21.9613 15.2544C21.7578 15.6545 21.3989 15.9254 21.1349 16.2678C20.8585 16.6005 20.4818 16.8219 20.1834 17.0983C19.8905 17.387 19.5069 17.5314 19.2016 17.7349C18.8826 17.9178 18.6049 18.1199 18.3079 18.2162L17.5668 18.5214L16.915 18.7923L17.5819 21.457L18.4028 21.259C18.6654 21.193 18.9858 21.116 19.3501 21.0239C19.7228 20.9552 20.1201 20.7668 20.5629 20.5949C21.0001 20.3997 21.5061 20.2677 21.9764 19.9542C22.4494 19.6544 22.9953 19.4042 23.4765 19.0027C23.9426 18.5888 24.505 18.2299 24.9203 17.7033C25.374 17.211 25.8223 16.694 26.1701 16.1055C26.573 15.5445 26.8466 14.9285 27.1354 14.3194C27.3966 13.7103 27.607 13.0874 27.7789 12.4824C28.1048 11.2697 28.2505 10.1174 28.3069 9.13153C28.3536 8.14428 28.3261 7.32341 28.2684 6.72941C28.2478 6.44891 28.2093 6.17666 28.1818 5.98828L28.1474 5.75728L28.1116 5.76553C27.8671 4.62314 27.3041 3.57333 26.4878 2.73753C25.6715 1.90174 24.6353 1.31412 23.499 1.04265C22.3627 0.771177 21.1728 0.826948 20.0668 1.20351C18.9609 1.58007 17.9842 2.26204 17.2497 3.17052C16.5151 4.079 16.0528 5.17687 15.9162 6.33712C15.7795 7.49738 15.9742 8.67262 16.4776 9.72688C16.981 10.7811 17.7725 11.6713 18.7607 12.2945C19.7489 12.9177 20.8934 13.2484 22.0616 13.2483ZM6.93663 13.2483C7.24325 13.2483 7.5375 13.2015 7.83038 13.1589C7.7355 13.4779 7.63788 13.8024 7.48113 14.0939C7.32438 14.5174 7.07963 14.8845 6.83625 15.2544C6.63276 15.6545 6.27388 15.9254 6.00988 16.2678C5.73351 16.6005 5.35676 16.8219 5.05838 17.0983C4.7655 17.387 4.38188 17.5314 4.07663 17.7349C3.75763 17.9178 3.47988 18.1199 3.18288 18.2162L2.44176 18.5214L1.79 18.7923L2.45688 21.457L3.27776 21.259C3.54038 21.193 3.86075 21.116 4.22513 21.0239C4.59775 20.9552 4.99513 20.7668 5.43788 20.5949C5.87375 20.3983 6.38113 20.2677 6.85138 19.9528C7.32438 19.653 7.87025 19.4028 8.3515 19.0013C8.81763 18.5874 9.38 18.2285 9.79526 17.7033C10.249 17.211 10.6973 16.694 11.0451 16.1055C11.448 15.5445 11.7216 14.9285 12.0104 14.3194C12.2716 13.7103 12.482 13.0874 12.6539 12.4824C12.9798 11.2697 13.1255 10.1174 13.1819 9.13153C13.2286 8.14428 13.2011 7.32341 13.1434 6.72941C13.1228 6.44891 13.0843 6.17666 13.0568 5.98828L13.0224 5.75728L12.9866 5.76553C12.7421 4.62314 12.1791 3.57333 11.3628 2.73753C10.5465 1.90174 9.5103 1.31412 8.374 1.04265C7.2377 0.771177 6.04777 0.826948 4.94184 1.20351C3.83592 1.58007 2.8592 2.26204 2.12467 3.17052C1.39014 4.079 0.927816 5.17687 0.79118 6.33712C0.654545 7.49738 0.84918 8.67262 1.35257 9.72688C1.85596 10.7811 2.64754 11.6713 3.63573 12.2945C4.62393 12.9177 5.76835 13.2484 6.93663 13.2483Z" fill="#22A78F"/>
</svg>
