<svg width="24" height="24" viewBox="0 0 24 24" fill="none" xmlns="http://www.w3.org/2000/svg">
<path fill-rule="evenodd" clip-rule="evenodd" d="M7.98505 20.5904C7.47797 20.855 6.86453 20.8084 6.40326 20.4702C5.942 20.1319 5.71314 19.5609 5.81314 18.9977L6.62248 14.3588L3.21506 11.0934C2.79856 10.6962 2.64592 10.0958 2.82216 9.54793C2.99839 9.00004 3.47245 8.60122 4.0424 8.52134L8.77338 7.84506L10.9093 3.58428C11.1625 3.07329 11.6835 2.75002 12.2538 2.75002C12.8241 2.75002 13.3451 3.07329 13.5984 3.58428L15.7343 7.84506L20.4652 8.52134C21.0352 8.60122 21.5093 9.00004 21.6855 9.54793C21.8617 10.0958 21.7091 10.6962 21.2926 11.0934L17.8852 14.3588L18.6945 18.9987C18.7945 19.5619 18.5657 20.1329 18.1044 20.4712C17.6431 20.8094 17.0297 20.856 16.5226 20.5914L12.2538 18.3854L7.98505 20.5904Z" fill="#FFE923"/>
<path fill-rule="evenodd" clip-rule="evenodd" d="M12.2538 3.50002C11.9686 3.50002 11.7079 3.66172 11.5813 3.91732L11.5797 3.92039L9.44385 8.18116C9.33369 8.40091 9.12284 8.55272 8.87951 8.58751L4.14854 9.26379L4.14651 9.26408C3.86141 9.30404 3.62428 9.50353 3.53613 9.77759C3.44797 10.0516 3.52433 10.352 3.73266 10.5506L3.73398 10.5519L7.1414 13.8173C7.3218 13.9902 7.40426 14.2415 7.36132 14.4877L6.55198 19.1266L6.55159 19.1288C6.50157 19.4105 6.61604 19.6962 6.84677 19.8654C7.0775 20.0346 7.38435 20.0579 7.63799 19.9255L7.64086 19.924L11.9096 17.7191C12.1256 17.6075 12.3822 17.6076 12.5981 17.7192L16.8669 19.9251L16.8697 19.9265C17.1233 20.0589 17.4301 20.0356 17.6609 19.8664C17.8916 19.6972 18.0061 19.4115 17.9561 19.1298L17.9557 19.1276L17.1463 14.4876C17.1034 14.2415 17.1859 13.9901 17.3662 13.8173L20.7737 10.5519L20.775 10.5506C20.9833 10.352 21.0597 10.0516 20.9715 9.77759C20.8834 9.50353 20.6462 9.30404 20.3611 9.26408L20.3591 9.26379L15.6281 8.58751C15.3848 8.55272 15.174 8.40091 15.0638 8.18116L12.9264 3.91733C12.7997 3.66172 12.5391 3.50002 12.2538 3.50002ZM10.2381 3.24958C10.6182 2.48416 11.3991 2.00002 12.2538 2.00002C13.1085 2.00002 13.8894 2.48411 14.2695 3.24946L14.2704 3.25124L16.2289 7.15814L20.5693 7.7786L20.5705 7.77876C21.4248 7.89893 22.1353 8.49692 22.3995 9.31827C22.6636 10.1394 22.4352 11.0392 21.8115 11.6349L21.8102 11.6362L18.6927 14.6237L19.433 18.8676L19.4332 18.8689C19.5826 19.7131 19.2393 20.569 18.5479 21.076C17.8566 21.583 16.9373 21.6531 16.1771 21.2571L16.1756 21.2562L12.2537 19.2296L8.3321 21.2552L8.33026 21.2562C7.57011 21.6521 6.651 21.5819 5.95975 21.075C5.26827 20.5679 4.92503 19.712 5.07448 18.8678L5.07469 18.8666L5.81493 14.6237L2.69746 11.6362L2.69662 11.6354C2.07259 11.0397 1.84399 10.1396 2.10818 9.31827C2.37239 8.4969 3.0829 7.8989 3.93725 7.77875L3.9383 7.7786L8.27876 7.15814L10.2381 3.24958Z" fill="#FFE923"/>
</svg>
