<svg width="133" height="26" viewBox="0 0 133 26" fill="none" xmlns="http://www.w3.org/2000/svg">
<path d="M12.5 0.737793L15.3064 9.37508H24.3882L17.0409 14.7132L19.8473 23.3505L12.5 18.0124L5.15268 23.3505L7.95911 14.7132L0.611794 9.37508H9.69357L12.5 0.737793Z" fill="#FE9F39"/>
<path d="M39.5 0.737793L42.3064 9.37508H51.3882L44.0409 14.7132L46.8473 23.3505L39.5 18.0124L32.1527 23.3505L34.9591 14.7132L27.6118 9.37508H36.6936L39.5 0.737793Z" fill="#FE9F39"/>
<path d="M66.5 0.737793L69.3064 9.37508H78.3882L71.0409 14.7132L73.8473 23.3505L66.5 18.0124L59.1527 23.3505L61.9591 14.7132L54.6118 9.37508H63.6936L66.5 0.737793Z" fill="#FE9F39"/>
<path d="M93.5 0.737793L96.3064 9.37508H105.388L98.0409 14.7132L100.847 23.3505L93.5 18.0124L86.1527 23.3505L88.9591 14.7132L81.6118 9.37508H90.6936L93.5 0.737793Z" fill="#FE9F39"/>
<path d="M120.5 0.737793L123.306 9.37508H132.388L125.041 14.7132L127.847 23.3505L120.5 18.0124L113.153 23.3505L115.959 14.7132L108.612 9.37508H117.694L120.5 0.737793Z" fill="#E9E9E9"/>
</svg>
