<svg width="24" height="24" viewBox="0 0 24 24" fill="none" xmlns="http://www.w3.org/2000/svg">
<path fill-rule="evenodd" clip-rule="evenodd" d="M12.005 3.74733C11.7198 3.74733 11.4592 3.90903 11.3325 4.16464L11.331 4.1677L9.19507 8.42847C9.08491 8.64822 8.87407 8.80004 8.63073 8.83482L3.89976 9.51111L3.89773 9.51139C3.61263 9.55135 3.3755 9.75085 3.28735 10.0249C3.19919 10.299 3.27555 10.5993 3.48388 10.798L3.4852 10.7992L6.89262 14.0646C7.07302 14.2375 7.15548 14.4888 7.11254 14.735L6.3032 19.3739L6.30281 19.3761C6.25279 19.6579 6.36726 19.9435 6.59799 20.1127C6.82872 20.2819 7.13557 20.3052 7.38921 20.1728L7.39208 20.1713L11.6609 17.9664C11.8768 17.8549 12.1334 17.8549 12.3494 17.9665L16.6181 20.1724L16.6209 20.1738C16.8745 20.3062 17.1814 20.2829 17.4121 20.1137C17.6428 19.9445 17.7573 19.6589 17.7073 19.3771L17.7069 19.3749L16.8975 14.735C16.8546 14.4888 16.9371 14.2375 17.1175 14.0646L20.5249 10.7992L20.5262 10.798C20.7345 10.5993 20.8109 10.299 20.7227 10.0249C20.6346 9.75085 20.3975 9.55135 20.1124 9.51139L20.1103 9.51111L15.3794 8.83482C15.136 8.80004 14.9252 8.64822 14.815 8.42847L12.6776 4.16464C12.5509 3.90904 12.2903 3.74733 12.005 3.74733ZM9.98931 3.49689C10.3694 2.73147 11.1503 2.24733 12.005 2.24733C12.8597 2.24733 13.6406 2.73142 14.0207 3.49678C14.021 3.49737 14.0213 3.49796 14.0216 3.49856L15.9801 7.40545L20.3206 8.02591C20.3209 8.02596 20.3213 8.02602 20.3217 8.02607C21.176 8.14625 21.8865 8.74423 22.1507 9.56558C22.4148 10.3867 22.1864 11.2865 21.5627 11.8822C21.5627 11.8822 21.5627 11.8822 21.5627 11.8822C21.5623 11.8826 21.5618 11.8831 21.5614 11.8835L18.4439 14.871L19.1842 19.1149C19.1843 19.1153 19.1843 19.1158 19.1844 19.1162C19.3338 19.9605 18.9906 20.8163 18.2991 21.3233C17.6078 21.8303 16.6886 21.9004 15.9284 21.5044C15.9278 21.5041 15.9273 21.5038 15.9268 21.5036L12.005 19.4769L8.08332 21.5026C8.08271 21.5029 8.08209 21.5032 8.08148 21.5035C7.32133 21.8994 6.40222 21.8292 5.71097 21.3223C5.01949 20.8153 4.67625 19.9594 4.8257 19.1151C4.82577 19.1147 4.82584 19.1143 4.82591 19.1139L5.56615 14.871L2.44868 11.8835C2.4484 11.8832 2.44812 11.883 2.44784 11.8827C1.82381 11.287 1.59521 10.3869 1.8594 9.56558C2.12361 8.74421 2.83412 8.14621 3.68847 8.02606C3.68882 8.02601 3.68917 8.02596 3.68952 8.02591L8.02998 7.40545L9.98931 3.49689Z" fill="#D6D6D6"/>
</svg>
