<svg width="24" height="24" viewBox="0 0 24 24" fill="none" xmlns="http://www.w3.org/2000/svg">
<path fill-rule="evenodd" clip-rule="evenodd" d="M12.005 3.74734C11.7198 3.74734 11.4592 3.90905 11.3325 4.16465L11.331 4.16772L9.19507 8.42849C9.08491 8.64824 8.87407 8.80005 8.63073 8.83484L3.89976 9.51112L3.89773 9.51141C3.61263 9.55137 3.3755 9.75086 3.28735 10.0249C3.19919 10.299 3.27555 10.5993 3.48388 10.798L3.4852 10.7992L6.89262 14.0646C7.07302 14.2375 7.15548 14.4889 7.11254 14.735L6.3032 19.3739L6.30281 19.3762C6.25279 19.6579 6.36726 19.9435 6.59799 20.1127C6.82872 20.2819 7.13557 20.3052 7.38921 20.1728L7.39208 20.1713L11.6609 17.9664C11.8768 17.8549 12.1334 17.8549 12.3494 17.9665L16.6181 20.1724L16.6209 20.1738C16.8745 20.3062 17.1814 20.2829 17.4121 20.1137C17.6428 19.9445 17.7573 19.6589 17.7073 19.3772L17.7069 19.3749L16.8975 14.735C16.8546 14.4888 16.9371 14.2375 17.1175 14.0646L20.5249 10.7992L20.5262 10.798C20.7345 10.5993 20.8109 10.299 20.7227 10.0249C20.6346 9.75086 20.3975 9.55137 20.1124 9.51141L20.1103 9.51112L15.3794 8.83484C15.136 8.80005 14.9252 8.64824 14.815 8.42849L12.6776 4.16466C12.5509 3.90905 12.2903 3.74734 12.005 3.74734ZM9.98931 3.49691C10.3694 2.73149 11.1503 2.24734 12.005 2.24734C12.8597 2.24734 13.6406 2.73144 14.0207 3.49679L14.0216 3.49857L15.9801 7.40547L20.3206 8.02593L20.3217 8.02608C21.176 8.14626 21.8865 8.74425 22.1507 9.5656C22.4148 10.3867 22.1864 11.2865 21.5627 11.8822L21.5614 11.8835L18.4439 14.871L19.1842 19.1149L19.1844 19.1162C19.3338 19.9605 18.9906 20.8163 18.2991 21.3233C17.6078 21.8303 16.6886 21.9004 15.9284 21.5044L15.9268 21.5036L12.005 19.477L8.08332 21.5026L8.08148 21.5035C7.32133 21.8994 6.40222 21.8292 5.71097 21.3223C5.01949 20.8153 4.67625 19.9594 4.8257 19.1151L4.82591 19.1139L5.56615 14.871L2.44868 11.8835L2.44784 11.8827C1.82381 11.287 1.59521 10.3869 1.8594 9.5656C2.12361 8.74423 2.83412 8.14623 3.68847 8.02608L3.68952 8.02593L8.02998 7.40547L9.98931 3.49691Z" fill="#FFE923"/>
<path d="M12.0001 2.99734C11.4317 2.99921 10.913 3.32209 10.6605 3.8316L8.52457 8.09238L3.7936 8.76866C3.22364 8.84854 2.74959 9.24737 2.57335 9.79525C2.39712 10.3431 2.54976 10.9435 2.96626 11.3407L6.37368 14.6061L5.56434 19.245C5.46433 19.8082 5.69319 20.3793 6.15446 20.7175C6.61573 21.0558 7.22917 21.1024 7.73624 20.8377L12.0001 18.6353V2.99734Z" fill="#FFE923"/>
</svg>
