<svg width="36" height="37" viewBox="0 0 36 37" fill="none" xmlns="http://www.w3.org/2000/svg">
<rect y="0.382812" width="36" height="36" rx="18" fill="white"/>
<path d="M24.4167 13.1328C23.8581 13.5268 23.2396 13.8282 22.585 14.0253C22.2337 13.6214 21.7668 13.3351 21.2474 13.2051C20.7281 13.0752 20.1814 13.1078 19.6812 13.2988C19.1811 13.4897 18.7516 13.8296 18.4509 14.2725C18.1502 14.7154 17.9928 15.24 18 15.7753V16.3587C16.9749 16.3852 15.9591 16.1579 15.0431 15.6968C14.1271 15.2358 13.3394 14.5554 12.75 13.7162C12.75 13.7162 10.4167 18.9662 15.6667 21.2995C14.4653 22.115 13.0342 22.5239 11.5833 22.4662C16.8333 25.3828 23.25 22.4662 23.25 15.7578C23.2495 15.5953 23.2339 15.4332 23.2033 15.2737C23.7987 14.6865 24.2188 13.9452 24.4167 13.1328Z" fill="#0A3C33"/>
</svg>
