<svg width="85" height="86" viewBox="0 0 85 86" fill="none" xmlns="http://www.w3.org/2000/svg">
<circle cx="42.5" cy="43" r="42.5" fill="#D9D9D9"/>
<path d="M58.9186 47.625C58.587 47.625 58.2691 47.7567 58.0347 47.9911C57.8003 48.2255 57.6686 48.5435 57.6686 48.875V53.1438C57.6686 54.1499 57.2689 55.1149 56.5574 55.8263C55.8459 56.5378 54.881 56.9375 53.8748 56.9375H32.1248C31.1186 56.9375 30.1537 56.5378 29.4422 55.8263C28.7308 55.1149 28.3311 54.1499 28.3311 53.1438V48.875C28.3311 48.5435 28.1994 48.2255 27.9649 47.9911C27.7305 47.7567 27.4126 47.625 27.0811 47.625C26.7495 47.625 26.4316 47.7567 26.1972 47.9911C25.9628 48.2255 25.8311 48.5435 25.8311 48.875V53.1438C25.8327 54.8124 26.4963 56.4123 27.6763 57.5923C28.8562 58.7722 30.4561 59.4358 32.1248 59.4375H53.8748C55.5435 59.4358 57.1434 58.7722 58.3233 57.5923C59.5033 56.4123 60.1669 54.8124 60.1686 53.1438V48.875C60.1686 48.5435 60.0369 48.2255 59.8024 47.9911C59.568 47.7567 59.2501 47.625 58.9186 47.625Z" fill="white"/>
<path d="M36.7496 36.8125L41.7496 31.8125V50.375C41.7496 50.7065 41.8813 51.0245 42.1157 51.2589C42.3501 51.4933 42.6681 51.625 42.9996 51.625C43.3311 51.625 43.6491 51.4933 43.8835 51.2589C44.1179 51.0245 44.2496 50.7065 44.2496 50.375V31.8312L49.2496 36.8312C49.3657 36.9474 49.5036 37.0395 49.6553 37.1024C49.8071 37.1652 49.9697 37.1976 50.134 37.1976C50.2982 37.1976 50.4608 37.1652 50.6126 37.1024C50.7643 37.0395 50.9022 36.9474 51.0183 36.8312C51.1345 36.7151 51.2266 36.5772 51.2895 36.4255C51.3523 36.2738 51.3847 36.1111 51.3847 35.9469C51.3847 35.7826 51.3523 35.62 51.2895 35.4683C51.2266 35.3165 51.1345 35.1786 51.0183 35.0625L43.8871 27.9312C43.7133 27.7627 43.4975 27.644 43.2621 27.5875C43.0598 27.5503 42.8515 27.562 42.6547 27.6218C42.4578 27.6816 42.2782 27.7877 42.1308 27.9312L34.9996 35.0437C34.8011 35.2825 34.6987 35.5866 34.7121 35.8968C34.7256 36.207 34.854 36.5011 35.0724 36.7218C35.2907 36.9426 35.5834 37.0741 35.8935 37.0909C36.2035 37.1076 36.5087 37.0084 36.7496 36.8125Z" fill="white"/>
</svg>
