<svg width="35" height="35" viewBox="0 0 35 35" fill="none" xmlns="http://www.w3.org/2000/svg">
<path d="M31.4291 21.1094C31.139 21.1094 30.8608 21.2246 30.6557 21.4297C30.4506 21.6348 30.3354 21.913 30.3354 22.2031V25.9383C30.3354 26.8187 29.9856 27.663 29.3631 28.2855C28.7406 28.9081 27.8962 29.2578 27.0158 29.2578H7.98457C7.10418 29.2578 6.25984 28.9081 5.63731 28.2855C5.01477 27.663 4.66504 26.8187 4.66504 25.9383V22.2031C4.66504 21.913 4.5498 21.6348 4.34469 21.4297C4.13957 21.2246 3.86137 21.1094 3.57129 21.1094C3.28121 21.1094 3.00301 21.2246 2.79789 21.4297C2.59277 21.6348 2.47754 21.913 2.47754 22.2031V25.9383C2.47899 27.3984 3.05965 28.7983 4.09211 29.8307C5.12456 30.8632 6.52446 31.4439 7.98457 31.4453H27.0158C28.4759 31.4439 29.8758 30.8632 30.9083 29.8307C31.9407 28.7983 32.5214 27.3984 32.5229 25.9383V22.2031C32.5229 21.913 32.4076 21.6348 32.2025 21.4297C31.9974 21.2246 31.7192 21.1094 31.4291 21.1094Z" fill="#1D1D1D"/>
<path d="M12.0319 11.6485L16.4069 7.27347V23.5157C16.4069 23.8057 16.5221 24.0839 16.7272 24.2891C16.9323 24.4942 17.2105 24.6094 17.5006 24.6094C17.7907 24.6094 18.0689 24.4942 18.274 24.2891C18.4791 24.0839 18.5944 23.8057 18.5944 23.5157V7.28988L22.9694 11.6649C23.071 11.7665 23.1916 11.8471 23.3244 11.9021C23.4572 11.9571 23.5995 11.9854 23.7432 11.9854C23.8869 11.9854 24.0292 11.9571 24.162 11.9021C24.2948 11.8471 24.4154 11.7665 24.517 11.6649C24.6186 11.5633 24.6993 11.4426 24.7542 11.3098C24.8092 11.1771 24.8376 11.0348 24.8376 10.8911C24.8376 10.7473 24.8092 10.605 24.7542 10.4723C24.6993 10.3395 24.6186 10.2188 24.517 10.1172L18.2772 3.87738C18.1251 3.7299 17.9363 3.62602 17.7303 3.5766C17.5533 3.54401 17.371 3.55432 17.1988 3.60665C17.0266 3.65898 16.8694 3.75182 16.7405 3.87738L10.5006 10.1008C10.327 10.3098 10.2373 10.5759 10.2491 10.8473C10.2608 11.1187 10.3732 11.376 10.5643 11.5692C10.7554 11.7623 11.0115 11.8774 11.2828 11.892C11.5541 11.9067 11.8211 11.8199 12.0319 11.6485Z" fill="#1D1D1D"/>
</svg>
