<svg width="60" height="60" viewBox="0 0 60 60" fill="none" xmlns="http://www.w3.org/2000/svg">
<g clip-path="url(#clip0_313_367)">
<path d="M51.8182 0H8.18182C3.66312 0 0 3.66312 0 8.18182V51.8182C0 56.3369 3.66312 60 8.18182 60H51.8182C56.3369 60 60 56.3369 60 51.8182V8.18182C60 3.66312 56.3369 0 51.8182 0Z" fill="#29A71A"/>
<path d="M43.2275 16.7727C40.1062 13.6203 35.9612 11.6871 31.5401 11.3217C27.119 10.9563 22.7128 12.1828 19.1164 14.7799C15.5199 17.3771 12.9699 21.1739 11.9264 25.4856C10.8828 29.7973 11.4144 34.34 13.4252 38.2943L11.4513 47.8773C11.4309 47.9727 11.4303 48.0712 11.4496 48.1669C11.469 48.2625 11.5079 48.3531 11.5638 48.433C11.6458 48.5542 11.7629 48.6476 11.8993 48.7006C12.0358 48.7536 12.1851 48.7637 12.3275 48.7295L21.7195 46.5034C25.6627 48.4633 30.1733 48.9607 34.4488 47.9071C38.7243 46.8534 42.4873 44.3171 45.0682 40.7494C47.6492 37.1817 48.8807 32.8141 48.5436 28.4236C48.2066 24.0331 46.3228 19.9046 43.2275 16.7727ZM40.2991 40.1455C38.1395 42.299 35.3586 43.7205 32.3483 44.2098C29.3379 44.6991 26.25 44.2314 23.5195 42.8727L22.2104 42.225L16.4525 43.5886L16.4695 43.5171L17.6627 37.7216L17.0218 36.4568C15.6267 33.7168 15.1345 30.6056 15.6158 27.5688C16.0972 24.532 17.5273 21.7254 19.7013 19.5511C22.4331 16.8203 26.1376 15.2861 30.0002 15.2861C33.8628 15.2861 37.5673 16.8203 40.2991 19.5511C40.3223 19.5778 40.3474 19.6029 40.3741 19.6261C43.0719 22.3641 44.578 26.0575 44.5639 29.9013C44.5499 33.745 43.0169 37.4273 40.2991 40.1455Z" fill="white"/>
<path d="M39.7879 35.8943C39.0822 37.0057 37.9674 38.3659 36.5663 38.7034C34.1117 39.2966 30.3447 38.7239 25.6572 34.3534L25.5992 34.3023C21.4777 30.4807 20.4072 27.3 20.6663 24.7773C20.8095 23.3455 22.0027 22.05 23.0083 21.2045C23.1673 21.0688 23.3559 20.9722 23.5589 20.9224C23.7619 20.8726 23.9737 20.871 24.1775 20.9177C24.3812 20.9644 24.5712 21.0582 24.7323 21.1915C24.8933 21.3247 25.0209 21.4938 25.1049 21.6852L26.622 25.0943C26.7206 25.3154 26.7571 25.5591 26.7277 25.7993C26.6982 26.0396 26.6039 26.2672 26.4549 26.458L25.6879 27.4534C25.5233 27.659 25.424 27.909 25.4027 28.1715C25.3815 28.434 25.4392 28.6968 25.5686 28.9261C25.9981 29.6795 27.0277 30.7875 28.1697 31.8136C29.4515 32.9727 30.8731 34.033 31.7731 34.3943C32.0139 34.4927 32.2787 34.5167 32.5333 34.4632C32.7879 34.4098 33.0206 34.2813 33.2015 34.0943L34.0913 33.1977C34.263 33.0284 34.4765 32.9077 34.71 32.8478C34.9436 32.7879 35.1889 32.791 35.4208 32.8568L39.0242 33.8795C39.223 33.9405 39.4052 34.0461 39.5569 34.1883C39.7086 34.3305 39.8258 34.5055 39.8995 34.6999C39.9731 34.8943 40.0014 35.103 39.9821 35.3101C39.9627 35.5171 39.8963 35.7169 39.7879 35.8943Z" fill="white"/>
</g>
<defs>
<clipPath id="clip0_313_367">
<rect width="60" height="60" fill="white"/>
</clipPath>
</defs>
</svg>
