<svg width="80" height="81" viewBox="0 0 80 81" fill="none" xmlns="http://www.w3.org/2000/svg">
<circle cx="40" cy="40.7378" r="40" fill="white"/>
<g clip-path="url(#clip0_580_790)">
<path d="M59.1666 37.6665H52.1051L43.1869 24.6945C42.9265 24.3152 42.408 24.22 42.028 24.4796C41.6488 24.7409 41.5528 25.2592 41.8132 25.6384L50.0824 37.6664H29.9176L38.1869 25.6385C38.4473 25.2593 38.3512 24.7409 37.972 24.4797C37.5945 24.2201 37.0752 24.3153 36.8132 24.6945L27.8949 37.6665H20.8334C20.7239 37.6664 20.6155 37.6879 20.5144 37.7298C20.4132 37.7716 20.3213 37.833 20.2439 37.9104C20.1665 37.9878 20.1051 38.0797 20.0633 38.1809C20.0214 38.282 19.9999 38.3904 20 38.4999C19.9999 38.6093 20.0214 38.7177 20.0633 38.8189C20.1051 38.92 20.1665 39.0119 20.2439 39.0893C20.3213 39.1667 20.4132 39.2281 20.5144 39.2699C20.6155 39.3118 20.7239 39.3333 20.8334 39.3332H21.8906L26.9849 55.344C27.4277 56.7331 28.7037 57.6666 30.1612 57.6666H49.8389C51.2964 57.6666 52.5725 56.7331 53.0152 55.3431L58.1094 39.3332H59.1667C59.2762 39.3333 59.3846 39.3118 59.4857 39.2699C59.5869 39.2281 59.6788 39.1667 59.7562 39.0893C59.8336 39.0119 59.8949 38.92 59.9368 38.8189C59.9786 38.7177 60.0001 38.6093 60.0001 38.4999C60.0001 38.3904 59.9786 38.282 59.9367 38.1809C59.8949 38.0797 59.8335 37.9878 59.7561 37.9104C59.6787 37.833 59.5868 37.7717 59.4856 37.7298C59.3845 37.6879 59.2761 37.6664 59.1666 37.6665ZM51.4266 54.8377C51.2052 55.5327 50.5672 55.9999 49.8388 55.9999H30.1612C29.4328 55.9999 28.7948 55.5327 28.5734 54.8385L23.6398 39.3331H56.3603L51.4266 54.8377Z" fill="black"/>
<path d="M46.1405 42.8713C44.7271 41.9662 43.1376 41.3715 41.4771 41.1267C39.8166 40.8819 38.1231 40.9926 36.5086 41.4514C34.8941 41.9102 33.3955 42.7066 32.1119 43.788C30.8283 44.8694 29.789 46.2111 29.0628 47.7243C29.0215 47.8103 29 47.9045 29 48C29 48.0954 29.0215 48.1896 29.0628 48.2757C30.0178 50.2592 31.5041 51.9391 33.3565 53.1287C35.2645 54.3506 37.4828 55 39.7485 55C42.0143 55 44.2325 54.3506 46.1405 53.1287C47.9931 51.9391 49.4795 50.2592 50.4346 48.2757C50.4759 48.1896 50.4973 48.0954 50.4973 48C50.4973 47.9045 50.4759 47.8103 50.4346 47.7243C49.4795 45.7408 47.993 44.0609 46.1405 42.8713ZM45.453 52.0575C43.7501 53.1477 41.7705 53.7272 39.7485 53.7272C37.7266 53.7272 35.7469 53.1477 34.0441 52.0575C32.4805 51.051 31.2083 49.6519 30.3544 48C31.2083 46.3481 32.4805 44.949 34.0441 43.9425C35.7469 42.8522 37.7266 42.2728 39.7485 42.2728C41.7705 42.2728 43.7501 42.8522 45.453 43.9425C47.0166 44.949 48.2888 46.3481 49.1427 48C48.2888 49.6519 47.0166 51.051 45.453 52.0575Z" fill="#231F20" stroke="black" stroke-width="0.25"/>
<path d="M39.7485 43.1212C38.7836 43.1212 37.8404 43.4073 37.0381 43.9434C36.2358 44.4795 35.6104 45.2415 35.2412 46.1329C34.8719 47.0244 34.7753 48.0053 34.9636 48.9517C35.1518 49.8981 35.6165 50.7674 36.2988 51.4497C36.9811 52.132 37.8504 52.5966 38.7967 52.7849C39.7431 52.9731 40.7241 52.8765 41.6155 52.5073C42.507 52.138 43.2689 51.5127 43.805 50.7104C44.3411 49.9081 44.6272 48.9648 44.6272 47.9999C44.6272 46.706 44.1131 45.4652 43.1982 44.5502C42.2833 43.6353 41.0424 43.1213 39.7485 43.1212ZM42.2983 50.5497C41.7084 51.1396 40.9322 51.5067 40.1019 51.5884C39.2717 51.6701 38.4388 51.4614 37.7452 50.9978C37.0516 50.5343 36.5401 49.8446 36.298 49.0462C36.0559 48.2479 36.0981 47.3903 36.4174 46.6196C36.7367 45.8488 37.3134 45.2127 38.0491 44.8195C38.7849 44.4262 39.6343 44.3003 40.4525 44.4631C41.2707 44.6259 42.0071 45.0674 42.5363 45.7123C43.0656 46.3572 43.3548 47.1657 43.3547 47.9999C43.3555 48.4736 43.2625 48.9427 43.0812 49.3803C42.8999 49.818 42.6339 50.2154 42.2983 50.5497Z" fill="#231F20" stroke="black" stroke-width="0.25"/>
<path d="M39.7485 45.5454C39.0975 45.5454 38.4732 45.804 38.0128 46.2644C37.5525 46.7247 37.2939 47.349 37.2939 48C37.2939 48.1688 37.3609 48.3307 37.4803 48.45C37.5996 48.5694 37.7615 48.6364 37.9303 48.6364C38.099 48.6364 38.2609 48.5694 38.3802 48.45C38.4996 48.3307 38.5666 48.1688 38.5666 48C38.5666 47.7663 38.636 47.5378 38.7658 47.3434C38.8957 47.1491 39.0803 46.9976 39.2962 46.9081C39.5122 46.8187 39.7498 46.7953 39.9791 46.8409C40.2083 46.8865 40.4189 46.999 40.5842 47.1643C40.7495 47.3296 40.8621 47.5402 40.9077 47.7695C40.9533 47.9987 40.9299 48.2364 40.8404 48.4523C40.751 48.6683 40.5995 48.8529 40.4051 48.9827C40.2108 49.1126 39.9823 49.1819 39.7485 49.1819C39.5797 49.1819 39.4179 49.249 39.2985 49.3683C39.1792 49.4876 39.1121 49.6495 39.1121 49.8183C39.1121 49.9871 39.1792 50.1489 39.2985 50.2683C39.4179 50.3876 39.5797 50.4547 39.7485 50.4547C40.3995 50.4547 41.0239 50.1961 41.4842 49.7357C41.9445 49.2754 42.2031 48.651 42.2031 48C42.2031 47.349 41.9445 46.7247 41.4842 46.2644C41.0239 45.804 40.3995 45.5454 39.7485 45.5454Z" fill="#231F20" stroke="black" stroke-width="0.25"/>
</g>
<defs>
<clipPath id="clip0_580_790">
<rect width="40" height="40" fill="white" transform="translate(20 21)"/>
</clipPath>
</defs>
</svg>
