<svg width="80" height="81" viewBox="0 0 80 81" fill="none" xmlns="http://www.w3.org/2000/svg">
<circle cx="40" cy="40.7378" r="40" fill="white"/>
<path d="M58.75 35.375H41.25C40.875 35.375 40.625 35.625 40.625 36V40.1875L39.0625 39.8125L37.375 38.125C39.25 36.375 39.375 32.6875 39.375 31.625C41.6875 31.625 43.3125 31 43.9375 29.875C44.1875 29.375 44.375 28.5625 43.6875 27.5C43 26.5 42.125 26 40.9375 26H38.6875C38.5 24.875 37.75 22.5 34.8125 21.8125C34.1875 21.6875 33.3125 21.625 33.125 21.625C26.625 21.625 25.625 24.75 25.625 26.625V29.75C25.625 30.1875 25.8125 30.6875 26.1875 31.0625C25.875 31.4375 25.625 32.0625 25.625 32.875C25.625 34.4375 26.6875 35.125 27.625 35.3125C27.9375 36.25 28.375 36.9375 28.8125 37.5L26.5 39.8125C26 40.375 26.625 40.9375 26.625 40.9375L23.9375 43.625C23.6875 43.9375 21.25 46.4375 21.25 48.5C21.25 48.625 21.25 48.6875 21.3125 48.75L24.4375 55C24.5 55.1875 24.6875 55.25 24.8125 55.3125C24.875 55.3125 25.4375 55.5 26.25 55.5C26.25 55.5625 26.1875 59.0625 26.1875 59.0625C26.1875 59.4375 26.4375 59.6875 26.8125 59.6875C27.1875 59.6875 27.4375 59.4375 27.4375 59.0625V57.3125C28.375 58.4375 29.875 59.6875 31.8125 59.6875C33.75 59.6875 37.3125 58.4375 40.4375 57.3125C41 57.125 41.5 56.9375 42 56.75C42.125 56.6875 42.25 56.6875 42.4375 56.625V59.125C42.4375 59.5 42.6875 59.75 43.0625 59.75C43.4375 59.75 43.6875 59.5 43.6875 59.125V56.3125C44.8125 56.0625 45.875 55.9375 46.8125 56H51.1875C52.25 56 53.6875 55.625 54.125 54.5C54.25 54.1875 54.3125 53.875 54.3125 53.5H58.6875C59.0625 53.5 59.3125 53.25 59.3125 52.875V36C59.375 35.625 59.125 35.375 58.75 35.375ZM51.875 36.625V40L50.25 39.1875C50.1875 39.125 50.125 39.125 50 39.125C49.875 39.125 49.8125 39.125 49.75 39.1875L48.125 40V36.625H51.875ZM33.625 40.0625C33.5625 39.9375 33.25 39.75 33.25 39.75C34 39.75 34.625 39.625 35.25 39.4375L35 40.1875L34.375 41.8125C34.375 41.8125 33.6875 40.0625 33.625 40.0625ZM36.6875 39.1875L38 40.5L37.375 41.6875L36.3125 40.25L36.6875 39.1875ZM37.8125 27.25C37.25 27.6875 36.75 28.25 36.375 28.75C35.3125 30.3125 34.375 30.375 34.375 30.375H31.0625C31.3125 30.125 31.5625 29.8125 31.75 29.5C32.5 28.375 33.875 27.25 35 27.25H37.8125ZM42.625 28.25C42.9375 28.6875 43 29.0625 42.8125 29.3125C42.5625 29.8125 41.5 30.375 39.375 30.375H39.3125C39.1875 29.25 39 28.4375 38.875 28C39.5625 27.5625 40.25 27.25 40.9375 27.25C41.625 27.25 42.1875 27.5625 42.625 28.25ZM26.875 26.625C26.875 24.375 28.6875 23.4375 30.75 23.0625C29.6875 24.1875 29.375 25.625 29.375 26.625C29.375 27 29.625 27.25 30 27.25C30.3125 27.25 30.625 27 30.625 26.625C30.625 26.25 30.75 23.25 33.8125 22.9375C36.5 23.1875 37.25 25.0625 37.4375 26H35C33.3125 26 31.625 27.375 30.75 28.75C29.6875 30.3125 28.75 30.375 28.75 30.375H27.5C27 30.375 26.875 30.0625 26.875 29.75V26.625ZM28.125 34.125C27.9375 34.125 26.875 34.0625 26.875 32.875C26.875 31.75 27.375 31.625 27.5 31.625H34.375C34.5625 31.625 36 31.5625 37.375 29.5C37.5 29.3125 37.625 29.125 37.8125 28.9375C37.9375 29.5 38.125 30.4375 38.125 31.6875C38.125 31.75 38.375 35.1875 36.5625 37.1875C35.75 38.0625 34.5625 38.5 33.125 38.5C33.0625 38.5 29.8125 38.4375 28.75 34.5625C28.625 34.3125 28.375 34.125 28.125 34.125ZM29.4375 38.6875L32.1875 40.5L30.5 42.625L27.75 40.375L29.4375 38.6875ZM22.5 48.375C22.625 47.0625 24.1875 45.1875 24.8125 44.5625L27.5625 41.8125L30.1875 44C30.3125 44.125 30.4375 44.125 30.5625 44.125H30.625C30.8125 44.125 30.9375 44 31.0625 43.875L32.875 41.5625L33.75 43.6875C33.875 43.9375 34.0625 44.0625 34.3125 44.0625C34.5625 44.0625 34.8125 43.9375 34.875 43.6875L35.6875 41.625L36.875 43.25C37 43.4375 37.1875 43.5 37.4375 43.5C37.625 43.5 37.8125 43.375 37.9375 43.1875L38.9375 41.125L40.5 41.5V51.4375C39.5625 51.75 38.4375 52.125 37.25 52.5C36.3125 52.8125 35.375 53.125 34.5 53.4375C33.4375 53.8125 32.1875 53.375 31.625 52.375L29.1875 48.1875C29 47.875 28.625 47.8125 28.3125 48C28 48.1875 27.9375 48.5625 28.125 48.875L29.875 51.75C28.875 54.6875 26.1875 54.4375 25.375 54.25L22.5 48.375ZM53 54C52.8125 54.5 51.9375 54.75 51.25 54.75H46.9375C44.875 54.625 42.75 55.25 41.6875 55.625C41.1875 55.8125 40.625 56 40.125 56.1875C37.1875 57.1875 33.625 58.5 31.875 58.5C29.6875 58.5 28.125 56.25 27.625 55.4375C28.6875 55.1875 29.875 54.625 30.75 53.125C31.4375 54.1875 32.625 54.8125 33.875 54.8125C34.25 54.8125 34.625 54.75 35 54.625C35.8125 54.375 36.75 54.0625 37.75 53.6875C40.5 52.75 43.875 51.625 44.75 51.625H49.125C49.3125 51.625 49.6875 51.75 49.75 52.25H48.125C47.75 52.25 47.5 52.5 47.5 52.875C47.5 53.25 47.75 53.5 48.125 53.5C48.125 53.5 52.875 53.5625 53.125 53.5625C53.125 53.6875 53.0625 53.875 53 54ZM58.125 52.25H51C50.9375 50.875 49.875 50.375 49.125 50.375H44.75C44.1875 50.375 43.25 50.625 41.875 51V36.625H46.875V41C46.875 41.1875 47 41.4375 47.1875 41.5625C47.375 41.6875 47.625 41.6875 47.8125 41.5625L50.0625 40.4375L52.3125 41.5625C52.3125 41.625 52.375 41.625 52.5 41.625C52.625 41.625 52.75 41.625 52.8125 41.5625C53 41.4375 53.125 41.25 53.125 41V36.625H58.125V52.25Z" fill="black"/>
<path d="M46.875 47.875H44.375C44 47.875 43.75 48.125 43.75 48.5C43.75 48.875 44 49.125 44.375 49.125H46.875C47.25 49.125 47.5 48.875 47.5 48.5C47.5 48.125 47.25 47.875 46.875 47.875ZM44.375 47.25H45.625C46 47.25 46.25 47 46.25 46.625C46.25 46.25 46 46 45.625 46H44.375C44 46 43.75 46.25 43.75 46.625C43.75 47 44 47.25 44.375 47.25Z" fill="black"/>
</svg>
