<svg width="80" height="81" viewBox="0 0 80 81" fill="none" xmlns="http://www.w3.org/2000/svg">
<circle cx="40" cy="40.7378" r="40" fill="white"/>
<g clip-path="url(#clip0_24_43)">
<path d="M37.2834 43.0975L38.0324 38.9475C38.0511 38.8503 38.1867 38.8413 38.2182 38.9351L39.4367 43.0653C39.4662 43.1532 39.5909 43.1526 39.6195 43.0643L40.7964 38.9358C40.827 38.8417 40.9626 38.8493 40.9823 38.9463L41.7756 43.0976M52.0763 43.0975L52.8254 38.9475C52.8441 38.8503 52.9797 38.8413 53.0112 38.9351L54.2297 43.0653C54.2592 43.1532 54.3838 43.1526 54.4125 43.0643L55.5894 38.9358C55.6199 38.8417 55.7555 38.8493 55.7752 38.9463L56.5686 43.0976M44.2222 38.8692V43.1307M34.8369 38.8692H33.0412V43.1307H34.8369M34.7045 40.9999H33.0412M46.6687 38.8692V41.8017C46.6687 42.301 46.9164 42.6373 47.3373 42.9062C47.5422 43.0371 47.8011 43.1304 48.1228 43.1309C48.4014 43.1313 48.6342 43.0667 48.8268 42.9698C49.3173 42.7228 49.6299 42.3478 49.6299 41.7986V38.8692M28.8045 41.0967L30.5947 43.1307M28.2906 41.0892V43.1307M28.2906 41.0892C28.2906 41.0892 29.1101 41.0842 29.4245 41.0842C30.0584 41.0842 30.5947 40.5884 30.5947 39.9767C30.5947 39.365 30.0584 38.8692 29.4245 38.8692H28.292L28.2906 41.0892ZM23.4313 41.2797V43.1307M23.4313 41.2797C23.4313 41.2797 24.2886 41.2744 24.618 41.2744C25.2822 41.2744 25.8441 40.736 25.8441 40.0717C25.8441 39.4076 25.2821 38.8692 24.618 38.8692H23.4313V41.2797ZM32.957 29.6109C35.0031 28.3421 37.4156 27.6101 40 27.6101C45.6078 27.6101 50.4094 31.0578 52.4039 35.9492H27.5961C28.3211 34.171 29.4172 32.5835 30.7875 31.2843M47.957 51.7687C49.9188 50.3179 51.4687 48.3429 52.4039 46.0507H27.5961C29.5906 50.9421 34.3922 54.3898 40 54.3898C41.9984 54.3898 43.8945 53.9523 45.5977 53.1664M20.5859 35.9492H59.4141M59.4141 46.0507H20.5859" stroke="black" stroke-width="1.25" stroke-miterlimit="10" stroke-linecap="round" stroke-linejoin="round"/>
<path d="M50.7492 25.4952C51.2813 25.4788 51.7602 25.5452 52.1055 25.821C53.1758 26.6757 52.5805 29.2163 53.4352 30.2874C54.2859 31.3522 56.8969 31.3343 57.4953 32.5741C57.9234 33.4624 57.1742 34.7772 56.8531 35.9491H23.1469C22.8258 34.7772 22.0766 33.4624 22.5047 32.5741C23.1031 31.3335 25.7141 31.3522 26.5649 30.2874C27.4195 29.2163 26.8242 26.6757 27.8945 25.821C28.9602 24.9702 31.3039 26.1132 32.5438 25.5147C33.7641 24.9257 34.3274 22.3757 35.6797 22.0687C36.9899 21.771 38.6 23.8171 40 23.8171C41.4 23.8171 43.0102 21.771 44.3203 22.0687C45.6727 22.3757 46.2359 24.9257 47.4563 25.5147C47.625 25.596 47.8141 25.6452 48.0172 25.671M23.1471 46.0507C22.8256 47.2224 22.0766 48.5377 22.5049 49.4256C23.1033 50.6659 25.7143 50.6473 26.5649 51.7127C27.4198 52.7833 26.8241 55.3238 27.8947 56.1787C28.9601 57.0294 31.3035 55.8867 32.5438 56.4851C33.764 57.0737 34.3274 59.6239 35.6798 59.9313C36.9895 60.229 38.6 58.1825 39.9999 58.1825C41.3999 58.1825 43.0103 60.229 44.3201 59.9313C45.6725 59.6239 46.2359 57.0738 47.456 56.4851C48.6963 55.8868 51.0398 57.0294 52.1052 56.1787C53.1757 55.3239 52.5801 52.7833 53.4349 51.7128C54.2856 50.6474 56.8966 50.666 57.495 49.4257C57.9234 48.5378 57.1744 47.2225 56.8528 46.0508H23.1471V46.0507Z" stroke="black" stroke-width="1.25" stroke-miterlimit="10" stroke-linecap="round" stroke-linejoin="round"/>
</g>
<defs>
<clipPath id="clip0_24_43">
<rect width="40" height="40" fill="white" transform="translate(20 21)"/>
</clipPath>
</defs>
</svg>
